SplineFontDB: 3.2
FontName: Bender-Black
FullName: Bender Black
FamilyName: Bender
Weight: Black
Copyright: Copyright (c) 2009 by Oleg Zhuravlev, Gladkikh Ivan. All rights reserved.
Version: 001.001
ItalicAngle: 0
UnderlinePosition: -100
UnderlineWidth: 50
Ascent: 800
Descent: 200
InvalidEm: 0
sfntRevision: 0x00010000
LayerCount: 2
Layer: 0 0 "Back" 1
Layer: 1 0 "Fore" 0
XUID: [1021 637 1920103648 9283696]
StyleMap: 0x0000
FSType: 4
OS2Version: 2
OS2_WeightWidthSlopeOnly: 0
OS2_UseTypoMetrics: 0
CreationTime: 1245964665
ModificationTime: 1759110414
PfmFamily: 17
TTFWeight: 900
TTFWidth: 5
LineGap: 30
VLineGap: 0
Panose: 2 0 5 3 3 0 0 2 0 4
OS2TypoAscent: 710
OS2TypoAOffset: 0
OS2TypoDescent: -180
OS2TypoDOffset: 0
OS2TypoLinegap: 60
OS2WinAscent: 920
OS2WinAOffset: 0
OS2WinDescent: 180
OS2WinDOffset: 0
HheadAscent: 920
HheadAOffset: 0
HheadDescent: -180
HheadDOffset: 0
OS2SubXSize: 700
OS2SubYSize: 650
OS2SubXOff: 0
OS2SubYOff: 140
OS2SupXSize: 700
OS2SupYSize: 650
OS2SupXOff: 0
OS2SupYOff: 477
OS2StrikeYSize: 50
OS2StrikeYPos: 250
OS2CapHeight: 710
OS2XHeight: 568
OS2Vendor: 'PYRS'
OS2CodePages: 20000097.00000000
OS2UnicodeRanges: 8000020f.0000000a.00000000.00000000

StartChar: exclam
Encoding: 33 33 1
Width: 290
GlyphClass: 1
Flags: MW
HStem: -15 169<102 183 102 188 102 183> 690 20G<61 229 229 229>
VStem: 65 160
LayerCount: 2
Fore
SplineSet
69 210 m 1
 61 710 l 1
 229 710 l 1
 221 210 l 1
 69 210 l 1
60 27 m 1
 60 112 l 1
 102 154 l 1
 183 154 l 1
 230 112 l 1
 230 27 l 1
 188 -15 l 1
 102 -15 l 1
 60 27 l 1
EndSplineSet
EndChar

StartChar: quotedbl
Encoding: 34 34 2
Width: 404
GlyphClass: 1
Flags: MW
HStem: 390 21G<48 48 48 154 250 356 250 250> 690 20G<30 172 172 172 232 374 374 374>
VStem: 39 124 241 124
LayerCount: 2
Fore
SplineSet
48 390 m 1
 30 710 l 1
 172 710 l 1
 154 390 l 1
 48 390 l 1
250 390 m 1
 232 710 l 1
 374 710 l 1
 356 390 l 1
 250 390 l 1
EndSplineSet
EndChar

StartChar: numbersign
Encoding: 35 35 3
Width: 800
GlyphClass: 1
Flags: MW
HStem: 0 21G<50 201 50 50 321 472 321 321> 152 135<0 109 0 162 313 380 0 260 584 692> 423 135<108 215 108 268 419 486 108 366 690 800> 690 20G<328 479 479 479 599 750 750 750>
LayerCount: 2
Fore
SplineSet
108 558 m 1
 268 558 l 1
 328 710 l 1
 479 710 l 1
 419 558 l 1
 539 558 l 1
 599 710 l 1
 750 710 l 1
 690 558 l 1
 800 558 l 1
 800 423 l 1
 637 423 l 1
 584 287 l 1
 692 287 l 1
 692 152 l 1
 531 152 l 1
 472 0 l 1
 321 0 l 1
 380 152 l 1
 260 152 l 1
 201 0 l 1
 50 0 l 1
 109 152 l 1
 0 152 l 1
 0 287 l 1
 162 287 l 1
 215 423 l 1
 108 423 l 1
 108 558 l 1
366 423 m 1
 313 287 l 1
 433 287 l 1
 486 423 l 1
 366 423 l 1
EndSplineSet
EndChar

StartChar: dollar
Encoding: 36 36 4
Width: 600
GlyphClass: 1
Flags: MW
HStem: -70 215<231 370 231 231> 0 145<203 231 174 376 370 376 203 438 370 370> 565 145<225 231 370 397 225 225> 565 215<231 370 231 397 225 370>
LayerCount: 2
Fore
SplineSet
370 710 m 1xa0
 426 710 l 1
 570 661 l 1
 523 522 l 1
 397 565 l 1
 225 565 l 1
 191 531 l 1
 191 506 l 1
 204 479 l 1
 523 341 l 1
 565 262 l 1
 565 127 l 1
 438 0 l 1
 370 0 l 1x60
 370 -70 l 1
 231 -70 l 1xa0
 231 0 l 1
 174 0 l 1x60
 30 49 l 1
 77 188 l 1
 203 145 l 1
 376 145 l 1
 410 179 l 1
 410 204 l 1
 397 231 l 1
 78 369 l 1
 36 448 l 1
 36 583 l 1
 163 710 l 1
 231 710 l 1xa0
 231 780 l 1
 370 780 l 1x90
 370 710 l 1xa0
EndSplineSet
EndChar

StartChar: percent
Encoding: 37 37 5
Width: 836
GlyphClass: 1
Flags: MW
HStem: -25 21G<220 220> -20 20G<568 714 568 568> 715 20G<616 616>
LayerCount: 2
Fore
SplineSet
614 215 m 1xa0
 591 192 l 1
 591 138 l 1
 614 115 l 1
 668 115 l 1
 691 138 l 1
 691 192 l 1
 668 215 l 1
 614 215 l 1xa0
616 735 m 1
 735 644 l 1
 220 -25 l 1
 101 66 l 1
 616 735 l 1
568 330 m 1
 714 330 l 1
 811 233 l 1
 811 97 l 1
 714 0 l 1
 568 0 l 1x60
 471 97 l 1
 471 233 l 1
 568 330 l 1
168 595 m 1
 145 572 l 1
 145 518 l 1
 168 495 l 1
 222 495 l 1
 245 518 l 1
 245 572 l 1
 222 595 l 1
 168 595 l 1
122 710 m 1
 268 710 l 1
 365 613 l 1
 365 477 l 1
 268 380 l 1
 122 380 l 1
 25 477 l 1
 25 613 l 1
 122 710 l 1
EndSplineSet
EndChar

StartChar: ampersand
Encoding: 38 38 6
Width: 652
GlyphClass: 1
Flags: MW
HStem: -20 21G<532 532> 0 135<217 325 217 394 158 325> 460 250<413 440 226 568 413 413> 575 135<285 381 285 285>
VStem: 413 155<460 543 543 543>
LayerCount: 2
Fore
SplineSet
253 517 m 1x58
 472 267 l 1
 544 331 l 1
 642 222 l 1
 569 157 l 1
 641 75 l 1
 532 -20 l 1xa8
 461 60 l 1
 394 0 l 1
 158 0 l 1
 30 127 l 1
 30 255 l 1
 170 393 l 1
 98 474 l 1
 98 583 l 1
 226 710 l 1
 440 710 l 1
 568 583 l 1
 568 460 l 1
 413 460 l 1x68
 413 543 l 1
 381 575 l 1
 285 575 l 1
 253 543 l 1
 253 517 l 1x58
217 135 m 1x68
 325 135 l 1
 365 170 l 1
 260 290 l 1
 185 215 l 1
 185 167 l 1
 217 135 l 1x68
EndSplineSet
EndChar

StartChar: asterisk
Encoding: 42 42 7
Width: 448
GlyphClass: 1
Flags: MW
HStem: 330 21G<169 279 169 169> 690 20G<169 279 279 279>
VStem: 169 110<330 418 330 418 622 710>
LayerCount: 2
Fore
SplineSet
279 622 m 1
 362 670 l 1
 418 573 l 1
 327 520 l 1
 418 467 l 1
 362 370 l 1
 279 418 l 1
 279 330 l 1
 169 330 l 1
 169 418 l 1
 86 370 l 1
 30 467 l 1
 121 520 l 1
 30 573 l 1
 86 670 l 1
 169 622 l 1
 169 710 l 1
 279 710 l 1
 279 622 l 1
EndSplineSet
EndChar

StartChar: plus
Encoding: 43 43 8
Width: 520
GlyphClass: 1
Flags: MW
HStem: 110 21G<188 332 188 188> 277 135<20 188 20 188 332 500> 560 20G<188 332 332 332>
VStem: 188 144<110 277 110 277 412 580>
LayerCount: 2
Fore
SplineSet
188 580 m 1
 332 580 l 1
 332 412 l 1
 500 412 l 1
 500 277 l 1
 332 277 l 1
 332 110 l 1
 188 110 l 1
 188 277 l 1
 20 277 l 1
 20 412 l 1
 188 412 l 1
 188 580 l 1
EndSplineSet
EndChar

StartChar: hyphen
Encoding: 45 45 9
Width: 500
GlyphClass: 1
Flags: MW
HStem: 277 135<20 480 20 480>
LayerCount: 2
Fore
SplineSet
20 277 m 1
 20 412 l 1
 480 412 l 1
 480 277 l 1
 20 277 l 1
EndSplineSet
EndChar

StartChar: period
Encoding: 46 46 10
Width: 230
GlyphClass: 1
Flags: MW
HStem: -15 169<72 153 72 158 72 153>
VStem: 30 170<27 112 27 112>
LayerCount: 2
Fore
SplineSet
30 27 m 1
 30 112 l 1
 72 154 l 1
 153 154 l 1
 200 112 l 1
 200 27 l 1
 158 -15 l 1
 72 -15 l 1
 30 27 l 1
EndSplineSet
EndChar

StartChar: zero
Encoding: 48 48 11
Width: 655
GlyphClass: 1
Flags: MW
HStem: 0 135<259 414 259 466 189 414> 575 135<241 241 241 396>
VStem: 50 145<254 533 254 584 254 584> 460 145<177 456 456 456>
LayerCount: 2
Fore
SplineSet
189 710 m 1
 466 710 l 1
 605 584 l 1
 605 126 l 1
 466 0 l 1
 189 0 l 1
 50 126 l 1
 50 584 l 1
 189 710 l 1
414 135 m 1
 460 177 l 1
 460 456 l 1
 259 135 l 1
 414 135 l 1
241 575 m 1
 195 533 l 1
 195 254 l 1
 396 575 l 1
 241 575 l 1
EndSplineSet
EndChar

StartChar: one
Encoding: 49 49 12
Width: 411
GlyphClass: 1
Flags: MW
HStem: 0 135<64 155 310 401 64 155> 690 20G<188 310 310 310>
VStem: 155 155<135 452 452 452>
LayerCount: 2
Fore
SplineSet
144 454 m 1
 116 426 l 1
 10 532 l 1
 188 710 l 1
 310 710 l 1
 310 135 l 1
 401 135 l 1
 401 0 l 1
 64 0 l 1
 64 135 l 1
 155 135 l 1
 155 452 l 1
 168 487 l 1
 165 489 l 1
 144 454 l 1
EndSplineSet
EndChar

StartChar: two
Encoding: 50 50 13
Width: 596
GlyphClass: 1
Flags: MW
HStem: 0 145<207 566 207 566> 565 145<190 371 190 190>
VStem: 411 155<451 525 525 525>
LayerCount: 2
Fore
SplineSet
31 214 m 1
 369 403 l 1
 411 451 l 1
 411 525 l 1
 371 565 l 1
 190 565 l 1
 63 525 l 1
 20 663 l 1
 171 710 l 1
 439 710 l 1
 566 582 l 1
 566 402 l 1
 467 291 l 1
 207 145 l 1
 566 145 l 1
 566 0 l 1
 31 0 l 1
 31 214 l 1
EndSplineSet
EndChar

StartChar: three
Encoding: 51 51 14
Width: 596
GlyphClass: 1
Flags: MW
HStem: 0 145<183 372 183 438 154 372> 565 145<32 322 32 566>
VStem: 411 155<185 245 245 245>
LayerCount: 2
Fore
SplineSet
322 565 m 1
 32 565 l 1
 32 710 l 1
 566 710 l 1
 566 588 l 1
 387 431 l 1
 352 410 l 1
 354 407 l 1
 389 420 l 1
 438 420 l 1
 566 293 l 1
 566 127 l 1
 438 0 l 1
 154 0 l 1
 10 49 l 1
 57 188 l 1
 183 145 l 1
 372 145 l 1
 411 185 l 1
 411 245 l 1
 372 285 l 1
 162 285 l 1
 162 411 l 1
 324 554 l 1
 359 575 l 1
 357 578 l 1
 322 565 l 1
EndSplineSet
EndChar

StartChar: four
Encoding: 52 52 15
Width: 616
GlyphClass: 1
Flags: MW
HStem: 0 21G<378 533 378 378> 131 145<220 378 220 378 533 606> 690 20G<405 533 533 533>
VStem: 378 155<0 131 0 131 276 450 450 450>
LayerCount: 2
Fore
SplineSet
533 276 m 1
 606 276 l 1
 606 131 l 1
 533 131 l 1
 533 0 l 1
 378 0 l 1
 378 131 l 1
 10 131 l 1
 10 272 l 1
 405 710 l 1
 533 710 l 1
 533 276 l 1
367 452 m 1
 218 287 l 1
 183 266 l 1
 185 263 l 1
 220 276 l 1
 378 276 l 1
 378 450 l 1
 391 485 l 1
 388 487 l 1
 367 452 l 1
EndSplineSet
EndChar

StartChar: five
Encoding: 53 53 16
Width: 607
GlyphClass: 1
Flags: MW
HStem: 0 145<215 381 215 449 190 381> 303 145<212 381> 565 145<212 567 212 212>
VStem: 57 155<448 565 448 710 448 710> 422 155<185 263 263 263>
LayerCount: 2
Fore
SplineSet
57 710 m 1
 567 710 l 1
 567 565 l 1
 212 565 l 1
 212 448 l 1
 449 448 l 1
 577 321 l 1
 577 127 l 1
 449 0 l 1
 190 0 l 1
 40 50 l 1
 86 188 l 1
 215 145 l 1
 381 145 l 1
 422 185 l 1
 422 263 l 1
 381 303 l 1
 57 303 l 1
 57 710 l 1
EndSplineSet
EndChar

StartChar: six
Encoding: 54 54 17
Width: 631
GlyphClass: 1
Flags: MW
HStem: 0 145<245 400 245 468 177 400> 305 145<268 400 243 468> 565 145<245 432 245 245>
VStem: 50 155<185 296 436 525> 440 155<185 265 265 265>
LayerCount: 2
Fore
SplineSet
50 128 m 1
 50 582 l 1
 177 710 l 1
 457 710 l 1
 601 662 l 1
 555 524 l 1
 432 565 l 1
 245 565 l 1
 205 525 l 1
 205 436 l 1
 268 450 l 1
 468 450 l 1
 595 322 l 1
 595 128 l 1
 468 0 l 1
 177 0 l 1
 50 128 l 1
400 305 m 1
 243 305 l 1
 205 296 l 1
 205 185 l 1
 245 145 l 1
 400 145 l 1
 440 185 l 1
 440 265 l 1
 400 305 l 1
EndSplineSet
EndChar

StartChar: seven
Encoding: 55 55 18
Width: 555
GlyphClass: 1
Flags: MW
HStem: 0 21G<165 320 165 165> 565 145<10 376 10 535>
VStem: 165 155<0 164 0 202 0 202>
LayerCount: 2
Fore
SplineSet
320 164 m 1
 320 0 l 1
 165 0 l 1
 165 202 l 1
 376 565 l 1
 10 565 l 1
 10 710 l 1
 535 710 l 1
 535 534 l 1
 320 164 l 1
EndSplineSet
EndChar

StartChar: eight
Encoding: 56 56 19
Width: 648
GlyphClass: 1
Flags: WO
HStem: 0 140<246 402> 285 140<257 391> 570 140<250 398>
VStem: 55 155<181 244 442 530> 438 155<181 244 442 530>
CounterMasks: 1 e0
LayerCount: 2
Fore
SplineSet
250 570 m 1
 210 530 l 1
 210 459 l 1
 226 447 238 437 253 425 c 1
 395 425 l 1
 410 437 422 447 438 459 c 1
 438 530 l 1
 398 570 l 1
 250 570 l 1
257 285 m 1
 205 244 l 1
 205 181 l 1
 246 140 l 1
 402 140 l 1
 443 181 l 1
 443 244 l 1
 391 285 l 1
 257 285 l 1
183 710 m 1
 465 710 l 1
 593 588 l 1
 593 408 l 1
 524 355 l 1
 598 300 l 1
 598 122 l 1
 470 0 l 1
 178 0 l 1
 50 122 l 1
 50 300 l 1
 124 355 l 1
 55 408 l 1
 55 588 l 1
 183 710 l 1
EndSplineSet
EndChar

StartChar: colon
Encoding: 58 58 20
Width: 230
GlyphClass: 1
Flags: MW
HStem: -15 169<72 153 72 158 72 153> 311 169<72 153 72 158 72 153>
VStem: 30 170<27 112 27 112 353 438>
LayerCount: 2
Fore
SplineSet
30 27 m 1
 30 112 l 1
 72 154 l 1
 153 154 l 1
 200 112 l 1
 200 27 l 1
 158 -15 l 1
 72 -15 l 1
 30 27 l 1
30 353 m 1
 30 438 l 1
 72 480 l 1
 153 480 l 1
 200 438 l 1
 200 353 l 1
 158 311 l 1
 72 311 l 1
 30 353 l 1
EndSplineSet
EndChar

StartChar: semicolon
Encoding: 59 59 21
Width: 237
GlyphClass: 1
Flags: MW
HStem: -180 21G<0 0 0 105> 311 169<79 160 79 165 79 160>
VStem: 37 170<353 438 353 438>
LayerCount: 2
Fore
SplineSet
37 353 m 1
 37 438 l 1
 79 480 l 1
 160 480 l 1
 207 438 l 1
 207 353 l 1
 165 311 l 1
 79 311 l 1
 37 353 l 1
0 -180 m 1
 65 110 l 1
 210 110 l 1
 105 -180 l 1
 0 -180 l 1
EndSplineSet
EndChar

StartChar: equal
Encoding: 61 61 22
Width: 500
GlyphClass: 1
Flags: MW
HStem: 177 125<20 480 20 480> 388 125<20 480 20 480>
LayerCount: 2
Fore
SplineSet
20 388 m 1
 20 513 l 1
 480 513 l 1
 480 388 l 1
 20 388 l 1
20 177 m 1
 20 302 l 1
 480 302 l 1
 480 177 l 1
 20 177 l 1
EndSplineSet
EndChar

StartChar: question
Encoding: 63 63 23
Width: 587
GlyphClass: 1
Flags: MW
HStem: -15 169<241 322 241 327 241 322> 565 145<204 204 204 363>
VStem: 206 163<27 335> 402 155<463 526 526 526>
LayerCount: 2
Fore
SplineSet
204 565 m 1
 106 468 l 1
 0 575 l 1
 136 710 l 1
 430 710 l 1
 557 583 l 1
 557 400 l 1
 361 272 l 1
 361 210 l 1
 206 210 l 1
 206 335 l 1
 402 463 l 1
 402 526 l 1
 363 565 l 1
 204 565 l 1
199 27 m 1
 199 112 l 1
 241 154 l 1
 322 154 l 1
 369 112 l 1
 369 27 l 1
 327 -15 l 1
 241 -15 l 1
 199 27 l 1
EndSplineSet
EndChar

StartChar: at
Encoding: 64 64 24
Width: 949
GlyphClass: 1
Flags: MW
HStem: -114 135<276 756 276 756 220 756> 49 117<420 781 420 591> 61 105<420 499 420 519 358 499> 251 105<420 544 420 420> 420 115<421 525 421 421> 575 135<276 673 276 276>
VStem: 60 145<86 510 86 564 86 564> 544 135<230 230 230 251 251 251 356 401 401 401> 744 145<194 510 510 510>
LayerCount: 2
Fore
SplineSet
679 230 m 1xbf80
 692 174 l 1
 724 174 l 1
 744 194 l 1
 744 510 l 1
 673 575 l 1
 276 575 l 1
 205 510 l 1
 205 86 l 1
 276 21 l 1
 756 21 l 1
 756 -114 l 1
 220 -114 l 1
 60 32 l 1
 60 564 l 1
 220 710 l 1
 729 710 l 1
 889 564 l 1
 889 156 l 1
 781 49 l 1
 591 49 l 1xdf80
 574 124 l 1
 519 61 l 1
 358 61 l 1
 260 158 l 1
 260 259 l 1
 358 356 l 1
 544 356 l 1
 544 401 l 1
 525 420 l 1
 421 420 l 1
 306 381 l 1
 269 490 l 1
 402 535 l 1
 571 535 l 1
 679 428 l 1
 679 230 l 1xbf80
544 218 m 1
 544 251 l 1
 420 251 l 1
 395 226 l 1
 395 191 l 1
 420 166 l 1
 499 166 l 1
 544 218 l 1
EndSplineSet
EndChar

StartChar: D
Encoding: 68 68 25
Width: 656
GlyphClass: 1
Flags: MW
HStem: 0 145<215 411 215 478> 565 145<215 411 215 215>
VStem: 60 155<145 565 145 710 145 710> 451 155<185 525 525 525>
LayerCount: 2
Fore
SplineSet
60 0 m 1
 60 710 l 1
 478 710 l 1
 606 581 l 1
 606 129 l 1
 478 0 l 1
 60 0 l 1
451 525 m 1
 411 565 l 1
 215 565 l 1
 215 145 l 1
 411 145 l 1
 451 185 l 1
 451 525 l 1
EndSplineSet
EndChar

StartChar: F
Encoding: 70 70 26
Width: 573
GlyphClass: 1
Flags: MW
HStem: 0 21G<60 60 60 215> 270 145<215 511 215 511> 565 145<215 553 215 215>
VStem: 60 155<0 270 415 565>
LayerCount: 2
Fore
SplineSet
60 0 m 1
 60 710 l 1
 553 710 l 1
 553 565 l 1
 215 565 l 1
 215 415 l 1
 511 415 l 1
 511 270 l 1
 215 270 l 1
 215 0 l 1
 60 0 l 1
EndSplineSet
EndChar

StartChar: G
Encoding: 71 71 27
Width: 645
GlyphClass: 1
Flags: MW
HStem: 0 145<245 400 245 468 178 400> 266 125<287 440 287 595> 565 145<245 400 245 245>
VStem: 50 155<185 525 185 582 185 582> 440 155<185 266 266 266 450 525 525 525>
LayerCount: 2
Fore
SplineSet
400 145 m 1
 414 159 426 170 440 185 c 1
 440 266 l 1
 287 266 l 1
 287 391 l 1
 595 391 l 1
 595 127 l 1
 468 0 l 1
 178 0 l 1
 50 128 l 1
 50 582 l 1
 178 710 l 1
 467 710 l 1
 595 582 l 1
 595 450 l 1
 440 450 l 1
 440 525 l 1
 400 565 l 1
 245 565 l 1
 205 525 l 1
 205 185 l 1
 245 145 l 1
 400 145 l 1
EndSplineSet
EndChar

StartChar: I
Encoding: 73 73 28
Width: 407
GlyphClass: 1
Flags: MW
HStem: 0 135<30 126 281 377 30 126> 575 135<30 126 30 377 281 281 281 377>
VStem: 126 155<135 575 135 575>
LayerCount: 2
Fore
SplineSet
377 0 m 1
 30 0 l 1
 30 135 l 1
 126 135 l 1
 126 575 l 1
 30 575 l 1
 30 710 l 1
 377 710 l 1
 377 575 l 1
 281 575 l 1
 281 135 l 1
 377 135 l 1
 377 0 l 1
EndSplineSet
EndChar

StartChar: J
Encoding: 74 74 29
Width: 566
GlyphClass: 1
Flags: MW
HStem: 0 145<142 321 208 321 208 388> 565 145<223 361 223 516>
VStem: 361 155<185 565 565 565>
LayerCount: 2
Fore
SplineSet
142 0 m 1
 0 141 l 1
 105 247 l 1
 208 145 l 1
 321 145 l 1
 361 185 l 1
 361 565 l 1
 223 565 l 1
 223 710 l 1
 516 710 l 1
 516 128 l 1
 388 0 l 1
 142 0 l 1
EndSplineSet
EndChar

StartChar: K
Encoding: 75 75 30
Width: 594
GlyphClass: 1
Flags: MW
HStem: -20 20G 710 20G
VStem: 60 155<0 216 437 710>
LayerCount: 2
Fore
SplineSet
378 389 m 1
 593 64 l 1
 467 -20 l 1
 270 277 l 1
 215 216 l 1
 215 0 l 1
 60 0 l 1
 60 710 l 1
 215 710 l 1
 215 437 l 1
 479 730 l 1
 593 628 l 1
 378 389 l 1
EndSplineSet
EndChar

StartChar: L
Encoding: 76 76 31
Width: 553
GlyphClass: 1
Flags: MW
HStem: 0 145<215 543 215 543> 690 20G<60 215 215 215>
VStem: 60 155<145 710 145 710 145 710>
LayerCount: 2
Fore
SplineSet
60 0 m 1
 60 710 l 1
 215 710 l 1
 215 145 l 1
 543 145 l 1
 543 0 l 1
 60 0 l 1
EndSplineSet
EndChar

StartChar: N
Encoding: 78 78 32
Width: 666
GlyphClass: 1
Flags: MW
HStem: 0 21G<60 215 60 60 467 467 467 606> 690 20G<60 199 199 199 451 606 606 606>
VStem: 60 155<0 372 0 710> 451 155<338 710 0 710>
LayerCount: 2
Fore
SplineSet
215 372 m 1
 215 0 l 1
 60 0 l 1
 60 710 l 1
 199 710 l 1
 432 337 l 1
 458 271 l 1
 462 271 l 1
 451 338 l 1
 451 710 l 1
 606 710 l 1
 606 0 l 1
 467 0 l 1
 234 373 l 1
 208 439 l 1
 204 439 l 1
 215 372 l 1
EndSplineSet
EndChar

StartChar: Q
Encoding: 81 81 33
Width: 675
GlyphClass: 1
Flags: MW
HStem: -138 21G<265 415 265 265> -20 20G<189 265 189 189 415 415 415 486> 565 145<251 424 251 251>
VStem: 50 155<187 523 187 584 187 584> 265 150<-138 0 -138 0 -138 205> 470 155<187 523 523 523>
LayerCount: 2
Fore
SplineSet
265 0 m 1
 189 0 l 1
 50 126 l 1
 50 584 l 1
 189 710 l 1
 486 710 l 1
 625 584 l 1
 625 126 l 1
 486 0 l 1
 415 0 l 1
 415 -138 l 1
 265 -138 l 1
 265 0 l 1
470 523 m 1
 424 565 l 1
 251 565 l 1
 205 523 l 1
 205 187 l 1
 251 145 l 1
 265 145 l 1
 265 205 l 1
 410 205 l 1
 410 145 l 1
 424 145 l 1
 470 187 l 1
 470 523 l 1
EndSplineSet
EndChar

StartChar: R
Encoding: 82 82 34
Width: 641
GlyphClass: 1
Flags: MW
HStem: -25 21G<510 510> -20 20G<60 215 60 60> 565 145<215 414 215 215>
VStem: 60 155<0 264 409 565> 450 155<446 528 528 528>
LayerCount: 2
Fore
SplineSet
414 565 m 1x78
 215 565 l 1
 215 409 l 1
 414 409 l 1
 450 446 l 1
 450 528 l 1
 414 565 l 1x78
456 253 m 1
 621 84 l 1
 510 -25 l 1xb8
 228 264 l 1
 215 264 l 1
 215 0 l 1
 60 0 l 1
 60 710 l 1
 494 710 l 1
 605 600 l 1
 605 374 l 1
 494 264 l 1
 458 264 l 1
 423 281 l 1
 421 278 l 1
 456 253 l 1
EndSplineSet
EndChar

StartChar: S
Encoding: 83 83 35
Width: 600
GlyphClass: 1
Flags: MW
HStem: 0 145<203 376 203 438 174 376> 565 145<225 397 225 225>
LayerCount: 2
Fore
SplineSet
36 448 m 1
 36 583 l 1
 163 710 l 1
 426 710 l 1
 570 661 l 1
 523 522 l 1
 397 565 l 1
 225 565 l 1
 191 531 l 1
 191 506 l 1
 204 479 l 1
 523 341 l 1
 565 262 l 1
 565 127 l 1
 438 0 l 1
 174 0 l 1
 30 49 l 1
 77 188 l 1
 203 145 l 1
 376 145 l 1
 410 179 l 1
 410 204 l 1
 397 231 l 1
 78 369 l 1
 36 448 l 1
EndSplineSet
EndChar

StartChar: U
Encoding: 85 85 36
Width: 645
GlyphClass: 1
Flags: MW
HStem: 0 145<178 400 245 400 245 467> 690 20G<50 205 205 205 440 595 595 595>
VStem: 50 155<185 710 185 710 185 710> 440 155<185 710 127 710>
LayerCount: 2
Fore
SplineSet
178 0 m 1
 50 127 l 1
 50 710 l 1
 205 710 l 1
 205 185 l 1
 245 145 l 1
 400 145 l 1
 440 185 l 1
 440 710 l 1
 595 710 l 1
 595 127 l 1
 467 0 l 1
 178 0 l 1
EndSplineSet
EndChar

StartChar: V
Encoding: 86 86 37
Width: 606
GlyphClass: 1
Flags: MW
HStem: 0 21G<226 380 226 226> 710 20G<143 143 463 463>
LayerCount: 2
Fore
SplineSet
380 0 m 1
 226 0 l 1
 0 682 l 1
 143 730 l 1
 288 293 l 1
 301 219 l 1
 305 219 l 1
 318 293 l 1
 463 730 l 1
 606 682 l 1
 380 0 l 1
EndSplineSet
EndChar

StartChar: W
Encoding: 87 87 38
Width: 916
GlyphClass: 1
Flags: MW
HStem: 0 21G<205 323 205 205 593 711 593 593> 710 20G<145 145 771 771>
LayerCount: 2
Fore
SplineSet
389 679 m 1
 527 679 l 1
 630 357 l 1
 644 288 l 1
 648 288 l 1
 660 357 l 1
 771 730 l 1
 916 686 l 1
 711 0 l 1
 593 0 l 1
 472 378 l 1
 460 447 l 1
 456 447 l 1
 444 378 l 1
 323 0 l 1
 205 0 l 1
 0 686 l 1
 145 730 l 1
 256 357 l 1
 268 288 l 1
 272 288 l 1
 286 357 l 1
 389 679 l 1
EndSplineSet
EndChar

StartChar: Y
Encoding: 89 89 39
Width: 604
GlyphClass: 1
Flags: MW
HStem: 0 21G<224 379 224 224> 715 20G<139 139 465 465>
VStem: 224 155<0 220 0 222 0 222>
LayerCount: 2
Fore
SplineSet
604 665 m 1
 379 220 l 1
 379 0 l 1
 224 0 l 1
 224 222 l 1
 0 665 l 1
 139 735 l 1
 288 440 l 1
 300 371 l 1
 304 371 l 1
 316 440 l 1
 465 735 l 1
 604 665 l 1
EndSplineSet
EndChar

StartChar: Z
Encoding: 90 90 40
Width: 585
GlyphClass: 1
Flags: MW
HStem: 0 145<244 552 244 552> 565 145<33 341 33 560>
LayerCount: 2
Fore
SplineSet
341 565 m 1
 33 565 l 1
 33 710 l 1
 560 710 l 1
 560 595 l 1
 242 156 l 1
 207 131 l 1
 209 128 l 1
 244 145 l 1
 552 145 l 1
 552 0 l 1
 25 0 l 1
 25 113 l 1
 343 554 l 1
 378 579 l 1
 376 582 l 1
 341 565 l 1
EndSplineSet
EndChar

StartChar: bracketleft
Encoding: 91 91 41
Width: 299
GlyphClass: 1
Flags: MW
HStem: -178 135<195 299 195 299> 585 135<195 299 195 195>
VStem: 40 155<-43 -43 -43 585>
LayerCount: 2
Fore
SplineSet
195 -43 m 1
 299 -43 l 1
 299 -178 l 1
 40 -178 l 1
 40 720 l 1
 299 720 l 1
 299 585 l 1
 195 585 l 1
 195 -43 l 1
EndSplineSet
EndChar

StartChar: asciicircum
Encoding: 94 94 42
Width: 558
GlyphClass: 1
Flags: MW
HStem: 332 21G<118 118 440 440> 690 20G<222 336 336 336>
LayerCount: 2
Fore
SplineSet
222 710 m 1
 336 710 l 1
 558 424 l 1
 440 332 l 1
 279 539 l 1
 118 332 l 1
 0 424 l 1
 222 710 l 1
EndSplineSet
EndChar

StartChar: underscore
Encoding: 95 95 43
Width: 506
GlyphClass: 1
Flags: MW
HStem: -145 145<0 506 0 506>
LayerCount: 2
Fore
SplineSet
0 -145 m 1
 0 0 l 1
 506 0 l 1
 506 -145 l 1
 0 -145 l 1
EndSplineSet
EndChar

StartChar: grave
Encoding: 96 96 44
Width: 280
GlyphClass: 1
Flags: MW
HStem: 480 21G<150 290 150 150> 690 20G<-10 149 149 149>
LayerCount: 2
Fore
SplineSet
149 710 m 1
 290 480 l 1
 150 480 l 1
 -10 710 l 1
 149 710 l 1
EndSplineSet
EndChar

StartChar: b
Encoding: 98 98 45
Width: 601
GlyphClass: 1
Flags: MW
HStem: -20 145<243 377 243 443 177 377> 398 145<274 377 274 443> 706 20G<176 176>
VStem: 69 155<144 361 506 559 559 559> 396 155<144 379 379 379>
LayerCount: 2
Fore
SplineSet
224 580 m 1
 224 506 l 1
 274 543 l 1
 443 543 l 1
 551 436 l 1
 551 87 l 1
 443 -20 l 1
 177 -20 l 1
 69 87 l 1
 69 559 l 1
 30 678 l 1
 176 726 l 1
 224 580 l 1
224 361 m 1
 224 144 l 1
 243 125 l 1
 377 125 l 1
 396 144 l 1
 396 379 l 1
 377 398 l 1
 274 398 l 1
 224 361 l 1
EndSplineSet
EndChar

StartChar: d
Encoding: 100 100 46
Width: 598
GlyphClass: 1
Flags: MW
HStem: -15 21G<445 445> 0 145<224 332 224 372 158 332> 398 145<224 327 224 224> 690 20G<377 532 532 532>
VStem: 50 155<164 379 164 436 164 436> 377 155<197 361 361 361 506 710 169 710>
LayerCount: 2
Fore
SplineSet
332 145 m 1x7c
 377 197 l 1
 377 361 l 1
 327 398 l 1
 224 398 l 1
 205 379 l 1
 205 164 l 1
 224 145 l 1
 332 145 l 1x7c
372 0 m 1
 158 0 l 1x7c
 50 107 l 1
 50 436 l 1
 158 543 l 1
 327 543 l 1
 377 506 l 1
 377 710 l 1
 532 710 l 1
 532 169 l 1
 568 13 l 1
 445 -15 l 1xbc
 427 63 l 1
 372 0 l 1
EndSplineSet
EndChar

StartChar: f
Encoding: 102 102 47
Width: 448
GlyphClass: 1
Flags: MW
HStem: 0 21G<110 265 110 110> 323 145<20 110 20 110 265 400> 690 20G<217 358 358 358>
VStem: 110 155<0 323 0 323 468 541>
LayerCount: 2
Fore
SplineSet
110 603 m 1
 217 710 l 1
 358 710 l 1
 508 663 l 1
 465 526 l 1
 340 565 l 1
 289 565 l 1
 265 541 l 1
 265 468 l 1
 400 468 l 1
 400 323 l 1
 265 323 l 1
 265 0 l 1
 110 0 l 1
 110 323 l 1
 20 323 l 1
 20 468 l 1
 110 468 l 1
 110 603 l 1
EndSplineSet
EndChar

StartChar: g
Encoding: 103 103 48
Width: 572
GlyphClass: 1
Flags: MW
HStem: -168 125<177 376 193 376 193 439> -8 125<188 376 125 439> 152 130<233 353 233 419 188 353> 413 130<214 320 214 214> 559 20G<514 514>
VStem: 40 155<77 394 192 394 320 394 320 436 320 436> 372 155<301 368 368 368>
LayerCount: 2
Fore
SplineSet
372 368 m 1
 320 413 l 1
 214 413 l 1
 195 394 l 1
 195 320 l 1
 233 282 l 1
 353 282 l 1
 372 301 l 1
 372 368 l 1
177 -168 m 1
 30 -122 l 1
 68 -3 l 1
 193 -43 l 1
 376 -43 l 1
 389 -30 l 1
 389 -21 l 1
 376 -8 l 1
 125 -8 l 1
 40 77 l 1
 40 192 l 1
 88 240 l 1
 40 288 l 1
 40 436 l 1
 148 543 l 1
 358 543 l 1
 514 579 l 1
 542 456 l 1
 464 438 l 1
 527 383 l 1
 527 259 l 1
 419 152 l 1
 188 152 l 1
 175 139 l 1
 175 130 l 1
 188 117 l 1
 439 117 l 1
 524 32 l 1
 524 -83 l 1
 439 -168 l 1
 177 -168 l 1
EndSplineSet
EndChar

StartChar: h
Encoding: 104 104 49
Width: 601
GlyphClass: 1
Flags: MW
HStem: 0 21G<69 224 69 69 396 396 396 551> 398 145<274 377 274 443> 706 20G<176 176>
VStem: 69 155<0 361 506 559 559 559> 396 155<0 379 379 379>
LayerCount: 2
Fore
SplineSet
224 0 m 1
 69 0 l 1
 69 559 l 1
 30 678 l 1
 176 726 l 1
 224 580 l 1
 224 506 l 1
 274 543 l 1
 443 543 l 1
 551 436 l 1
 551 0 l 1
 396 0 l 1
 396 379 l 1
 377 398 l 1
 274 398 l 1
 224 361 l 1
 224 0 l 1
EndSplineSet
EndChar

StartChar: i
Encoding: 105 105 50
Width: 277
GlyphClass: 1
Flags: MW
HStem: 0 21G<69 224 69 69> 585 159<109 180 109 185 109 180>
VStem: 69 155<0 381 381 381>
LayerCount: 2
Fore
SplineSet
69 381 m 1
 30 500 l 1
 176 548 l 1
 224 402 l 1
 224 0 l 1
 69 0 l 1
 69 381 l 1
67 627 m 1
 67 702 l 1
 109 744 l 1
 180 744 l 1
 227 702 l 1
 227 627 l 1
 185 585 l 1
 109 585 l 1
 67 627 l 1
EndSplineSet
EndChar

StartChar: j
Encoding: 106 106 51
Width: 305
GlyphClass: 1
Flags: MW
HStem: -190 21G<-11 -11> 585 159<137 208 137 213 137 208>
VStem: 97 155<29 381 381 381>
LayerCount: 2
Fore
SplineSet
97 381 m 1
 58 500 l 1
 204 548 l 1
 252 402 l 1
 252 -17 l 1
 174 -125 l 1
 -11 -190 l 1
 -60 -51 l 1
 73 -4 l 1
 97 29 l 1
 97 381 l 1
95 627 m 1
 95 702 l 1
 137 744 l 1
 208 744 l 1
 255 702 l 1
 255 627 l 1
 213 585 l 1
 137 585 l 1
 95 627 l 1
EndSplineSet
EndChar

StartChar: k
Encoding: 107 107 52
Width: 535
GlyphClass: 1
Flags: MW
HStem: -20 20G 706 20G<176 176>
VStem: 69 155<0 154 360 559 559 559>
LayerCount: 2
Fore
SplineSet
69 559 m 1
 30 678 l 1
 176 726 l 1
 224 580 l 1
 224 360 l 1
 429 563 l 1
 535 455 l 1
 363 285 l 1
 535 77 l 1
 418 -20 l 1
 252 181 l 1
 224 154 l 1
 224 0 l 1
 69 0 l 1
 69 559 l 1
EndSplineSet
EndChar

StartChar: l
Encoding: 108 108 53
Width: 274
GlyphClass: 1
Flags: MW
HStem: 0 21G<69 224 69 69> 706 20G<176 176>
VStem: 69 155<0 559 559 559>
LayerCount: 2
Fore
SplineSet
69 559 m 1
 30 678 l 1
 176 726 l 1
 224 580 l 1
 224 0 l 1
 69 0 l 1
 69 559 l 1
EndSplineSet
EndChar

StartChar: m
Encoding: 109 109 54
Width: 869
GlyphClass: 1
Flags: MW
HStem: 0 21G<66 221 66 66 365 520 365 365 664 819 664 664> 398 145<266 338 266 266 547 645 547 547> 538 20G<153 153>
VStem: 66 155<0 346 0 374 0 374> 365 155<0 369 0 369> 664 155<0 379 379 379>
CounterMasks: 1 1c
LayerCount: 2
Fore
SplineSet
66 374 m 1xdc
 30 530 l 1
 153 558 l 1xbc
 171 480 l 1
 226 543 l 1
 396 543 l 1
 443 492 l 1
 490 543 l 1
 711 543 l 1
 819 436 l 1
 819 0 l 1
 664 0 l 1
 664 379 l 1
 645 398 l 1
 547 398 l 1
 520 369 l 1
 520 0 l 1
 365 0 l 1
 365 369 l 1
 338 398 l 1
 266 398 l 1
 221 346 l 1
 221 0 l 1
 66 0 l 1
 66 374 l 1xdc
EndSplineSet
EndChar

StartChar: n
Encoding: 110 110 55
Width: 599
GlyphClass: 1
Flags: MW
HStem: 0 21G<66 221 66 66 394 549 394 394> 398 145<266 375 266 266> 538 20G<153 153>
VStem: 66 155<0 346 0 374 0 374> 394 155<0 379 379 379>
LayerCount: 2
Fore
SplineSet
549 436 m 1xd8
 549 0 l 1
 394 0 l 1
 394 379 l 1
 375 398 l 1
 266 398 l 1xd8
 221 346 l 1
 221 0 l 1
 66 0 l 1
 66 374 l 1
 30 530 l 1
 153 558 l 1xb8
 171 480 l 1
 226 543 l 1
 441 543 l 1
 549 436 l 1xd8
EndSplineSet
EndChar

StartChar: q
Encoding: 113 113 56
Width: 591
GlyphClass: 1
Flags: MW
HStem: -183 21G<425 425> 0 145<224 327 224 327 158 327> 418 145<224 358 224 224>
VStem: 50 155<164 399 164 456 164 456> 377 155<-16 37 37 37 182 399 399 399>
LayerCount: 2
Fore
SplineSet
377 -37 m 1
 377 37 l 1
 327 0 l 1
 158 0 l 1
 50 107 l 1
 50 456 l 1
 158 563 l 1
 424 563 l 1
 532 456 l 1
 532 -16 l 1
 571 -135 l 1
 425 -183 l 1
 377 -37 l 1
377 182 m 1
 377 399 l 1
 358 418 l 1
 224 418 l 1
 205 399 l 1
 205 164 l 1
 224 145 l 1
 327 145 l 1
 377 182 l 1
EndSplineSet
EndChar

StartChar: r
Encoding: 114 114 57
Width: 520
GlyphClass: 1
Flags: MW
HStem: 0 21G<66 221 66 66> 398 145<266 266 266 351> 538 20G<153 153>
VStem: 66 155<0 346 0 374 0 374>
LayerCount: 2
Fore
SplineSet
266 398 m 1xd0
 221 346 l 1
 221 0 l 1
 66 0 l 1
 66 374 l 1
 30 530 l 1
 153 558 l 1xb0
 171 480 l 1
 226 543 l 1
 414 543 l 1
 530 429 l 1
 427 324 l 1
 351 398 l 1
 266 398 l 1xd0
EndSplineSet
EndChar

StartChar: s
Encoding: 115 115 58
Width: 525
GlyphClass: 1
Flags: MW
HStem: 0 135<193 321 193 389 165 321> 408 135<203 332 203 203>
LayerCount: 2
Fore
SplineSet
183 374 m 1
 191 363 l 1
 451 300 l 1
 496 226 l 1
 496 107 l 1
 389 0 l 1
 165 0 l 1
 20 48 l 1
 63 178 l 1
 193 135 l 1
 321 135 l 1
 341 155 l 1
 341 170 l 1
 333 182 l 1
 73 245 l 1
 28 319 l 1
 28 436 l 1
 135 543 l 1
 360 543 l 1
 505 495 l 1
 462 365 l 1
 332 408 l 1
 203 408 l 1
 183 388 l 1
 183 374 l 1
EndSplineSet
EndChar

StartChar: t
Encoding: 116 116 59
Width: 518
GlyphClass: 1
Flags: MW
HStem: 0 21G<227 368 227 227> 378 145<30 120 30 120 275 410> 660 20G<120 275 275 275>
VStem: 120 155<169 378 169 378 169 378 523 680>
LayerCount: 2
Fore
SplineSet
120 378 m 1
 30 378 l 1
 30 523 l 1
 120 523 l 1
 120 680 l 1
 275 680 l 1
 275 523 l 1
 410 523 l 1
 410 378 l 1
 275 378 l 1
 275 169 l 1
 299 145 l 1
 351 145 l 1
 387 156 440 173 475 184 c 1
 518 47 l 1
 368 0 l 1
 227 0 l 1
 120 107 l 1
 120 378 l 1
EndSplineSet
EndChar

StartChar: u
Encoding: 117 117 60
Width: 599
GlyphClass: 1
Flags: MW
HStem: -15 21G<446 446> 0 145<224 333 224 373 158 333> 523 20G<50 205 205 205 378 533 533 533>
VStem: 50 155<164 543 164 543 164 543> 378 155<197 543 169 543>
LayerCount: 2
Fore
SplineSet
50 107 m 1x78
 50 543 l 1
 205 543 l 1
 205 164 l 1
 224 145 l 1
 333 145 l 1x78
 378 197 l 1
 378 543 l 1
 533 543 l 1
 533 169 l 1
 569 13 l 1
 446 -15 l 1xb8
 428 63 l 1
 373 0 l 1
 158 0 l 1
 50 107 l 1x78
EndSplineSet
EndChar

StartChar: v
Encoding: 118 118 61
Width: 540
GlyphClass: 1
Flags: MW
HStem: 0 21G<206 334 206 206> 543 20G<139 139 401 401>
LayerCount: 2
Fore
SplineSet
334 0 m 1
 206 0 l 1
 0 507 l 1
 139 563 l 1
 255 277 l 1
 268 203 l 1
 272 203 l 1
 285 277 l 1
 401 563 l 1
 540 507 l 1
 334 0 l 1
EndSplineSet
EndChar

StartChar: w
Encoding: 119 119 62
Width: 756
GlyphClass: 1
Flags: MW
HStem: 0 21G<161 268 161 161 488 488 488 595> 543 20G<137 137 619 619>
LayerCount: 2
Fore
SplineSet
364 255 m 1
 268 0 l 1
 161 0 l 1
 0 519 l 1
 137 563 l 1
 210 325 l 1
 222 256 l 1
 226 256 l 1
 240 325 l 1
 311 517 l 1
 445 517 l 1
 516 325 l 1
 530 256 l 1
 534 256 l 1
 546 325 l 1
 619 563 l 1
 756 519 l 1
 595 0 l 1
 488 0 l 1
 392 255 l 1
 380 324 l 1
 376 324 l 1
 364 255 l 1
EndSplineSet
EndChar

StartChar: z
Encoding: 122 122 63
Width: 506
GlyphClass: 1
Flags: MW
HStem: 0 135<245 482 245 482> 408 135<24 261 24 486>
LayerCount: 2
Fore
SplineSet
261 408 m 1
 24 408 l 1
 24 543 l 1
 486 543 l 1
 486 425 l 1
 243 146 l 1
 208 121 l 1
 210 118 l 1
 245 135 l 1
 482 135 l 1
 482 0 l 1
 20 0 l 1
 20 117 l 1
 263 397 l 1
 298 422 l 1
 296 425 l 1
 261 408 l 1
EndSplineSet
EndChar

StartChar: braceleft
Encoding: 123 123 64
Width: 386
GlyphClass: 1
Flags: MW
HStem: -213 21G<354 354> 735 20G<354 354>
VStem: 108 155<-7 171 171 171 371 549>
LayerCount: 2
Fore
SplineSet
20 238 m 1
 20 304 l 1
 108 371 l 1
 108 586 l 1
 191 718 l 1
 354 755 l 1
 386 615 l 1
 291 593 l 1
 263 549 l 1
 263 323 l 1
 195 271 l 1
 263 219 l 1
 263 -7 l 1
 291 -51 l 1
 386 -73 l 1
 354 -213 l 1
 191 -176 l 1
 108 -44 l 1
 108 171 l 1
 20 238 l 1
EndSplineSet
EndChar

StartChar: bar
Encoding: 124 124 65
Width: 276
GlyphClass: 1
Flags: MW
HStem: -168 21G<60 216 60 60> 690 20G<60 216 216 216>
VStem: 60 156<-168 710>
LayerCount: 2
Fore
SplineSet
216 -168 m 1
 60 -168 l 1
 60 710 l 1
 216 710 l 1
 216 -168 l 1
EndSplineSet
EndChar

StartChar: endash
Encoding: 8211 8211 66
Width: 586
GlyphClass: 1
Flags: MW
HStem: 242 126<20 566 20 566>
LayerCount: 2
Fore
SplineSet
20 242 m 1
 20 368 l 1
 566 368 l 1
 566 242 l 1
 20 242 l 1
EndSplineSet
EndChar

StartChar: emdash
Encoding: 8212 8212 67
Width: 772
GlyphClass: 1
Flags: MW
HStem: 242 126<20 752 20 752>
LayerCount: 2
Fore
SplineSet
20 242 m 1
 20 368 l 1
 752 368 l 1
 752 242 l 1
 20 242 l 1
EndSplineSet
EndChar

StartChar: trademark
Encoding: 8482 8482 68
Width: 865
GlyphClass: 1
Flags: MW
HStem: 360 21G<95 250 95 95 385 385 385 520 690 690 690 825> 575 135<0 95 0 345 250 345 250 250>
VStem: 95 155<360 575 360 575> 385 135<360 470 360 710> 690 135<360 470 470 470>
LayerCount: 2
Fore
SplineSet
0 710 m 1
 345 710 l 1
 345 575 l 1
 250 575 l 1
 250 360 l 1
 95 360 l 1
 95 575 l 1
 0 575 l 1
 0 710 l 1
520 470 m 1
 520 360 l 1
 385 360 l 1
 385 710 l 1
 530 710 l 1
 591 583 l 1
 603 545 l 1
 607 545 l 1
 619 583 l 1
 680 710 l 1
 825 710 l 1
 825 360 l 1
 690 360 l 1
 690 470 l 1
 701 527 l 1
 697 527 l 1
 642 413 l 1
 568 413 l 1
 513 527 l 1
 509 527 l 1
 520 470 l 1
EndSplineSet
EndChar

StartChar: section
Encoding: 167 167 69
Width: 554
GlyphClass: 1
Flags: MW
HStem: -168 135<200 337 200 404 171 337> 575 135<217 354 217 217>
LayerCount: 2
Fore
SplineSet
43 230 m 1
 43 362 l 1
 102 424 l 1
 72 440 l 1
 43 494 l 1
 43 603 l 1
 150 710 l 1
 383 710 l 1
 524 662 l 1
 480 532 l 1
 354 575 l 1
 217 575 l 1
 197 556 l 1
 197 540 l 1
 206 523 l 1
 469 391 l 1
 511 312 l 1
 511 180 l 1
 452 118 l 1
 482 102 l 1
 511 48 l 1
 511 -61 l 1
 404 -168 l 1
 171 -168 l 1
 30 -120 l 1
 74 10 l 1
 200 -33 l 1
 337 -33 l 1
 357 -14 l 1
 357 2 l 1
 348 19 l 1
 85 151 l 1
 43 230 l 1
343 298 m 1
 239 351 l 1
 198 308 l 1
 198 268 l 1
 211 244 l 1
 315 191 l 1
 356 234 l 1
 356 274 l 1
 343 298 l 1
EndSplineSet
EndChar

StartChar: afii10023
Encoding: 1025 1025 70
Width: 573
GlyphClass: 1
Flags: MW
HStem: 0 145<215 553 215 553> 298 145<215 511 215 511> 565 145<215 553 215 215> 766 159<168 239 168 244 168 239 168 378 378 449>
VStem: 60 155<145 298 443 565> 126 160<808 883 808 883> 336 160<808 883 808 883>
LayerCount: 2
Fore
SplineSet
60 0 m 1xfa
 60 710 l 1
 553 710 l 1
 553 565 l 1
 215 565 l 1
 215 443 l 1
 511 443 l 1
 511 298 l 1
 215 298 l 1
 215 145 l 1
 553 145 l 1
 553 0 l 1
 60 0 l 1xfa
126 808 m 1xf6
 126 883 l 1
 168 925 l 1
 239 925 l 1
 286 883 l 1
 286 808 l 1
 244 766 l 1
 168 766 l 1
 126 808 l 1xf6
336 808 m 1
 336 883 l 1
 378 925 l 1
 449 925 l 1
 496 883 l 1
 496 808 l 1
 454 766 l 1
 378 766 l 1
 336 808 l 1
EndSplineSet
EndChar

StartChar: copyright
Encoding: 169 169 71
Width: 899
GlyphClass: 1
Flags: MW
HStem: 0 135<266 633 266 689 210 633> 175 115<406 511 406 534 352 511> 367 168<514 547 352 639 514 514> 420 115<406 493 406 406> 575 135<266 633 266 266>
VStem: 50 145<200 510 200 564 200 564> 260 125<311 399 311 442 311 442> 704 145<200 510 510 510>
LayerCount: 2
Fore
SplineSet
849 564 m 1xdf
 849 146 l 1
 689 0 l 1
 210 0 l 1
 50 146 l 1
 50 564 l 1
 210 710 l 1
 689 710 l 1
 849 564 l 1xdf
704 200 m 1
 704 510 l 1
 633 575 l 1
 266 575 l 1
 195 510 l 1
 195 200 l 1
 266 135 l 1
 633 135 l 1
 704 200 l 1
511 290 m 1
 610 321 l 1
 645 210 l 1
 534 175 l 1
 352 175 l 1
 260 268 l 1
 260 442 l 1
 352 535 l 1
 547 535 l 1
 639 442 l 1
 639 367 l 1
 514 367 l 1xef
 514 399 l 1
 493 420 l 1
 406 420 l 1
 385 399 l 1
 385 311 l 1
 406 290 l 1
 511 290 l 1
EndSplineSet
EndChar

StartChar: guillemotleft
Encoding: 171 171 72
Width: 756
GlyphClass: 1
Flags: MW
HStem: -14 21G<330 330 647 647> 520 20G<330 330 647 647>
LayerCount: 2
Fore
SplineSet
429 430 m 1
 242 263 l 1
 429 96 l 1
 330 -14 l 1
 20 263 l 1
 330 540 l 1
 429 430 l 1
746 430 m 1
 559 263 l 1
 746 96 l 1
 647 -14 l 1
 337 263 l 1
 647 540 l 1
 746 430 l 1
EndSplineSet
EndChar

StartChar: registered
Encoding: 174 174 73
Width: 899
GlyphClass: 1
Flags: MW
HStem: 0 135<266 633 266 689 210 633> 435 100<385 385 385 509> 575 135<266 633 266 266>
VStem: 50 145<200 510 200 564 200 564> 260 125<175 282 382 435> 704 145<200 510 510 510>
LayerCount: 2
Fore
SplineSet
849 564 m 1
 849 146 l 1
 689 0 l 1
 210 0 l 1
 50 146 l 1
 50 564 l 1
 210 710 l 1
 689 710 l 1
 849 564 l 1
704 200 m 1
 704 510 l 1
 633 575 l 1
 266 575 l 1
 195 510 l 1
 195 200 l 1
 266 135 l 1
 633 135 l 1
 704 200 l 1
385 435 m 1
 385 382 l 1
 509 382 l 1
 524 397 l 1
 524 420 l 1
 509 435 l 1
 385 435 l 1
572 271 m 1
 654 193 l 1
 634 175 l 1
 512 175 l 1
 401 282 l 1
 385 282 l 1
 385 175 l 1
 260 175 l 1
 260 535 l 1
 596 535 l 1
 649 483 l 1
 649 334 l 1
 596 282 l 1
 574 282 l 1
 539 299 l 1
 537 296 l 1
 572 271 l 1
EndSplineSet
EndChar

StartChar: paragraph
Encoding: 182 182 74
Width: 689
GlyphClass: 1
Flags: MW
HStem: -168 21G<249 394 249 249 484 484 484 629> 690 20G<158 394 394 394 484 629 629 629>
VStem: 249 145<-168 162 162 162> 484 145<-168 710>
LayerCount: 2
Fore
SplineSet
394 -168 m 1
 249 -168 l 1
 249 162 l 1
 158 162 l 1
 30 292 l 1
 30 583 l 1
 158 710 l 1
 394 710 l 1
 394 -168 l 1
629 -168 m 1
 484 -168 l 1
 484 710 l 1
 629 710 l 1
 629 -168 l 1
EndSplineSet
EndChar

StartChar: afii10071
Encoding: 1105 1105 75
Width: 569
GlyphClass: 1
Flags: MW
HStem: 0 135<224 373 224 392 158 373> 200 125<205 363 205 434 205 363> 418 125<224 224 224 358> 595 159<147 218 147 223 147 218 147 359 359 430>
VStem: 50 155<154 200 154 325 325 399> 105 160<637 712 637 712> 317 160<637 712 637 712> 377 155<339 399 399 399>
LayerCount: 2
Fore
SplineSet
373 135 m 1xf9
 498 175 l 1
 539 46 l 1
 392 0 l 1
 158 0 l 1
 50 107 l 1
 50 436 l 1
 158 543 l 1
 424 543 l 1
 532 436 l 1
 532 297 l 1
 434 200 l 1
 205 200 l 1
 205 154 l 1
 224 135 l 1
 373 135 l 1xf9
224 418 m 1
 205 399 l 1
 205 325 l 1
 363 325 l 1
 377 339 l 1
 377 399 l 1
 358 418 l 1
 224 418 l 1
105 637 m 1xf6
 105 712 l 1
 147 754 l 1
 218 754 l 1
 265 712 l 1
 265 637 l 1
 223 595 l 1
 147 595 l 1
 105 637 l 1xf6
317 637 m 1
 317 712 l 1
 359 754 l 1
 430 754 l 1
 477 712 l 1
 477 637 l 1
 435 595 l 1
 359 595 l 1
 317 637 l 1
EndSplineSet
EndChar

StartChar: afii61352
Encoding: 8470 8470 76
Width: 1046
GlyphClass: 1
Flags: MW
HStem: 0 21G<60 215 60 60 467 467 467 606> 210 125<679 1013 679 1013> 690 20G<60 199 199 199 451 606 606 606 773 919 919 919>
VStem: 60 155<0 372 0 710> 451 155<338 710 0 710>
LayerCount: 2
Fore
SplineSet
679 210 m 1
 679 335 l 1
 1013 335 l 1
 1013 210 l 1
 679 210 l 1
819 595 m 1
 796 572 l 1
 796 518 l 1
 819 495 l 1
 873 495 l 1
 896 518 l 1
 896 572 l 1
 873 595 l 1
 819 595 l 1
773 710 m 1
 919 710 l 1
 1016 613 l 1
 1016 477 l 1
 919 380 l 1
 773 380 l 1
 676 477 l 1
 676 613 l 1
 773 710 l 1
215 372 m 1
 215 0 l 1
 60 0 l 1
 60 710 l 1
 199 710 l 1
 432 337 l 1
 458 271 l 1
 462 271 l 1
 451 338 l 1
 451 710 l 1
 606 710 l 1
 606 0 l 1
 467 0 l 1
 234 373 l 1
 208 439 l 1
 204 439 l 1
 215 372 l 1
EndSplineSet
EndChar

StartChar: afii10018
Encoding: 1041 1041 77
Width: 645
GlyphClass: 1
Flags: MW
HStem: 0 145<215 409 215 478> 302 145<215 409 215 478> 565 145<215 563 215 215>
VStem: 60 155<145 302 447 565> 450 155<186 261 261 261>
LayerCount: 2
Fore
SplineSet
60 0 m 1
 60 710 l 1
 563 710 l 1
 563 565 l 1
 215 565 l 1
 215 447 l 1
 478 447 l 1
 605 318 l 1
 605 129 l 1
 478 0 l 1
 60 0 l 1
450 261 m 1
 409 302 l 1
 215 302 l 1
 215 145 l 1
 409 145 l 1
 450 186 l 1
 450 261 l 1
EndSplineSet
EndChar

StartChar: afii10020
Encoding: 1043 1043 78
Width: 552
GlyphClass: 1
Flags: MW
HStem: 0 21G<60 215 60 60> 565 145<215 215 215 542>
VStem: 60 155<0 565 0 710 0 710>
LayerCount: 2
Fore
SplineSet
215 565 m 1
 215 0 l 1
 60 0 l 1
 60 710 l 1
 542 710 l 1
 542 565 l 1
 215 565 l 1
EndSplineSet
EndChar

StartChar: afii10021
Encoding: 1044 1044 79
Width: 716
GlyphClass: 1
Flags: MW
HStem: -168 21G<0 155 0 0 541 696 541 541> 0 145<237 468 0 155> 565 145<305 468 305 305>
VStem: 0 155<-168 0 -168 145 -168 145> 468 155<145 565 565 565> 541 155<-168 0 0 0>
LayerCount: 2
Fore
SplineSet
696 145 m 1xf4
 696 -168 l 1
 541 -168 l 1
 541 0 l 1xf4
 155 0 l 1
 155 -168 l 1
 0 -168 l 1
 0 145 l 1
 73 145 l 1
 108 230 l 1
 167 710 l 1
 623 710 l 1
 623 145 l 1xf8
 696 145 l 1xf4
261 203 m 1
 237 145 l 1
 468 145 l 1
 468 565 l 1xf8
 305 565 l 1
 261 203 l 1
EndSplineSet
EndChar

StartChar: afii10024
Encoding: 1046 1046 80
Width: 929
GlyphClass: 1
Flags: MW
HStem: -20 20G -20 21G<49 49 880 880> 710 20G
VStem: 387 155<0 287 0 287 432 710>
LayerCount: 2
Fore
SplineSet
207 682 m 1
 351 432 l 1
 387 432 l 1
 387 710 l 1
 542 710 l 1
 542 432 l 1
 578 432 l 1
 722 682 l 1
 875 730 l 1
 919 590 l 1
 833 563 l 1
 713 355 l 1
 838 147 l 1
 924 120 l 1
 880 -20 l 1
 727 28 l 1
 571 287 l 1
 542 287 l 1
 542 0 l 1
 387 0 l 1
 387 287 l 1
 358 287 l 1
 202 28 l 1
 49 -20 l 1
 5 120 l 1
 91 147 l 1
 216 355 l 1
 96 563 l 1
 10 590 l 1
 54 730 l 1
 207 682 l 1
EndSplineSet
EndChar

StartChar: afii10025
Encoding: 1047 1047 81
Width: 602
GlyphClass: 1
Flags: MW
HStem: 0 145<180 367 180 435 159 367> 286 145<171 355 171 360> 565 145<186 365 186 186>
VStem: 400 155<463 531 531 531>
LayerCount: 2
Fore
SplineSet
165 710 m 1
 434 710 l 1
 555 589 l 1
 555 412 l 1
 488 359 l 1
 562 301 l 1
 562 127 l 1
 435 0 l 1
 159 0 l 1
 10 49 l 1
 55 186 l 1
 180 145 l 1
 367 145 l 1
 407 185 l 1
 407 245 l 1
 355 286 l 1
 171 286 l 1
 171 431 l 1
 360 431 l 1
 400 463 l 1
 400 531 l 1
 365 565 l 1
 186 565 l 1
 61 524 l 1
 16 661 l 1
 165 710 l 1
EndSplineSet
EndChar

StartChar: afii10026
Encoding: 1048 1048 82
Width: 666
GlyphClass: 1
Flags: MW
HStem: 0 21G<60 200 60 60 451 606 451 451> 690 20G<60 215 215 215 466 606 606 606>
VStem: 60 155<321 710 321 710 321 710> 451 155<0 389 389 389>
LayerCount: 2
Fore
SplineSet
215 710 m 1
 215 321 l 1
 204 254 l 1
 208 254 l 1
 234 320 l 1
 466 710 l 1
 606 710 l 1
 606 0 l 1
 451 0 l 1
 451 389 l 1
 462 456 l 1
 458 456 l 1
 432 390 l 1
 200 0 l 1
 60 0 l 1
 60 710 l 1
 215 710 l 1
EndSplineSet
EndChar

StartChar: afii10027
Encoding: 1049 1049 83
Width: 666
GlyphClass: 1
Flags: MW
HStem: 0 21G<60 200 60 60 451 606 451 451> 765 130<288 378 288 445 221 378> 765 209<221 270 396 445 221 221>
VStem: 60 155<321 710 321 710 321 710> 135 135<913 974 913 974 913 974> 396 135<913 974 850 974> 451 155<0 389 389 389>
LayerCount: 2
Fore
SplineSet
531 850 m 1xb4
 445 765 l 1
 221 765 l 1
 135 850 l 1
 135 974 l 1
 270 974 l 1xac
 270 913 l 1
 288 895 l 1
 378 895 l 1xcc
 396 913 l 1
 396 974 l 1
 531 974 l 1
 531 850 l 1xb4
215 710 m 1xd2
 215 321 l 1
 204 254 l 1
 208 254 l 1
 234 320 l 1
 466 710 l 1
 606 710 l 1
 606 0 l 1
 451 0 l 1
 451 389 l 1
 462 456 l 1
 458 456 l 1
 432 390 l 1
 200 0 l 1
 60 0 l 1
 60 710 l 1
 215 710 l 1xd2
EndSplineSet
EndChar

StartChar: afii10028
Encoding: 1050 1050 84
Width: 620
GlyphClass: 1
Flags: MW
HStem: -20 20G 710 20G
VStem: 60 156<0 287 0 432 432 710>
LayerCount: 2
Fore
SplineSet
269 432 m 1
 413 682 l 1
 566 730 l 1
 610 590 l 1
 524 563 l 1
 404 355 l 1
 529 147 l 1
 615 120 l 1
 571 -20 l 1
 418 28 l 1
 262 287 l 1
 216 287 l 1
 216 0 l 1
 60 0 l 1
 60 710 l 1
 216 710 l 1
 216 432 l 1
 269 432 l 1
EndSplineSet
EndChar

StartChar: afii10029
Encoding: 1051 1051 85
Width: 716
GlyphClass: 1
Flags: MW
HStem: -20 20G -20 21G<47 47> 565 145<324 501 324 324>
VStem: 501 155<0 565 565 565>
LayerCount: 2
Fore
SplineSet
656 710 m 1
 656 0 l 1
 501 0 l 1
 501 565 l 1
 324 565 l 1
 273 116 l 1
 187 28 l 1
 47 -20 l 1
 0 118 l 1
 93 150 l 1
 123 180 l 1
 184 710 l 1
 656 710 l 1
EndSplineSet
EndChar

StartChar: afii10033
Encoding: 1055 1055 86
Width: 665
GlyphClass: 1
Flags: MW
HStem: 0 21G<60 215 60 60 450 450 450 605> 565 145<215 215 215 450>
VStem: 60 155<0 565 0 710 0 710> 450 155<0 565 565 565>
LayerCount: 2
Fore
SplineSet
215 565 m 1
 215 0 l 1
 60 0 l 1
 60 710 l 1
 605 710 l 1
 605 0 l 1
 450 0 l 1
 450 565 l 1
 215 565 l 1
EndSplineSet
EndChar

StartChar: afii10037
Encoding: 1059 1059 87
Width: 615
GlyphClass: 1
Flags: MW
HStem: 0 145<115 225 115 284 115 225> 715 20G<133 133 474 474>
LayerCount: 2
Fore
SplineSet
338 403 m 1
 474 735 l 1
 615 677 l 1
 372 84 l 1
 284 0 l 1
 115 0 l 1
 115 145 l 1
 225 145 l 1
 243 162 l 1
 253 184 l 1
 0 664 l 1
 133 735 l 1
 308 403 l 1
 322 334 l 1
 326 334 l 1
 338 403 l 1
EndSplineSet
EndChar

StartChar: afii10038
Encoding: 1060 1060 88
Width: 835
GlyphClass: 1
Flags: MW
HStem: -25 21G<340 495 340 340> 70 135<235 340 235 340 168 340 495 600> 535 135<235 340 235 235 495 600> 755 20G<340 495 495 495>
VStem: 40 155<245 495 245 542 245 542> 340 155<-25 70 -25 70 205 535 670 775> 640 155<245 495 495 495>
CounterMasks: 1 0e
LayerCount: 2
Fore
SplineSet
600 535 m 1
 495 535 l 1
 495 205 l 1
 600 205 l 1
 640 245 l 1
 640 495 l 1
 600 535 l 1
340 535 m 1
 235 535 l 1
 195 495 l 1
 195 245 l 1
 235 205 l 1
 340 205 l 1
 340 535 l 1
168 670 m 1
 340 670 l 1
 340 775 l 1
 495 775 l 1
 495 670 l 1
 667 670 l 1
 795 542 l 1
 795 198 l 1
 667 70 l 1
 495 70 l 1
 495 -25 l 1
 340 -25 l 1
 340 70 l 1
 168 70 l 1
 40 198 l 1
 40 542 l 1
 168 670 l 1
EndSplineSet
EndChar

StartChar: afii10040
Encoding: 1062 1062 89
Width: 708
GlyphClass: 1
Flags: MW
HStem: -168 21G<533 688 533 533> 0 145<215 449 215 533> 690 20G<60 215 215 215 449 604 604 604>
VStem: 60 155<145 710 145 710 145 710> 449 155<145 710 145 710> 533 155<-168 0 0 0>
LayerCount: 2
Fore
SplineSet
60 0 m 1xf4
 60 710 l 1
 215 710 l 1
 215 145 l 1
 449 145 l 1
 449 710 l 1
 604 710 l 1
 604 145 l 1xf8
 688 145 l 1
 688 -168 l 1
 533 -168 l 1
 533 0 l 1
 60 0 l 1xf4
EndSplineSet
EndChar

StartChar: afii10041
Encoding: 1063 1063 90
Width: 642
GlyphClass: 1
Flags: MW
HStem: 0 21G<427 582 427 427> 235 145<212 364 147 389> 690 20G<40 195 195 195 427 582 582 582>
VStem: 40 155<397 710 397 710 397 710> 427 155<0 249 249 249 389 710 0 710>
LayerCount: 2
Fore
SplineSet
427 389 m 1
 427 710 l 1
 582 710 l 1
 582 0 l 1
 427 0 l 1
 427 249 l 1
 364 235 l 1
 147 235 l 1
 40 343 l 1
 40 710 l 1
 195 710 l 1
 195 397 l 1
 212 380 l 1
 389 380 l 1
 427 389 l 1
EndSplineSet
EndChar

StartChar: afii10042
Encoding: 1064 1064 91
Width: 1027
GlyphClass: 1
Flags: MW
HStem: 0 145<214 436 591 812> 690 20G<60 214 214 214 436 591 591 591 812 967 967 967>
VStem: 60 154<145 710 145 710 145 710> 436 155<145 710 145 710> 812 155<145 710>
LayerCount: 2
Fore
SplineSet
967 0 m 1
 60 0 l 1
 60 710 l 1
 214 710 l 1
 214 145 l 1
 436 145 l 1
 436 710 l 1
 591 710 l 1
 591 145 l 1
 812 145 l 1
 812 710 l 1
 967 710 l 1
 967 0 l 1
EndSplineSet
EndChar

StartChar: afii10043
Encoding: 1065 1065 92
Width: 1042
GlyphClass: 1
Flags: MW
HStem: -168 21G<867 1022 867 867> 0 145<215 422 577 783> 690 20G<60 215 215 215 422 577 577 577 783 938 938 938>
VStem: 60 155<145 710 145 710 145 710> 422 155<145 710 145 710> 783 155<145 710 145 710> 867 155<-168 0 0 0>
LayerCount: 2
Fore
SplineSet
60 0 m 1xfa
 60 710 l 1
 215 710 l 1
 215 145 l 1
 422 145 l 1
 422 710 l 1
 577 710 l 1
 577 145 l 1
 783 145 l 1
 783 710 l 1
 938 710 l 1
 938 145 l 1xfc
 1022 145 l 1
 1022 -168 l 1
 867 -168 l 1
 867 0 l 1
 60 0 l 1xfa
EndSplineSet
EndChar

StartChar: afii10044
Encoding: 1066 1066 93
Width: 737
GlyphClass: 1
Flags: MW
HStem: 0 145<318 512 318 580> 327 145<318 512 318 580> 565 145<20 163 20 318>
VStem: 163 155<145 327 472 565 565 565> 552 155<186 286 286 286>
LayerCount: 2
Fore
SplineSet
163 0 m 1
 163 565 l 1
 20 565 l 1
 20 710 l 1
 318 710 l 1
 318 472 l 1
 580 472 l 1
 707 343 l 1
 707 129 l 1
 580 0 l 1
 163 0 l 1
552 286 m 1
 512 327 l 1
 318 327 l 1
 318 145 l 1
 512 145 l 1
 552 186 l 1
 552 286 l 1
EndSplineSet
EndChar

StartChar: afii10045
Encoding: 1067 1067 94
Width: 904
GlyphClass: 1
Flags: MW
HStem: 0 145<215 409 215 477> 327 145<215 409 215 477> 690 20G<60 215 215 215 689 844 844 844>
VStem: 60 155<145 327 145 472 472 710> 449 155<186 286 286 286> 689 155<0 710 0 710>
LayerCount: 2
Fore
SplineSet
689 0 m 1
 689 710 l 1
 844 710 l 1
 844 0 l 1
 689 0 l 1
449 286 m 1
 409 327 l 1
 215 327 l 1
 215 145 l 1
 409 145 l 1
 449 186 l 1
 449 286 l 1
60 0 m 1
 60 710 l 1
 215 710 l 1
 215 472 l 1
 477 472 l 1
 604 343 l 1
 604 129 l 1
 477 0 l 1
 60 0 l 1
EndSplineSet
EndChar

StartChar: afii10046
Encoding: 1068 1068 95
Width: 634
GlyphClass: 1
Flags: MW
HStem: 0 145<215 409 215 477> 327 145<215 409 215 477> 690 20G<60 215 215 215>
VStem: 60 155<145 327 145 472 472 710> 449 155<186 286 286 286>
LayerCount: 2
Fore
SplineSet
449 286 m 1
 409 327 l 1
 215 327 l 1
 215 145 l 1
 409 145 l 1
 449 186 l 1
 449 286 l 1
60 0 m 1
 60 710 l 1
 215 710 l 1
 215 472 l 1
 477 472 l 1
 604 343 l 1
 604 129 l 1
 477 0 l 1
 60 0 l 1
EndSplineSet
EndChar

StartChar: afii10047
Encoding: 1069 1069 96
Width: 619
GlyphClass: 1
Flags: MW
HStem: 0 145<212 374 212 441 145 374> 279 135<190 414 190 414> 565 145<219 374 219 219>
VStem: 24 155<450 525 450 582 450 582> 414 155<185 279 279 279 414 525 525 525>
LayerCount: 2
Fore
SplineSet
116 241 m 1
 212 145 l 1
 374 145 l 1
 414 185 l 1
 414 279 l 1
 190 279 l 1
 190 414 l 1
 414 414 l 1
 414 525 l 1
 374 565 l 1
 219 565 l 1
 179 525 l 1
 179 450 l 1
 24 450 l 1
 24 582 l 1
 152 710 l 1
 441 710 l 1
 569 582 l 1
 569 128 l 1
 441 0 l 1
 145 0 l 1
 10 135 l 1
 116 241 l 1
EndSplineSet
EndChar

StartChar: afii10048
Encoding: 1070 1070 97
Width: 909
GlyphClass: 1
Flags: MW
HStem: 0 145<500 659 500 720 439 659> 287 145<215 300 215 300> 565 145<500 659 500 500>
VStem: 60 155<0 287 0 432 432 710> 300 155<186 287 287 287 432 524 186 584 186 584> 704 155<186 524 524 524>
LayerCount: 2
Fore
SplineSet
439 710 m 1
 720 710 l 1
 859 584 l 1
 859 126 l 1
 720 0 l 1
 439 0 l 1
 300 126 l 1
 300 287 l 1
 215 287 l 1
 215 0 l 1
 60 0 l 1
 60 710 l 1
 215 710 l 1
 215 432 l 1
 300 432 l 1
 300 584 l 1
 439 710 l 1
704 524 m 1
 659 565 l 1
 500 565 l 1
 455 524 l 1
 455 186 l 1
 500 145 l 1
 659 145 l 1
 704 186 l 1
 704 524 l 1
EndSplineSet
EndChar

StartChar: afii10049
Encoding: 1071 1071 98
Width: 654
GlyphClass: 1
Flags: MW
HStem: -20 20G -20 21G<72 72> 252 145<160 439 160 439 399 399 399 439> 565 145<240 439 240 240>
VStem: 49 155<433 529 433 600 433 600> 439 155<0 252 252 252 397 565 565 565>
LayerCount: 2
Fore
SplineSet
439 565 m 1
 240 565 l 1
 204 529 l 1
 204 433 l 1
 240 397 l 1
 439 397 l 1
 439 565 l 1
193 252 m 1
 160 252 l 1
 49 362 l 1
 49 600 l 1
 160 710 l 1
 594 710 l 1
 594 0 l 1
 439 0 l 1
 439 252 l 1
 399 252 l 1
 225 28 l 1
 72 -20 l 1
 30 113 l 1
 116 140 l 1
 195 241 l 1
 230 266 l 1
 228 269 l 1
 193 252 l 1
EndSplineSet
EndChar

StartChar: afii10066
Encoding: 1073 1073 99
Width: 585
GlyphClass: 1
Flags: MW
HStem: 0 145<224 363 224 430 157 363> 337 145<255 363 255 430> 759 20G<471 471>
VStem: 50 155<164 300 445 485> 382 155<164 318 318 318>
LayerCount: 2
Fore
SplineSet
205 485 m 1
 205 445 l 1
 255 482 l 1
 430 482 l 1
 537 375 l 1
 537 107 l 1
 430 0 l 1
 157 0 l 1
 50 107 l 1
 50 532 l 1
 188 674 l 1
 373 710 l 1
 471 779 l 1
 560 653 l 1
 445 572 l 1
 254 535 l 1
 205 485 l 1
363 337 m 1
 255 337 l 1
 205 300 l 1
 205 164 l 1
 224 145 l 1
 363 145 l 1
 382 164 l 1
 382 318 l 1
 363 337 l 1
EndSplineSet
EndChar

StartChar: afii10067
Encoding: 1074 1074 100
Width: 572
GlyphClass: 1
Flags: MW
HStem: 0 125<205 358 205 426> 215 125<205 339 205 342 205 339> 418 125<205 341 205 205>
VStem: 50 155<125 215 340 418>
LayerCount: 2
Fore
SplineSet
339 340 m 1
 360 355 l 1
 360 399 l 1
 341 418 l 1
 205 418 l 1
 205 340 l 1
 339 340 l 1
377 189 m 1
 342 215 l 1
 205 215 l 1
 205 125 l 1
 358 125 l 1
 377 144 l 1
 377 189 l 1
532 234 m 1
 532 106 l 1
 426 0 l 1
 50 0 l 1
 50 543 l 1
 425 543 l 1
 515 453 l 1
 515 308 l 1
 473 277 l 1
 532 234 l 1
EndSplineSet
EndChar

StartChar: afii10068
Encoding: 1075 1075 101
Width: 470
GlyphClass: 1
Flags: MW
HStem: 0 21G<50 206 50 50> 397 146<206 206 206 455>
VStem: 50 156<0 397 0 543 0 543>
LayerCount: 2
Fore
SplineSet
206 397 m 1
 206 0 l 1
 50 0 l 1
 50 543 l 1
 455 543 l 1
 455 397 l 1
 206 397 l 1
EndSplineSet
EndChar

StartChar: afii10069
Encoding: 1076 1076 102
Width: 619
GlyphClass: 1
Flags: MW
HStem: -150 21G<0 155 0 0 444 444 444 599> 0 135<225 383 0 155> 398 145<271 383 271 271>
VStem: 0 155<-150 0 -150 135 -150 135> 383 155<135 398 398 398> 444 155<-150 0 0 0>
LayerCount: 2
Fore
SplineSet
249 200 m 1xf8
 225 135 l 1
 383 135 l 1
 383 398 l 1
 271 398 l 1
 249 200 l 1xf8
444 0 m 1xf4
 155 0 l 1
 155 -150 l 1
 0 -150 l 1
 0 135 l 1
 62 135 l 1
 98 228 l 1
 132 543 l 1
 538 543 l 1
 538 135 l 1xf8
 599 135 l 1
 599 -150 l 1
 444 -150 l 1
 444 0 l 1xf4
EndSplineSet
EndChar

StartChar: afii10072
Encoding: 1078 1078 103
Width: 799
GlyphClass: 1
Flags: MW
HStem: -25 21G<78 78 721 721> -20 20G<322 477 322 322> 548 20G<79 79 720 720>
VStem: 322 155<0 208 0 208 332 543>
LayerCount: 2
Fore
SplineSet
322 208 m 1x70
 183 29 l 1
 78 -25 l 1
 10 108 l 1
 84 146 l 1
 179 269 l 1
 88 394 l 1
 10 435 l 1
 79 568 l 1
 194 508 l 1
 322 332 l 1
 322 543 l 1
 477 543 l 1
 477 332 l 1
 605 508 l 1
 720 568 l 1
 789 435 l 1
 711 394 l 1
 620 269 l 1
 715 146 l 1
 789 108 l 1
 721 -25 l 1xb0
 616 29 l 1
 477 208 l 1
 477 0 l 1
 322 0 l 1
 322 208 l 1x70
EndSplineSet
EndChar

StartChar: afii10073
Encoding: 1079 1079 104
Width: 547
GlyphClass: 1
Flags: MW
HStem: 0 135<167 333 186 333 186 400> 210 125<146 314 146 319 146 314> 408 135<188 332 188 188>
VStem: 347 155<358 394 394 394>
LayerCount: 2
Fore
SplineSet
167 0 m 1
 20 46 l 1
 61 175 l 1
 186 135 l 1
 333 135 l 1
 352 154 l 1
 352 185 l 1
 319 210 l 1
 146 210 l 1
 146 335 l 1
 314 335 l 1
 347 358 l 1
 347 394 l 1
 332 408 l 1
 188 408 l 1
 67 367 l 1
 24 493 l 1
 172 543 l 1
 399 543 l 1
 502 440 l 1
 502 313 l 1
 447 273 l 1
 507 229 l 1
 507 107 l 1
 400 0 l 1
 167 0 l 1
EndSplineSet
EndChar

StartChar: afii10074
Encoding: 1080 1080 105
Width: 600
GlyphClass: 1
Flags: MW
HStem: 0 21G<69 211 69 69 395 550 395 395> 543 20G
VStem: 69 155<286 396 396 396> 395 155<0 257 257 257>
LayerCount: 2
Fore
SplineSet
243 285 m 1
 408 543 l 1
 550 543 l 1
 550 0 l 1
 395 0 l 1
 395 257 l 1
 406 324 l 1
 402 324 l 1
 376 258 l 1
 211 0 l 1
 69 0 l 1
 69 396 l 1
 58 430 41 482 30 515 c 1
 176 563 l 1
 224 417 l 1
 224 286 l 1
 213 219 l 1
 217 219 l 1
 243 285 l 1
EndSplineSet
EndChar

StartChar: afii10075
Encoding: 1081 1081 106
Width: 600
GlyphClass: 1
Flags: MW
HStem: 0 21G<69 211 69 69 395 550 395 395> 618 120<264 355 264 429 190 355> 618 180<190 249 370 429 190 190>
VStem: 69 155<286 396 396 396> 395 155<0 257 257 257>
LayerCount: 2
Fore
SplineSet
429 618 m 1xb8
 190 618 l 1
 114 693 l 1
 114 798 l 1
 249 798 l 1xb8
 249 753 l 1
 264 738 l 1
 355 738 l 1xd8
 370 753 l 1
 370 798 l 1
 505 798 l 1
 505 693 l 1
 429 618 l 1xb8
243 285 m 1
 408 543 l 1
 550 543 l 1
 550 0 l 1
 395 0 l 1
 395 257 l 1
 406 324 l 1
 402 324 l 1
 376 258 l 1
 211 0 l 1
 69 0 l 1
 69 396 l 1
 58 430 41 482 30 515 c 1
 176 563 l 1
 224 417 l 1
 224 286 l 1
 213 219 l 1
 217 219 l 1
 243 285 l 1
EndSplineSet
EndChar

StartChar: afii10076
Encoding: 1082 1082 107
Width: 538
GlyphClass: 1
Flags: MW
HStem: -25 21G<460 460> -20 20G<50 205 50 50> 548 20G<459 459>
VStem: 50 155<0 207 332 543>
LayerCount: 2
Fore
SplineSet
205 332 m 1x70
 216 332 l 1
 344 508 l 1
 459 568 l 1
 528 435 l 1
 450 394 l 1
 359 269 l 1
 454 146 l 1
 528 108 l 1
 460 -25 l 1xb0
 355 29 l 1
 217 207 l 1
 205 207 l 1
 205 0 l 1
 50 0 l 1
 50 543 l 1
 205 543 l 1
 205 332 l 1x70
EndSplineSet
EndChar

StartChar: afii10077
Encoding: 1083 1083 108
Width: 612
GlyphClass: 1
Flags: MW
HStem: -20 20G -20 21G<49 49> 398 145<293 407 293 293>
VStem: 407 155<0 398 398 398>
LayerCount: 2
Fore
SplineSet
562 543 m 1
 562 0 l 1
 407 0 l 1
 407 398 l 1
 293 398 l 1
 257 107 l 1
 180 27 l 1
 49 -20 l 1
 0 118 l 1
 75 145 l 1
 108 179 l 1
 153 543 l 1
 562 543 l 1
EndSplineSet
EndChar

StartChar: afii10078
Encoding: 1084 1084 109
Width: 706
GlyphClass: 1
Flags: MW
HStem: 0 21G<50 205 50 50 501 501 501 656> 523 20G<50 193 193 193 513 656 656 656>
VStem: 50 155<0 228 0 543> 501 155<0 228 228 228>
LayerCount: 2
Fore
SplineSet
205 228 m 1
 205 0 l 1
 50 0 l 1
 50 543 l 1
 193 543 l 1
 339 300 l 1
 351 262 l 1
 355 262 l 1
 367 300 l 1
 513 543 l 1
 656 543 l 1
 656 0 l 1
 501 0 l 1
 501 228 l 1
 512 295 l 1
 508 295 l 1
 482 229 l 1
 409 107 l 1
 297 107 l 1
 224 229 l 1
 198 295 l 1
 194 295 l 1
 205 228 l 1
EndSplineSet
EndChar

StartChar: afii10079
Encoding: 1085 1085 110
Width: 601
GlyphClass: 1
Flags: MW
HStem: 0 21G<69 224 69 69 396 551 396 396> 197 145<224 396 224 396> 543 20G
VStem: 69 155<0 197 342 396 396 396> 396 155<0 197 197 197 342 543 0 543>
LayerCount: 2
Fore
SplineSet
69 396 m 1
 30 515 l 1
 176 563 l 1
 224 417 l 1
 224 342 l 1
 396 342 l 1
 396 543 l 1
 551 543 l 1
 551 0 l 1
 396 0 l 1
 396 197 l 1
 224 197 l 1
 224 0 l 1
 69 0 l 1
 69 396 l 1
EndSplineSet
EndChar

StartChar: afii10081
Encoding: 1087 1087 111
Width: 582
GlyphClass: 1
Flags: MW
HStem: 0 21G<50 205 50 50 377 377 377 532> 398 145<205 205 205 377>
VStem: 50 155<0 398 0 543 0 543> 377 155<0 398 398 398>
LayerCount: 2
Fore
SplineSet
205 398 m 1
 205 0 l 1
 50 0 l 1
 50 543 l 1
 532 543 l 1
 532 0 l 1
 377 0 l 1
 377 398 l 1
 205 398 l 1
EndSplineSet
EndChar

StartChar: afii10084
Encoding: 1090 1090 112
Width: 491
GlyphClass: 1
Flags: MW
HStem: 0 21G<168 323 168 168> 398 145<15 168 15 476 323 476 323 323>
VStem: 168 155<0 398 0 398>
LayerCount: 2
Fore
SplineSet
15 543 m 1
 476 543 l 1
 476 398 l 1
 323 398 l 1
 323 0 l 1
 168 0 l 1
 168 398 l 1
 15 398 l 1
 15 543 l 1
EndSplineSet
EndChar

StartChar: afii10086
Encoding: 1092 1092 113
Width: 755
GlyphClass: 1
Flags: MW
HStem: -168 21G<300 455 300 300> 0 145<224 254 156 289 501 531 501 501> 398 145<224 224 224 254 156 289 501 531> 710 20G<407 407>
VStem: 50 155<164 379 164 437 164 437> 305 145<149 394 149 394> 550 155<164 379 379 379>
CounterMasks: 1 0e
LayerCount: 2
Fore
SplineSet
455 584 m 1
 455 530 l 1
 501 543 l 1
 599 543 l 1
 705 437 l 1
 705 106 l 1
 599 0 l 1
 501 0 l 1
 455 13 l 1
 455 -168 l 1
 300 -168 l 1
 300 13 l 1
 254 0 l 1
 156 0 l 1
 50 106 l 1
 50 437 l 1
 156 543 l 1
 254 543 l 1
 300 530 l 1
 300 563 l 1
 261 682 l 1
 407 730 l 1
 455 584 l 1
550 379 m 1
 531 398 l 1
 466 398 l 1
 450 394 l 1
 450 149 l 1
 466 145 l 1
 531 145 l 1
 550 164 l 1
 550 379 l 1
224 398 m 1
 205 379 l 1
 205 164 l 1
 224 145 l 1
 289 145 l 1
 305 149 l 1
 305 394 l 1
 289 398 l 1
 224 398 l 1
EndSplineSet
EndChar

StartChar: afii10088
Encoding: 1094 1094 114
Width: 615
GlyphClass: 1
Flags: MW
HStem: -150 21G<440 595 440 440> 0 135<205 377 205 440> 523 20G<50 205 205 205 377 532 532 532>
VStem: 50 155<135 543 135 543 135 543> 377 155<135 543 135 543> 440 155<-150 0 0 0>
LayerCount: 2
Fore
SplineSet
440 0 m 1xf4
 50 0 l 1
 50 543 l 1
 205 543 l 1
 205 135 l 1
 377 135 l 1
 377 543 l 1
 532 543 l 1
 532 135 l 1xf8
 595 135 l 1
 595 -150 l 1
 440 -150 l 1
 440 0 l 1xf4
EndSplineSet
EndChar

StartChar: afii10089
Encoding: 1095 1095 115
Width: 560
GlyphClass: 1
Flags: MW
HStem: 0 21G<355 510 355 355> 152 145<214 309 146 339> 523 20G<40 195 195 195 355 510 510 510>
VStem: 40 155<316 543 316 543 316 543> 355 155<0 165 165 165 301 543 0 543>
LayerCount: 2
Fore
SplineSet
355 301 m 1
 355 543 l 1
 510 543 l 1
 510 0 l 1
 355 0 l 1
 355 165 l 1
 339 160 324 156 309 152 c 1
 146 152 l 1
 40 258 l 1
 40 543 l 1
 195 543 l 1
 195 316 l 1
 214 297 l 1
 339 297 l 2
 343 298 348 299 355 301 c 1
EndSplineSet
EndChar

StartChar: afii10090
Encoding: 1096 1096 116
Width: 853
GlyphClass: 1
Flags: MW
HStem: 0 135<205 349 504 648> 523 20G<50 205 205 205 349 504 504 504 648 803 803 803>
VStem: 50 155<135 543 135 543 135 543> 349 155<135 543 135 543> 648 155<135 543>
CounterMasks: 1 38
LayerCount: 2
Fore
SplineSet
803 0 m 1
 50 0 l 1
 50 543 l 1
 205 543 l 1
 205 135 l 1
 349 135 l 1
 349 543 l 1
 504 543 l 1
 504 135 l 1
 648 135 l 1
 648 543 l 1
 803 543 l 1
 803 0 l 1
EndSplineSet
EndChar

StartChar: afii10091
Encoding: 1097 1097 117
Width: 886
GlyphClass: 1
Flags: MW
HStem: -150 21G<711 866 711 711> 0 135<205 349 504 648> 523 20G<50 205 205 205 349 504 504 504 648 803 803 803>
VStem: 50 155<135 543 135 543 135 543> 349 155<135 543 135 543> 648 155<135 543 135 543> 711 155<-150 0 0 0>
LayerCount: 2
Fore
SplineSet
711 0 m 1xfa
 50 0 l 1
 50 543 l 1
 205 543 l 1
 205 135 l 1
 349 135 l 1
 349 543 l 1
 504 543 l 1
 504 135 l 1
 648 135 l 1
 648 543 l 1
 803 543 l 1
 803 135 l 1xfc
 866 135 l 1
 866 -150 l 1
 711 -150 l 1
 711 0 l 1xfa
EndSplineSet
EndChar

StartChar: afii10092
Encoding: 1098 1098 118
Width: 648
GlyphClass: 1
Flags: MW
HStem: 0 125<300 454 300 521> 248 125<300 454 300 521> 398 145<10 145 10 300>
VStem: 145 155<125 248 373 398 398 398> 473 155<144 229 229 229>
LayerCount: 2
Fore
SplineSet
145 0 m 1
 145 398 l 1
 10 398 l 1
 10 543 l 1
 300 543 l 1
 300 373 l 1
 521 373 l 1
 628 266 l 1
 628 107 l 1
 521 0 l 1
 145 0 l 1
473 229 m 1
 454 248 l 1
 300 248 l 1
 300 125 l 1
 454 125 l 1
 473 144 l 1
 473 229 l 1
EndSplineSet
EndChar

StartChar: afii10093
Encoding: 1099 1099 119
Width: 798
GlyphClass: 1
Flags: MW
HStem: 0 125<205 359 205 426> 248 125<205 359 205 426> 523 20G<50 205 205 205 593 748 748 748>
VStem: 50 155<125 248 373 543> 378 155<144 229 229 229> 593 155<0 543 0 543>
LayerCount: 2
Fore
SplineSet
748 543 m 1
 748 0 l 1
 593 0 l 1
 593 543 l 1
 748 543 l 1
50 0 m 1
 50 543 l 1
 205 543 l 1
 205 373 l 1
 426 373 l 1
 533 266 l 1
 533 107 l 1
 426 0 l 1
 50 0 l 1
378 229 m 1
 359 248 l 1
 205 248 l 1
 205 125 l 1
 359 125 l 1
 378 144 l 1
 378 229 l 1
EndSplineSet
EndChar

StartChar: afii10094
Encoding: 1100 1100 120
Width: 553
GlyphClass: 1
Flags: MW
HStem: 0 125<205 359 205 426> 248 125<205 359 205 426> 523 20G<50 205 205 205>
VStem: 50 155<125 248 373 543> 378 155<144 229 229 229>
LayerCount: 2
Fore
SplineSet
50 0 m 1
 50 543 l 1
 205 543 l 1
 205 373 l 1
 426 373 l 1
 533 266 l 1
 533 107 l 1
 426 0 l 1
 50 0 l 1
378 229 m 1
 359 248 l 1
 205 248 l 1
 205 125 l 1
 359 125 l 1
 378 144 l 1
 378 229 l 1
EndSplineSet
EndChar

StartChar: afii10095
Encoding: 1101 1101 121
Width: 551
GlyphClass: 1
Flags: MW
HStem: 0 135<176 327 176 393 157 327> 207 125<184 346 184 346> 325 218<127 174 19 393> 408 135<193 327 193 193>
VStem: 19 155<325 389 325 436 325 436> 346 155<154 207 207 207 332 389 389 389>
LayerCount: 2
Fore
SplineSet
51 175 m 1xac
 176 135 l 1
 327 135 l 1
 346 154 l 1
 346 207 l 1
 184 207 l 1
 184 332 l 1
 346 332 l 1
 346 389 l 1
 327 408 l 1
 193 408 l 1xdc
 174 389 l 1
 174 325 l 1
 19 325 l 1
 19 436 l 1
 127 543 l 1
 393 543 l 1
 501 436 l 1
 501 107 l 1
 393 0 l 1
 157 0 l 1
 10 46 l 1
 51 175 l 1xac
EndSplineSet
EndChar

StartChar: afii10096
Encoding: 1102 1102 122
Width: 782
GlyphClass: 1
Flags: MW
HStem: 0 145<439 558 439 625 372 558> 197 145<205 265 205 265> 398 145<439 558 439 439>
VStem: 50 155<0 197 0 342 342 543> 265 155<164 197 197 197 342 379 164 435 164 435> 577 155<164 379 379 379>
LayerCount: 2
Fore
SplineSet
732 108 m 1
 625 0 l 1
 372 0 l 1
 265 108 l 1
 265 197 l 1
 205 197 l 1
 205 0 l 1
 50 0 l 1
 50 543 l 1
 205 543 l 1
 205 342 l 1
 265 342 l 1
 265 435 l 1
 372 543 l 1
 625 543 l 1
 732 435 l 1
 732 108 l 1
439 145 m 1
 558 145 l 1
 577 164 l 1
 577 379 l 1
 558 398 l 1
 439 398 l 1
 420 379 l 1
 420 164 l 1
 439 145 l 1
EndSplineSet
EndChar

StartChar: afii10097
Encoding: 1103 1103 123
Width: 572
GlyphClass: 1
Flags: MW
HStem: -25 21G<92 92> -20 20G<367 522 367 367> 418 125<210 367 210 210>
VStem: 40 155<331 403 331 462 331 462> 367 155<0 190 190 190 315 418 418 418>
LayerCount: 2
Fore
SplineSet
210 315 m 1xb8
 367 315 l 1
 367 418 l 1
 210 418 l 1
 195 403 l 1
 195 331 l 1
 210 315 l 1xb8
145 190 m 1
 122 190 l 1
 40 271 l 1
 40 462 l 1
 122 543 l 1
 522 543 l 1
 522 0 l 1
 367 0 l 1x78
 367 190 l 1
 349 190 l 1
 197 29 l 1
 92 -25 l 1
 30 96 l 1
 104 134 l 1
 147 179 l 1
 182 204 l 1
 180 207 l 1
 145 190 l 1
EndSplineSet
EndChar

StartChar: parenright
Encoding: 41 41 124
Width: 316
GlyphClass: 1
Flags: MW
HStem: -223 21G<46 46> 745 20G<46 46>
VStem: 121 155<1 541 541 541>
LayerCount: 2
Fore
SplineSet
276 578 m 1
 276 -36 l 1
 191 -174 l 1
 46 -223 l 1
 0 -87 l 1
 85 -58 l 1
 121 1 l 1
 121 541 l 1
 85 600 l 1
 0 629 l 1
 46 765 l 1
 191 716 l 1
 276 578 l 1
EndSplineSet
EndChar

StartChar: greater
Encoding: 62 62 125
Width: 389
GlyphClass: 1
Flags: MW
HStem: -10 21G<108 108> 516 20G<108 108>
LayerCount: 2
Fore
SplineSet
369 303 m 1
 369 223 l 1
 108 -10 l 1
 10 100 l 1
 193 263 l 1
 10 426 l 1
 108 536 l 1
 369 303 l 1
EndSplineSet
EndChar

StartChar: braceright
Encoding: 125 125 126
Width: 386
GlyphClass: 1
Flags: MW
HStem: -213 21G<32 32> 735 20G<32 32>
VStem: 123 155<-7 171 -44 219 -44 219 371 549 549 549>
LayerCount: 2
Fore
SplineSet
366 304 m 1
 366 238 l 1
 278 171 l 1
 278 -44 l 1
 195 -176 l 1
 32 -213 l 1
 0 -73 l 1
 95 -51 l 1
 123 -7 l 1
 123 219 l 1
 191 271 l 1
 123 323 l 1
 123 549 l 1
 95 593 l 1
 0 615 l 1
 32 755 l 1
 195 718 l 1
 278 586 l 1
 278 371 l 1
 366 304 l 1
EndSplineSet
EndChar

StartChar: guillemotright
Encoding: 187 187 127
Width: 756
GlyphClass: 1
Flags: MW
HStem: -14 21G<109 109 426 426> 520 20G<109 109 426 426>
LayerCount: 2
Fore
SplineSet
514 263 m 1
 327 430 l 1
 426 540 l 1
 736 263 l 1
 426 -14 l 1
 327 96 l 1
 514 263 l 1
197 263 m 1
 10 430 l 1
 109 540 l 1
 419 263 l 1
 109 -14 l 1
 10 96 l 1
 197 263 l 1
EndSplineSet
EndChar

StartChar: afii10039
Encoding: 1061 1061 128
Width: 606
GlyphClass: 1
Flags: MW
HStem: -25 21G<136 136 470 470> 715 20G<141 141 465 465>
LayerCount: 2
Fore
SplineSet
141 735 m 1
 289 518 l 1
 301 480 l 1
 305 480 l 1
 317 518 l 1
 465 735 l 1
 597 644 l 1
 398 353 l 1
 601 68 l 1
 470 -25 l 1
 317 190 l 1
 305 228 l 1
 301 228 l 1
 289 190 l 1
 136 -25 l 1
 5 68 l 1
 208 353 l 1
 9 644 l 1
 141 735 l 1
EndSplineSet
EndChar

StartChar: afii10019
Encoding: 1042 1042 129
Width: 645
GlyphClass: 1
Flags: MW
HStem: 0 145<215 412 215 477> 297 145<215 397 215 402> 565 145<215 215 215 404>
VStem: 60 155<145 297 145 442 442 565> 429 155<463 540 540 540> 450 155<183 256 256 256>
LayerCount: 2
Fore
SplineSet
450 256 m 1xf4
 397 297 l 1
 215 297 l 1
 215 145 l 1
 412 145 l 1
 450 183 l 1
 450 256 l 1xf4
215 565 m 1
 215 442 l 1
 402 442 l 1
 429 463 l 1
 429 540 l 1xf8
 404 565 l 1
 215 565 l 1
531 370 m 1
 605 312 l 1
 605 128 l 1xf4
 477 0 l 1
 60 0 l 1
 60 710 l 1
 476 710 l 1
 584 602 l 1
 584 412 l 1
 531 370 l 1
EndSplineSet
EndChar

StartChar: afii10022
Encoding: 1045 1045 130
Width: 573
GlyphClass: 1
Flags: MW
HStem: 0 145<215 553 215 553> 298 145<215 511 215 511> 565 145<215 553 215 215>
VStem: 60 155<145 298 443 565>
LayerCount: 2
Fore
SplineSet
60 0 m 1
 60 710 l 1
 553 710 l 1
 553 565 l 1
 215 565 l 1
 215 443 l 1
 511 443 l 1
 511 298 l 1
 215 298 l 1
 215 145 l 1
 553 145 l 1
 553 0 l 1
 60 0 l 1
EndSplineSet
EndChar

StartChar: afii10030
Encoding: 1052 1052 131
Width: 852
GlyphClass: 1
Flags: MW
HStem: 0 21G<60 215 60 60 637 792 637 637> 690 20G<60 203 203 203 649 792 792 792>
VStem: 60 155<0 378 0 710> 637 155<0 378 378 378>
LayerCount: 2
Fore
SplineSet
203 710 m 1
 412 369 l 1
 424 331 l 1
 428 331 l 1
 440 369 l 1
 649 710 l 1
 792 710 l 1
 792 0 l 1
 637 0 l 1
 637 378 l 1
 648 445 l 1
 644 445 l 1
 618 379 l 1
 479 152 l 1
 373 152 l 1
 234 379 l 1
 208 445 l 1
 204 445 l 1
 215 378 l 1
 215 0 l 1
 60 0 l 1
 60 710 l 1
 203 710 l 1
EndSplineSet
EndChar

StartChar: afii10031
Encoding: 1053 1053 132
Width: 665
GlyphClass: 1
Flags: MW
HStem: 0 21G<60 215 60 60 450 605 450 450> 287 145<215 450 215 450> 690 20G<60 215 215 215 450 605 605 605>
VStem: 60 155<0 287 0 432 432 710> 450 155<0 287 287 287 432 710 0 710>
LayerCount: 2
Fore
SplineSet
450 432 m 1
 450 710 l 1
 605 710 l 1
 605 0 l 1
 450 0 l 1
 450 287 l 1
 215 287 l 1
 215 0 l 1
 60 0 l 1
 60 710 l 1
 215 710 l 1
 215 432 l 1
 450 432 l 1
EndSplineSet
EndChar

StartChar: afii10032
Encoding: 1054 1054 133
Width: 675
GlyphClass: 1
Flags: MW
HStem: 0 145<251 424 251 486 189 424> 565 145<251 424 251 251>
VStem: 50 155<187 523 187 584 187 584> 470 155<187 523 523 523>
LayerCount: 2
Fore
SplineSet
189 710 m 1
 486 710 l 1
 625 584 l 1
 625 126 l 1
 486 0 l 1
 189 0 l 1
 50 126 l 1
 50 584 l 1
 189 710 l 1
470 523 m 1
 424 565 l 1
 251 565 l 1
 205 523 l 1
 205 187 l 1
 251 145 l 1
 424 145 l 1
 470 187 l 1
 470 523 l 1
EndSplineSet
EndChar

StartChar: afii10034
Encoding: 1056 1056 134
Width: 635
GlyphClass: 1
Flags: MW
HStem: 0 21G<60 215 60 60> 227 145<215 410 215 410 215 477> 565 145<215 410 215 215>
VStem: 60 155<0 227 0 372 372 565> 450 155<412 525 525 525>
LayerCount: 2
Fore
SplineSet
215 227 m 1
 215 0 l 1
 60 0 l 1
 60 710 l 1
 477 710 l 1
 605 583 l 1
 605 354 l 1
 477 227 l 1
 215 227 l 1
410 565 m 1
 215 565 l 1
 215 372 l 1
 410 372 l 1
 450 412 l 1
 450 525 l 1
 410 565 l 1
EndSplineSet
EndChar

StartChar: afii10035
Encoding: 1057 1057 135
Width: 619
GlyphClass: 1
Flags: MW
HStem: 0 145<245 407 245 474 178 407> 565 145<245 400 245 245>
VStem: 50 155<185 525 185 582 185 582> 440 155<450 525 525 525>
LayerCount: 2
Fore
SplineSet
407 145 m 1
 503 241 l 1
 609 135 l 1
 474 0 l 1
 178 0 l 1
 50 128 l 1
 50 582 l 1
 178 710 l 1
 467 710 l 1
 595 582 l 1
 595 450 l 1
 440 450 l 1
 440 525 l 1
 400 565 l 1
 245 565 l 1
 205 525 l 1
 205 185 l 1
 245 145 l 1
 407 145 l 1
EndSplineSet
EndChar

StartChar: afii10036
Encoding: 1058 1058 136
Width: 565
GlyphClass: 1
Flags: MW
HStem: 0 21G<205 360 205 205> 565 145<10 205 10 555 360 555 360 360>
VStem: 205 155<0 565 0 565>
LayerCount: 2
Fore
SplineSet
360 565 m 1
 360 0 l 1
 205 0 l 1
 205 565 l 1
 10 565 l 1
 10 710 l 1
 555 710 l 1
 555 565 l 1
 360 565 l 1
EndSplineSet
EndChar

StartChar: afii10017
Encoding: 1040 1040 137
Width: 620
GlyphClass: 1
Flags: MW
HStem: -20 21G<146 146 474 474> 139 135<239 381 239 420 195 381> 690 20G<229 391 391 391>
LayerCount: 2
Fore
SplineSet
229 710 m 1
 391 710 l 1
 620 29 l 1
 474 -20 l 1
 420 139 l 1
 195 139 l 1
 146 -20 l 1
 0 29 l 1
 229 710 l 1
381 274 m 1
 325 440 l 1
 312 514 l 1
 308 514 l 1
 295 440 l 1
 239 274 l 1
 381 274 l 1
EndSplineSet
EndChar

StartChar: afii10065
Encoding: 1072 1072 138
Width: 579
GlyphClass: 1
Flags: MW
HStem: -15 21G<426 426> 0 125<204 313 204 353 138 313> 219 125<204 358 204 204> 408 135<201 339 201 201>
VStem: 358 155<177 219 219 219 344 389 389 389>
LayerCount: 2
Fore
SplineSet
513 169 m 1x78
 549 13 l 1
 426 -15 l 1xb8
 408 63 l 1
 353 0 l 1
 138 0 l 1
 30 107 l 1
 30 237 l 1
 138 344 l 1
 358 344 l 1
 358 389 l 1
 339 408 l 1
 201 408 l 1
 76 368 l 1
 35 497 l 1
 182 543 l 1
 405 543 l 1
 513 436 l 1
 513 169 l 1x78
358 177 m 1
 358 219 l 1
 204 219 l 1
 185 200 l 1
 185 144 l 1
 204 125 l 1
 313 125 l 1x78
 358 177 l 1
EndSplineSet
EndChar

StartChar: afii10070
Encoding: 1077 1077 139
Width: 569
GlyphClass: 1
Flags: MW
HStem: 0 135<224 373 224 392 158 373> 200 125<205 363 205 434 205 363> 418 125<224 224 224 358>
VStem: 50 155<154 200 154 325 325 399> 377 155<339 399 399 399>
LayerCount: 2
Fore
SplineSet
373 135 m 1
 498 175 l 1
 539 46 l 1
 392 0 l 1
 158 0 l 1
 50 107 l 1
 50 436 l 1
 158 543 l 1
 424 543 l 1
 532 436 l 1
 532 297 l 1
 434 200 l 1
 205 200 l 1
 205 154 l 1
 224 135 l 1
 373 135 l 1
224 418 m 1
 205 399 l 1
 205 325 l 1
 363 325 l 1
 377 339 l 1
 377 399 l 1
 358 418 l 1
 224 418 l 1
EndSplineSet
EndChar

StartChar: afii10080
Encoding: 1086 1086 140
Width: 587
GlyphClass: 1
Flags: MW
HStem: 0 145<224 363 224 430 157 363> 398 145<224 363 224 224>
VStem: 50 155<164 379 164 435 164 435> 382 155<164 379 379 379>
LayerCount: 2
Fore
SplineSet
537 108 m 1
 430 0 l 1
 157 0 l 1
 50 108 l 1
 50 435 l 1
 157 543 l 1
 430 543 l 1
 537 435 l 1
 537 108 l 1
224 145 m 1
 363 145 l 1
 382 164 l 1
 382 379 l 1
 363 398 l 1
 224 398 l 1
 205 379 l 1
 205 164 l 1
 224 145 l 1
EndSplineSet
EndChar

StartChar: afii10082
Encoding: 1088 1088 141
Width: 598
GlyphClass: 1
Flags: MW
HStem: -168 21G<66 221 66 66> 0 145<271 374 271 440 271 374> 398 145<266 266 266 374> 538 20G<153 153>
VStem: 66 155<-168 37 182 346> 393 155<164 379 379 379>
LayerCount: 2
Fore
SplineSet
266 398 m 1xec
 221 346 l 1
 221 182 l 1
 271 145 l 1
 374 145 l 1
 393 164 l 1
 393 379 l 1
 374 398 l 1
 266 398 l 1xec
226 543 m 1
 440 543 l 1xec
 548 436 l 1
 548 107 l 1
 440 0 l 1
 271 0 l 1
 221 37 l 1
 221 -168 l 1
 66 -168 l 1
 66 374 l 1
 30 530 l 1
 153 558 l 1xdc
 171 480 l 1
 226 543 l 1
EndSplineSet
EndChar

StartChar: afii10083
Encoding: 1089 1089 142
Width: 554
GlyphClass: 1
Flags: MW
HStem: 0 145<224 375 224 394 158 375> 325 218<377 424 158 532 377 377> 398 145<224 358 224 224>
VStem: 50 155<164 379 164 436 164 436>
LayerCount: 2
Fore
SplineSet
375 145 m 1xb0
 500 185 l 1
 544 47 l 1
 394 0 l 1
 158 0 l 1
 50 107 l 1
 50 436 l 1
 158 543 l 1
 424 543 l 1
 532 436 l 1
 532 325 l 1
 377 325 l 1xd0
 377 379 l 1
 358 398 l 1
 224 398 l 1
 205 379 l 1
 205 164 l 1
 224 145 l 1
 375 145 l 1xb0
EndSplineSet
EndChar

StartChar: afii10085
Encoding: 1091 1091 143
Width: 549
GlyphClass: 1
Flags: MW
HStem: -168 145<83 206 83 268 83 206> 543 20G<140 140 407 407>
LayerCount: 2
Fore
SplineSet
302 249 m 1
 407 563 l 1
 549 516 l 1
 348 -88 l 1
 268 -168 l 1
 83 -168 l 1
 83 -23 l 1
 206 -23 l 1
 223 -6 l 1
 230 16 l 1
 205 16 l 1
 0 504 l 1
 140 563 l 1
 272 249 l 1
 285 180 l 1
 289 180 l 1
 302 249 l 1
EndSplineSet
EndChar

StartChar: nine
Encoding: 57 57 144
Width: 631
GlyphClass: 1
Flags: MW
HStem: 0 145<199 386 199 454 174 386> 260 145<231 363 163 388> 565 145<231 386 231 231>
VStem: 36 155<445 525 445 582 445 582> 426 155<185 274 274 274 414 525 525 525>
LayerCount: 2
Fore
SplineSet
581 582 m 1
 581 128 l 1
 454 0 l 1
 174 0 l 1
 30 48 l 1
 76 186 l 1
 199 145 l 1
 386 145 l 1
 426 185 l 1
 426 274 l 1
 363 260 l 1
 163 260 l 1
 36 388 l 1
 36 582 l 1
 163 710 l 1
 454 710 l 1
 581 582 l 1
231 405 m 1
 388 405 l 1
 426 414 l 1
 426 525 l 1
 386 565 l 1
 231 565 l 1
 191 525 l 1
 191 445 l 1
 231 405 l 1
EndSplineSet
EndChar

StartChar: backslash
Encoding: 92 92 145
Width: 577
GlyphClass: 1
Flags: MW
HStem: -30 21G<451 451> 720 20G<126 126>
LayerCount: 2
Fore
SplineSet
577 52 m 1
 451 -30 l 1
 0 658 l 1
 126 740 l 1
 577 52 l 1
EndSplineSet
EndChar

StartChar: bracketright
Encoding: 93 93 146
Width: 299
GlyphClass: 1
Flags: MW
HStem: -178 135<0 104 0 259 0 104> 585 135<0 104 0 259>
VStem: 104 155<-43 585 585 585>
LayerCount: 2
Fore
SplineSet
0 -43 m 1
 104 -43 l 1
 104 585 l 1
 0 585 l 1
 0 720 l 1
 259 720 l 1
 259 -178 l 1
 0 -178 l 1
 0 -43 l 1
EndSplineSet
EndChar

StartChar: comma
Encoding: 44 44 147
Width: 220
GlyphClass: 1
Flags: MW
HStem: -180 21G<0 0 0 105> 90 20G<65 210 210 210>
LayerCount: 2
Fore
SplineSet
0 -180 m 1
 65 110 l 1
 210 110 l 1
 105 -180 l 1
 0 -180 l 1
EndSplineSet
EndChar

StartChar: less
Encoding: 60 60 148
Width: 389
GlyphClass: 1
Flags: MW
HStem: -10 21G<281 281> 516 20G<281 281>
LayerCount: 2
Fore
SplineSet
20 223 m 1
 20 303 l 1
 281 536 l 1
 379 426 l 1
 196 263 l 1
 379 100 l 1
 281 -10 l 1
 20 223 l 1
EndSplineSet
EndChar

StartChar: afii10087
Encoding: 1093 1093 149
Width: 520
GlyphClass: 1
Flags: MW
HStem: -26 21G<124 124 396 396> 548 20G<124 124 396 396>
LayerCount: 2
Fore
SplineSet
396 -26 m 1
 274 125 l 1
 262 163 l 1
 258 163 l 1
 246 125 l 1
 124 -26 l 1
 5 70 l 1
 167 271 l 1
 5 473 l 1
 124 568 l 1
 246 415 l 1
 258 377 l 1
 262 377 l 1
 274 415 l 1
 396 568 l 1
 515 473 l 1
 353 271 l 1
 515 70 l 1
 396 -26 l 1
EndSplineSet
EndChar

StartChar: a
Encoding: 97 97 150
Width: 579
GlyphClass: 1
Flags: MW
HStem: -15 21G<426 426> 0 125<204 313 204 353 138 313> 219 125<204 358 204 204> 408 135<201 339 201 201>
VStem: 358 155<177 219 219 219 344 389 389 389>
LayerCount: 2
Fore
SplineSet
513 169 m 1x78
 549 13 l 1
 426 -15 l 1xb8
 408 63 l 1
 353 0 l 1
 138 0 l 1
 30 107 l 1
 30 237 l 1
 138 344 l 1
 358 344 l 1
 358 389 l 1
 339 408 l 1
 201 408 l 1
 76 368 l 1
 35 497 l 1
 182 543 l 1
 405 543 l 1
 513 436 l 1
 513 169 l 1x78
358 177 m 1
 358 219 l 1
 204 219 l 1
 185 200 l 1
 185 144 l 1
 204 125 l 1
 313 125 l 1x78
 358 177 l 1
EndSplineSet
EndChar

StartChar: c
Encoding: 99 99 151
Width: 554
GlyphClass: 1
Flags: MW
HStem: 0 145<224 375 224 394 158 375> 325 218<377 424 158 532 377 377> 398 145<224 358 224 224>
VStem: 50 155<164 379 164 436 164 436>
LayerCount: 2
Fore
SplineSet
375 145 m 1xb0
 500 185 l 1
 544 47 l 1
 394 0 l 1
 158 0 l 1
 50 107 l 1
 50 436 l 1
 158 543 l 1
 424 543 l 1
 532 436 l 1
 532 325 l 1
 377 325 l 1xd0
 377 379 l 1
 358 398 l 1
 224 398 l 1
 205 379 l 1
 205 164 l 1
 224 145 l 1
 375 145 l 1xb0
EndSplineSet
EndChar

StartChar: e
Encoding: 101 101 152
Width: 569
GlyphClass: 1
Flags: MW
HStem: 0 135<224 373 224 392 158 373> 200 125<205 363 205 434 205 363> 418 125<224 224 224 358>
VStem: 50 155<154 200 154 325 325 399> 377 155<339 399 399 399>
LayerCount: 2
Fore
SplineSet
373 135 m 1
 498 175 l 1
 539 46 l 1
 392 0 l 1
 158 0 l 1
 50 107 l 1
 50 436 l 1
 158 543 l 1
 424 543 l 1
 532 436 l 1
 532 297 l 1
 434 200 l 1
 205 200 l 1
 205 154 l 1
 224 135 l 1
 373 135 l 1
224 418 m 1
 205 399 l 1
 205 325 l 1
 363 325 l 1
 377 339 l 1
 377 399 l 1
 358 418 l 1
 224 418 l 1
EndSplineSet
EndChar

StartChar: o
Encoding: 111 111 153
Width: 587
GlyphClass: 1
Flags: MW
HStem: 0 145<224 363 224 430 157 363> 398 145<224 363 224 224>
VStem: 50 155<164 379 164 435 164 435> 382 155<164 379 379 379>
LayerCount: 2
Fore
SplineSet
537 108 m 1
 430 0 l 1
 157 0 l 1
 50 108 l 1
 50 435 l 1
 157 543 l 1
 430 543 l 1
 537 435 l 1
 537 108 l 1
224 145 m 1
 363 145 l 1
 382 164 l 1
 382 379 l 1
 363 398 l 1
 224 398 l 1
 205 379 l 1
 205 164 l 1
 224 145 l 1
EndSplineSet
EndChar

StartChar: p
Encoding: 112 112 154
Width: 598
GlyphClass: 1
Flags: MW
HStem: -168 21G<66 221 66 66> 0 145<271 374 271 440 271 374> 398 145<266 266 266 374> 538 20G<153 153>
VStem: 66 155<-168 37 182 346> 393 155<164 379 379 379>
LayerCount: 2
Fore
SplineSet
266 398 m 1xec
 221 346 l 1
 221 182 l 1
 271 145 l 1
 374 145 l 1
 393 164 l 1
 393 379 l 1
 374 398 l 1
 266 398 l 1xec
226 543 m 1
 440 543 l 1xec
 548 436 l 1
 548 107 l 1
 440 0 l 1
 271 0 l 1
 221 37 l 1
 221 -168 l 1
 66 -168 l 1
 66 374 l 1
 30 530 l 1
 153 558 l 1xdc
 171 480 l 1
 226 543 l 1
EndSplineSet
EndChar

StartChar: B
Encoding: 66 66 155
Width: 645
GlyphClass: 1
Flags: MW
HStem: 0 145<215 412 215 477> 297 145<215 397 215 402> 565 145<215 215 215 404>
VStem: 60 155<145 297 145 442 442 565> 429 155<463 540 540 540> 450 155<183 256 256 256>
LayerCount: 2
Fore
SplineSet
450 256 m 1xf4
 397 297 l 1
 215 297 l 1
 215 145 l 1
 412 145 l 1
 450 183 l 1
 450 256 l 1xf4
215 565 m 1
 215 442 l 1
 402 442 l 1
 429 463 l 1
 429 540 l 1xf8
 404 565 l 1
 215 565 l 1
531 370 m 1
 605 312 l 1
 605 128 l 1xf4
 477 0 l 1
 60 0 l 1
 60 710 l 1
 476 710 l 1
 584 602 l 1
 584 412 l 1
 531 370 l 1
EndSplineSet
EndChar

StartChar: C
Encoding: 67 67 156
Width: 619
GlyphClass: 1
Flags: MW
HStem: 0 145<245 407 245 474 178 407> 565 145<245 400 245 245>
VStem: 50 155<185 525 185 582 185 582> 440 155<450 525 525 525>
LayerCount: 2
Fore
SplineSet
407 145 m 1
 503 241 l 1
 609 135 l 1
 474 0 l 1
 178 0 l 1
 50 128 l 1
 50 582 l 1
 178 710 l 1
 467 710 l 1
 595 582 l 1
 595 450 l 1
 440 450 l 1
 440 525 l 1
 400 565 l 1
 245 565 l 1
 205 525 l 1
 205 185 l 1
 245 145 l 1
 407 145 l 1
EndSplineSet
EndChar

StartChar: E
Encoding: 69 69 157
Width: 573
GlyphClass: 1
Flags: MW
HStem: 0 145<215 553 215 553> 298 145<215 511 215 511> 565 145<215 553 215 215>
VStem: 60 155<145 298 443 565>
LayerCount: 2
Fore
SplineSet
60 0 m 1
 60 710 l 1
 553 710 l 1
 553 565 l 1
 215 565 l 1
 215 443 l 1
 511 443 l 1
 511 298 l 1
 215 298 l 1
 215 145 l 1
 553 145 l 1
 553 0 l 1
 60 0 l 1
EndSplineSet
EndChar

StartChar: H
Encoding: 72 72 158
Width: 665
GlyphClass: 1
Flags: MW
HStem: 0 21G<60 215 60 60 450 605 450 450> 287 145<215 450 215 450> 690 20G<60 215 215 215 450 605 605 605>
VStem: 60 155<0 287 0 432 432 710> 450 155<0 287 287 287 432 710 0 710>
LayerCount: 2
Fore
SplineSet
450 432 m 1
 450 710 l 1
 605 710 l 1
 605 0 l 1
 450 0 l 1
 450 287 l 1
 215 287 l 1
 215 0 l 1
 60 0 l 1
 60 710 l 1
 215 710 l 1
 215 432 l 1
 450 432 l 1
EndSplineSet
EndChar

StartChar: O
Encoding: 79 79 159
Width: 675
GlyphClass: 1
Flags: MW
HStem: 0 145<251 424 251 486 189 424> 565 145<251 424 251 251>
VStem: 50 155<187 523 187 584 187 584> 470 155<187 523 523 523>
LayerCount: 2
Fore
SplineSet
189 710 m 1
 486 710 l 1
 625 584 l 1
 625 126 l 1
 486 0 l 1
 189 0 l 1
 50 126 l 1
 50 584 l 1
 189 710 l 1
470 523 m 1
 424 565 l 1
 251 565 l 1
 205 523 l 1
 205 187 l 1
 251 145 l 1
 424 145 l 1
 470 187 l 1
 470 523 l 1
EndSplineSet
EndChar

StartChar: P
Encoding: 80 80 160
Width: 635
GlyphClass: 1
Flags: MW
HStem: 0 21G<60 215 60 60> 227 145<215 410 215 410 215 477> 565 145<215 410 215 215>
VStem: 60 155<0 227 0 372 372 565> 450 155<412 525 525 525>
LayerCount: 2
Fore
SplineSet
215 227 m 1
 215 0 l 1
 60 0 l 1
 60 710 l 1
 477 710 l 1
 605 583 l 1
 605 354 l 1
 477 227 l 1
 215 227 l 1
410 565 m 1
 215 565 l 1
 215 372 l 1
 410 372 l 1
 450 412 l 1
 450 525 l 1
 410 565 l 1
EndSplineSet
EndChar

StartChar: T
Encoding: 84 84 161
Width: 565
GlyphClass: 1
Flags: MW
HStem: 0 21G<205 360 205 205> 565 145<10 205 10 555 360 555 360 360>
VStem: 205 155<0 565 0 565>
LayerCount: 2
Fore
SplineSet
360 565 m 1
 360 0 l 1
 205 0 l 1
 205 565 l 1
 10 565 l 1
 10 710 l 1
 555 710 l 1
 555 565 l 1
 360 565 l 1
EndSplineSet
EndChar

StartChar: X
Encoding: 88 88 162
Width: 606
GlyphClass: 1
Flags: MW
HStem: -25 21G<136 136 470 470> 715 20G<141 141 465 465>
LayerCount: 2
Fore
SplineSet
141 735 m 1
 289 518 l 1
 301 480 l 1
 305 480 l 1
 317 518 l 1
 465 735 l 1
 597 644 l 1
 398 353 l 1
 601 68 l 1
 470 -25 l 1
 317 190 l 1
 305 228 l 1
 301 228 l 1
 289 190 l 1
 136 -25 l 1
 5 68 l 1
 208 353 l 1
 9 644 l 1
 141 735 l 1
EndSplineSet
EndChar

StartChar: slash
Encoding: 47 47 163
Width: 577
GlyphClass: 1
Flags: MW
HStem: -30 21G<126 126> 720 20G<451 451>
LayerCount: 2
Fore
SplineSet
126 -30 m 1
 0 52 l 1
 451 740 l 1
 577 658 l 1
 126 -30 l 1
EndSplineSet
EndChar

StartChar: parenleft
Encoding: 40 40 164
Width: 316
GlyphClass: 1
Flags: MW
HStem: -223 21G<270 270> 745 20G<270 270>
VStem: 40 155<1 541 1 578 1 578>
LayerCount: 2
Fore
SplineSet
40 -36 m 1
 40 578 l 1
 125 716 l 1
 270 765 l 1
 316 629 l 1
 231 600 l 1
 195 541 l 1
 195 1 l 1
 231 -58 l 1
 316 -87 l 1
 270 -223 l 1
 125 -174 l 1
 40 -36 l 1
EndSplineSet
EndChar

StartChar: quotesingle
Encoding: 39 39 165
Width: 202
GlyphClass: 1
Flags: MW
HStem: 390 21G<48 48 48 154> 690 20G<30 172 172 172>
VStem: 39 124
LayerCount: 2
Fore
SplineSet
48 390 m 1
 30 710 l 1
 172 710 l 1
 154 390 l 1
 48 390 l 1
EndSplineSet
EndChar

StartChar: x
Encoding: 120 120 166
Width: 520
GlyphClass: 1
Flags: MW
HStem: -26 21G<124 124 396 396> 548 20G<124 124 396 396>
LayerCount: 2
Fore
SplineSet
396 -26 m 1
 274 125 l 1
 262 163 l 1
 258 163 l 1
 246 125 l 1
 124 -26 l 1
 5 70 l 1
 167 271 l 1
 5 473 l 1
 124 568 l 1
 246 415 l 1
 258 377 l 1
 262 377 l 1
 274 415 l 1
 396 568 l 1
 515 473 l 1
 353 271 l 1
 515 70 l 1
 396 -26 l 1
EndSplineSet
EndChar

StartChar: A
Encoding: 65 65 167
Width: 620
GlyphClass: 1
Flags: MW
HStem: -20 21G<146 146 474 474> 139 135<239 381 239 420 195 381> 690 20G<229 391 391 391>
LayerCount: 2
Fore
SplineSet
229 710 m 1
 391 710 l 1
 620 29 l 1
 474 -20 l 1
 420 139 l 1
 195 139 l 1
 146 -20 l 1
 0 29 l 1
 229 710 l 1
381 274 m 1
 325 440 l 1
 312 514 l 1
 308 514 l 1
 295 440 l 1
 239 274 l 1
 381 274 l 1
EndSplineSet
EndChar

StartChar: M
Encoding: 77 77 168
Width: 852
GlyphClass: 1
Flags: MW
HStem: 0 21G<60 215 60 60 637 792 637 637> 690 20G<60 203 203 203 649 792 792 792>
VStem: 60 155<0 378 0 710> 637 155<0 378 378 378>
LayerCount: 2
Fore
SplineSet
203 710 m 1
 412 369 l 1
 424 331 l 1
 428 331 l 1
 440 369 l 1
 649 710 l 1
 792 710 l 1
 792 0 l 1
 637 0 l 1
 637 378 l 1
 648 445 l 1
 644 445 l 1
 618 379 l 1
 479 152 l 1
 373 152 l 1
 234 379 l 1
 208 445 l 1
 204 445 l 1
 215 378 l 1
 215 0 l 1
 60 0 l 1
 60 710 l 1
 203 710 l 1
EndSplineSet
EndChar

StartChar: y
Encoding: 121 121 169
Width: 549
GlyphClass: 1
Flags: MW
HStem: -168 145<83 206 83 268 83 206> 543 20G<140 140 407 407>
LayerCount: 2
Fore
SplineSet
302 249 m 1
 407 563 l 1
 549 516 l 1
 348 -88 l 1
 268 -168 l 1
 83 -168 l 1
 83 -23 l 1
 206 -23 l 1
 223 -6 l 1
 230 16 l 1
 205 16 l 1
 0 504 l 1
 140 563 l 1
 272 249 l 1
 285 180 l 1
 289 180 l 1
 302 249 l 1
EndSplineSet
EndChar

StartChar: afii10108
Encoding: 1115 1115 170
Width: 612
GlyphClass: 1
Flags: MW
HStem: 0 21G<90 245 90 90 417 572 417 417> 278 145<295 398 295 464> 460 120<0 83 0 90 0 83 245 380> 706 20G<197 197>
VStem: 90 155<0 241 386 460> 417 155<0 259 259 259>
LayerCount: 2
Fore
SplineSet
380 460 m 1
 245 460 l 1
 245 386 l 1
 295 423 l 1
 464 423 l 1
 572 316 l 1
 572 0 l 1
 417 0 l 1
 417 259 l 1
 398 278 l 1
 295 278 l 1
 245 241 l 1
 245 0 l 1
 90 0 l 1
 90 460 l 1
 0 460 l 1
 0 580 l 1
 83 580 l 1
 51 678 l 1
 197 726 l 1
 245 580 l 1
 380 580 l 1
 380 460 l 1
EndSplineSet
EndChar

StartChar: afii10099
Encoding: 1106 1106 171
Width: 612
GlyphClass: 1
Flags: MW
HStem: -70 21G<334 334> -20 20G<90 245 90 90> 278 145<295 398 295 464> 460 120<0 83 0 90 0 83 245 380> 706 20G<197 197>
VStem: 90 155<0 241 0 386 386 460> 417 155<140 259 259 259>
LayerCount: 2
Fore
SplineSet
417 140 m 1
 417 259 l 1
 398 278 l 1
 295 278 l 1
 245 241 l 1
 245 0 l 1
 90 0 l 1
 90 460 l 1
 0 460 l 1
 0 580 l 1
 83 580 l 1
 51 678 l 1
 197 726 l 1
 245 580 l 1
 380 580 l 1
 380 460 l 1
 245 460 l 1
 245 386 l 1
 295 423 l 1
 464 423 l 1
 572 316 l 1
 572 94 l 1
 494 -14 l 1
 334 -70 l 1
 285 69 l 1
 393 107 l 1
 417 140 l 1
EndSplineSet
EndChar

StartChar: afii10060
Encoding: 1035 1035 172
Width: 702
GlyphClass: 1
Flags: MW
HStem: 0 21G<120 275 120 120 507 507 507 662> 315 145<338 490 313 555> 565 145<0 120 0 395 275 275 275 395>
VStem: 120 155<0 306 0 446 446 565> 507 155<0 298 298 298>
LayerCount: 2
Fore
SplineSet
275 306 m 1
 275 0 l 1
 120 0 l 1
 120 565 l 1
 0 565 l 1
 0 710 l 1
 395 710 l 1
 395 565 l 1
 275 565 l 1
 275 446 l 1
 338 460 l 1
 555 460 l 1
 662 352 l 1
 662 0 l 1
 507 0 l 1
 507 298 l 1
 490 315 l 1
 313 315 l 1
 275 306 l 1
EndSplineSet
EndChar

StartChar: afii10051
Encoding: 1026 1026 173
Width: 702
GlyphClass: 1
Flags: MW
HStem: -70 21G<424 424> -20 20G<120 275 120 120> 315 145<338 490 313 555> 565 145<0 120 0 395 275 275 275 395>
VStem: 120 155<0 306 0 446 446 565> 507 155<140 298 298 298>
LayerCount: 2
Fore
SplineSet
662 94 m 1
 584 -14 l 1
 424 -70 l 1
 375 69 l 1
 483 107 l 1
 507 140 l 1
 507 298 l 1
 490 315 l 1
 313 315 l 1
 275 306 l 1
 275 0 l 1
 120 0 l 1
 120 565 l 1
 0 565 l 1
 0 710 l 1
 395 710 l 1
 395 565 l 1
 275 565 l 1
 275 446 l 1
 338 460 l 1
 555 460 l 1
 662 352 l 1
 662 94 l 1
EndSplineSet
EndChar

StartChar: afii10058
Encoding: 1033 1033 174
Width: 1015
GlyphClass: 1
Flags: MW
HStem: -20 21G<47 47> 0 145<626 790 626 858> 327 145<626 790 626 858> 565 145<324 471 324 324>
VStem: 471 155<145 327 472 565 565 565> 830 155<186 286 286 286>
LayerCount: 2
Fore
SplineSet
626 710 m 1xbc
 626 472 l 1
 858 472 l 1
 985 343 l 1
 985 129 l 1
 858 0 l 1
 471 0 l 1x7c
 471 565 l 1
 324 565 l 1
 273 116 l 1
 187 28 l 1
 47 -20 l 1
 0 118 l 1
 93 150 l 1
 123 180 l 1
 184 710 l 1
 626 710 l 1xbc
830 286 m 1
 790 327 l 1
 626 327 l 1
 626 145 l 1
 790 145 l 1
 830 186 l 1
 830 286 l 1
EndSplineSet
EndChar

StartChar: afii10106
Encoding: 1113 1113 175
Width: 850
GlyphClass: 1
Flags: MW
HStem: -20 21G<49 49> 0 125<537 656 537 723> 238 125<537 656 537 723> 398 145<293 382 293 293>
VStem: 382 155<125 238 363 398 398 398> 675 155<144 219 219 219>
LayerCount: 2
Fore
SplineSet
537 543 m 1xbc
 537 363 l 1
 723 363 l 1
 830 256 l 1
 830 107 l 1
 723 0 l 1
 382 0 l 1x7c
 382 398 l 1
 293 398 l 1
 257 107 l 1
 180 27 l 1
 49 -20 l 1
 0 118 l 1
 75 145 l 1
 108 179 l 1
 154 543 l 1
 537 543 l 1xbc
675 219 m 1
 656 238 l 1
 537 238 l 1
 537 125 l 1
 656 125 l 1
 675 144 l 1
 675 219 l 1
EndSplineSet
EndChar

StartChar: afii10059
Encoding: 1034 1034 176
Width: 964
GlyphClass: 1
Flags: MW
HStem: 0 145<575 739 575 807> 312 145<215 420 215 420 575 739> 690 20G<60 215 215 215 420 575 575 575>
VStem: 60 155<0 312 0 457 457 710> 420 155<145 312 145 312 145 312 457 710> 779 155<186 271 271 271>
LayerCount: 2
Fore
SplineSet
420 0 m 1
 420 312 l 1
 215 312 l 1
 215 0 l 1
 60 0 l 1
 60 710 l 1
 215 710 l 1
 215 457 l 1
 420 457 l 1
 420 710 l 1
 575 710 l 1
 575 457 l 1
 807 457 l 1
 934 328 l 1
 934 129 l 1
 807 0 l 1
 420 0 l 1
779 271 m 1
 739 312 l 1
 575 312 l 1
 575 145 l 1
 739 145 l 1
 779 186 l 1
 779 271 l 1
EndSplineSet
EndChar

StartChar: afii10107
Encoding: 1114 1114 177
Width: 839
GlyphClass: 1
Flags: MW
HStem: 0 125<518 645 518 712> 213 135 543 20G
VStem: 69 155<0 213 0 358 358 396 396 396> 363 155<125 213 213 213 358 543> 664 155<144 204 204 204>
LayerCount: 2
Fore
SplineSet
363 0 m 1
 363 213 l 1
 224 213 l 1
 224 0 l 1
 69 0 l 1
 69 396 l 1
 30 515 l 1
 176 563 l 1
 224 417 l 1
 224 358 l 1
 363 358 l 1
 363 543 l 1
 518 543 l 1
 518 348 l 1
 712 348 l 1
 819 241 l 1
 819 107 l 1
 712 0 l 1
 363 0 l 1
664 204 m 1
 645 223 l 1
 518 223 l 1
 518 125 l 1
 645 125 l 1
 664 144 l 1
 664 204 l 1
EndSplineSet
EndChar

StartChar: afii10050
Encoding: 1168 1168 178
Width: 552
GlyphClass: 1
Flags: MW
HStem: 0 21G<60 215 60 60> 565 145<215 387 60 542 215 215> 565 235<387 542 387 542 215 542>
VStem: 60 155<0 565 0 710 0 710> 387 155<710 800 565 800>
LayerCount: 2
Fore
SplineSet
387 710 m 1xd8
 387 800 l 1
 542 800 l 1xb8
 542 565 l 1
 215 565 l 1
 215 0 l 1
 60 0 l 1
 60 710 l 1
 387 710 l 1xd8
EndSplineSet
EndChar

StartChar: afii10098
Encoding: 1169 1169 179
Width: 470
GlyphClass: 1
Flags: MW
HStem: 0 21G<50 206 50 50> 397 146<206 300 50 455 206 206> 397 226<300 455 300 455 206 455>
VStem: 50 156<0 397 0 543 0 543> 300 155<543 623 397 623>
LayerCount: 2
Fore
SplineSet
300 543 m 1xd8
 300 623 l 1
 455 623 l 1xb8
 455 397 l 1
 206 397 l 1
 206 0 l 1
 50 0 l 1
 50 543 l 1
 300 543 l 1xd8
EndSplineSet
EndChar

StartChar: afii10193
Encoding: 1119 1119 180
Width: 582
GlyphClass: 1
Flags: MW
HStem: -150 21G<213 368 213 213> 0 135<205 213 368 377 205 532 368 368> 523 20G<50 205 205 205 377 532 532 532>
VStem: 50 155<135 543 135 543 135 543> 213 155<-150 0 -150 0> 377 155<135 543 0 543>
LayerCount: 2
Fore
SplineSet
368 0 m 1
 368 -150 l 1
 213 -150 l 1
 213 0 l 1
 50 0 l 1
 50 543 l 1
 205 543 l 1
 205 135 l 1
 377 135 l 1
 377 543 l 1
 532 543 l 1
 532 0 l 1
 368 0 l 1
EndSplineSet
EndChar

StartChar: afii10145
Encoding: 1039 1039 181
Width: 664
GlyphClass: 1
Flags: MW
HStem: -168 21G<255 410 255 255> 0 145<215 255 410 449 215 604 410 410> 690 20G<60 215 215 215 449 604 604 604>
VStem: 60 155<145 710 145 710 145 710> 255 155<-168 0 -168 0> 449 155<145 710>
LayerCount: 2
Fore
SplineSet
604 0 m 1
 410 0 l 1
 410 -168 l 1
 255 -168 l 1
 255 0 l 1
 60 0 l 1
 60 710 l 1
 215 710 l 1
 215 145 l 1
 449 145 l 1
 449 710 l 1
 604 710 l 1
 604 0 l 1
EndSplineSet
EndChar

StartChar: afii10053
Encoding: 1028 1028 182
Width: 619
GlyphClass: 1
Flags: MW
HStem: 0 145<245 407 245 474 178 407> 279 135<205 429 205 429> 565 145<245 400 245 245>
VStem: 50 155<185 279 414 525> 440 155<450 525 525 525>
LayerCount: 2
Fore
SplineSet
407 145 m 1
 503 241 l 1
 609 135 l 1
 474 0 l 1
 178 0 l 1
 50 128 l 1
 50 582 l 1
 178 710 l 1
 467 710 l 1
 595 582 l 1
 595 450 l 1
 440 450 l 1
 440 525 l 1
 400 565 l 1
 245 565 l 1
 205 525 l 1
 205 414 l 1
 429 414 l 1
 429 279 l 1
 205 279 l 1
 205 185 l 1
 245 145 l 1
 407 145 l 1
EndSplineSet
EndChar

StartChar: afii10101
Encoding: 1108 1108 183
Width: 554
GlyphClass: 1
Flags: MW
HStem: 0 135<224 375 224 394 158 375> 207 125<205 367 205 367> 325 218<377 424 158 532 377 377> 408 135<224 358 224 224>
VStem: 50 155<154 207 332 389> 377 155<325 389 389 389>
LayerCount: 2
Fore
SplineSet
375 135 m 1xdc
 500 175 l 1
 541 46 l 1
 394 0 l 1
 158 0 l 1
 50 107 l 1
 50 436 l 1
 158 543 l 1
 424 543 l 1
 532 436 l 1
 532 325 l 1
 377 325 l 1xac
 377 389 l 1
 358 408 l 1
 224 408 l 1
 205 389 l 1
 205 332 l 1
 367 332 l 1
 367 207 l 1
 205 207 l 1
 205 154 l 1
 224 135 l 1
 375 135 l 1xdc
EndSplineSet
EndChar

StartChar: mu
Encoding: 181 181 184
Width: 599
GlyphClass: 1
Flags: MW
HStem: -168 21G<50 205 50 50> 0 145<239 333 239 373 229 333> 523 20G<50 205 205 205 378 533 533 533>
VStem: 50 155<-168 24 178 543> 378 155<197 543 169 543>
LayerCount: 2
Fore
SplineSet
50 543 m 1
 205 543 l 1
 205 178 l 1
 239 145 l 1
 333 145 l 1
 378 197 l 1
 378 543 l 1
 533 543 l 1
 533 169 l 1
 569 13 l 1
 446 -15 l 1
 428 63 l 1
 373 0 l 1
 229 0 l 1
 205 24 l 1
 205 -168 l 1
 50 -168 l 1
 50 543 l 1
EndSplineSet
EndChar

StartChar: uni0406
Encoding: 1030 1030 185
Width: 407
GlyphClass: 1
Flags: MW
HStem: 0 135<30 126 281 377 30 126> 575 135<30 126 30 377 281 281 281 377>
VStem: 126 155<135 575 135 575>
LayerCount: 2
Fore
SplineSet
377 0 m 1
 30 0 l 1
 30 135 l 1
 126 135 l 1
 126 575 l 1
 30 575 l 1
 30 710 l 1
 377 710 l 1
 377 575 l 1
 281 575 l 1
 281 135 l 1
 377 135 l 1
 377 0 l 1
EndSplineSet
EndChar

StartChar: afii10103
Encoding: 1110 1110 186
Width: 277
GlyphClass: 1
Flags: MW
HStem: 0 21G<69 224 69 69> 585 159<109 180 109 185 109 180>
VStem: 69 155<0 381 381 381>
LayerCount: 2
Fore
SplineSet
69 381 m 1
 30 500 l 1
 176 548 l 1
 224 402 l 1
 224 0 l 1
 69 0 l 1
 69 381 l 1
67 627 m 1
 67 702 l 1
 109 744 l 1
 180 744 l 1
 227 702 l 1
 227 627 l 1
 185 585 l 1
 109 585 l 1
 67 627 l 1
EndSplineSet
EndChar

StartChar: afii10054
Encoding: 1029 1029 187
Width: 600
GlyphClass: 1
Flags: MW
HStem: 0 145<203 376 203 438 174 376> 565 145<225 397 225 225>
LayerCount: 2
Fore
SplineSet
36 448 m 1
 36 583 l 1
 163 710 l 1
 426 710 l 1
 570 661 l 1
 523 522 l 1
 397 565 l 1
 225 565 l 1
 191 531 l 1
 191 506 l 1
 204 479 l 1
 523 341 l 1
 565 262 l 1
 565 127 l 1
 438 0 l 1
 174 0 l 1
 30 49 l 1
 77 188 l 1
 203 145 l 1
 376 145 l 1
 410 179 l 1
 410 204 l 1
 397 231 l 1
 78 369 l 1
 36 448 l 1
EndSplineSet
EndChar

StartChar: afii10102
Encoding: 1109 1109 188
Width: 525
GlyphClass: 1
Flags: MW
HStem: 0 135<193 321 193 389 165 321> 408 135<203 332 203 203>
LayerCount: 2
Fore
SplineSet
183 374 m 1
 191 363 l 1
 451 300 l 1
 496 226 l 1
 496 107 l 1
 389 0 l 1
 165 0 l 1
 20 48 l 1
 63 178 l 1
 193 135 l 1
 321 135 l 1
 341 155 l 1
 341 170 l 1
 333 182 l 1
 73 245 l 1
 28 319 l 1
 28 436 l 1
 135 543 l 1
 360 543 l 1
 505 495 l 1
 462 365 l 1
 332 408 l 1
 203 408 l 1
 183 388 l 1
 183 374 l 1
EndSplineSet
EndChar

StartChar: afii10105
Encoding: 1112 1112 189
Width: 305
GlyphClass: 1
Flags: MW
HStem: -190 21G<-11 -11> 585 159<137 208 137 213 137 208>
VStem: 97 155<29 381 381 381>
LayerCount: 2
Fore
SplineSet
97 381 m 1
 58 500 l 1
 204 548 l 1
 252 402 l 1
 252 -17 l 1
 174 -125 l 1
 -11 -190 l 1
 -60 -51 l 1
 73 -4 l 1
 97 29 l 1
 97 381 l 1
95 627 m 1
 95 702 l 1
 137 744 l 1
 208 744 l 1
 255 702 l 1
 255 627 l 1
 213 585 l 1
 137 585 l 1
 95 627 l 1
EndSplineSet
EndChar

StartChar: afii10057
Encoding: 1032 1032 190
Width: 566
GlyphClass: 1
Flags: MW
HStem: 0 145<142 321 208 321 208 388> 565 145<223 361 223 516>
VStem: 361 155<185 565 565 565>
LayerCount: 2
Fore
SplineSet
142 0 m 1
 0 141 l 1
 105 247 l 1
 208 145 l 1
 321 145 l 1
 361 185 l 1
 361 565 l 1
 223 565 l 1
 223 710 l 1
 516 710 l 1
 516 128 l 1
 388 0 l 1
 142 0 l 1
EndSplineSet
EndChar

StartChar: afii10062
Encoding: 1038 1038 191
Width: 615
GlyphClass: 1
Flags: MW
HStem: 0 145<115 225 115 284 115 225> 752 130<266 356 266 423 199 356> 752 209<199 248 374 423 199 199>
VStem: 115 133 374 135<900 961 837 961>
LayerCount: 2
Fore
SplineSet
338 403 m 1xb8
 474 735 l 1
 615 677 l 1
 372 84 l 1
 284 0 l 1
 115 0 l 1
 115 145 l 1
 225 145 l 1
 243 162 l 1
 253 184 l 1
 0 664 l 1
 133 735 l 1
 308 403 l 1
 322 334 l 1
 326 334 l 1
 338 403 l 1xb8
509 837 m 1
 423 752 l 1
 199 752 l 1
 113 837 l 1
 113 961 l 1
 248 961 l 1xb8
 248 900 l 1
 266 882 l 1
 356 882 l 1xd8
 374 900 l 1
 374 961 l 1
 509 961 l 1
 509 837 l 1
EndSplineSet
EndChar

StartChar: afii10110
Encoding: 1118 1118 192
Width: 549
GlyphClass: 1
Flags: MW
HStem: -168 145<83 206 83 268 83 206> 601 120<232 323 232 397 158 323> 601 180<158 217 338 397 158 158>
LayerCount: 2
Fore
SplineSet
302 249 m 1xa0
 407 563 l 1
 549 516 l 1
 348 -88 l 1
 268 -168 l 1
 83 -168 l 1
 83 -23 l 1
 206 -23 l 1
 223 -6 l 1
 230 16 l 1
 205 16 l 1
 0 504 l 1
 140 563 l 1
 272 249 l 1
 285 180 l 1
 289 180 l 1
 302 249 l 1xa0
397 601 m 1
 158 601 l 1
 82 676 l 1
 82 781 l 1
 217 781 l 1xa0
 217 736 l 1
 232 721 l 1
 323 721 l 1xc0
 338 736 l 1
 338 781 l 1
 473 781 l 1
 473 676 l 1
 397 601 l 1
EndSplineSet
EndChar

StartChar: afii10056
Encoding: 1031 1031 193
Width: 407
GlyphClass: 1
Flags: MW
HStem: 0 135<30 126 281 377 30 126> 575 135<30 126 30 377 281 281 281 377> 766 159<60 131 60 136 60 131 60 270 270 341>
VStem: 18 160<808 883 808 883> 126 155<135 575 135 575> 228 149
LayerCount: 2
Fore
SplineSet
377 0 m 1xf4
 30 0 l 1
 30 135 l 1
 126 135 l 1
 126 575 l 1xe8
 30 575 l 1
 30 710 l 1
 377 710 l 1
 377 575 l 1xf4
 281 575 l 1
 281 135 l 1xe8
 377 135 l 1
 377 0 l 1xf4
18 808 m 1xf4
 18 883 l 1
 60 925 l 1
 131 925 l 1
 178 883 l 1
 178 808 l 1
 136 766 l 1
 60 766 l 1
 18 808 l 1xf4
228 808 m 1
 228 883 l 1
 270 925 l 1
 341 925 l 1
 388 883 l 1
 388 808 l 1
 346 766 l 1
 270 766 l 1
 228 808 l 1
EndSplineSet
EndChar

StartChar: afii10104
Encoding: 1111 1111 194
Width: 277
GlyphClass: 1
Flags: MW
HStem: 0 21G<69 224 69 69> 585 159<3 74 3 79 3 74 3 215 215 286>
VStem: -39 160<627 702 627 702> 69 155<0 381 381 381> 173 160<627 702 627 702>
LayerCount: 2
Fore
SplineSet
69 381 m 1xd0
 30 500 l 1
 176 548 l 1
 224 402 l 1
 224 0 l 1
 69 0 l 1
 69 381 l 1xd0
-39 627 m 1xe8
 -39 702 l 1
 3 744 l 1
 74 744 l 1
 121 702 l 1
 121 627 l 1
 79 585 l 1
 3 585 l 1
 -39 627 l 1xe8
173 627 m 1
 173 702 l 1
 215 744 l 1
 286 744 l 1
 333 702 l 1
 333 627 l 1
 291 585 l 1
 215 585 l 1
 173 627 l 1
EndSplineSet
EndChar

StartChar: perthousand
Encoding: 8240 8240 195
Width: 1211
GlyphClass: 1
Flags: MW
HStem: -25 21G<220 220> 0 115<614 668 614 714 568 668 989 1043> 215 115<614 614 614 668 989 1043 989 989> 715 20G<616 616>
LayerCount: 2
Fore
SplineSet
614 215 m 1
 591 192 l 1
 591 138 l 1
 614 115 l 1
 668 115 l 1
 691 138 l 1
 691 192 l 1
 668 215 l 1
 614 215 l 1
616 735 m 1
 735 644 l 1
 220 -25 l 1
 101 66 l 1
 616 735 l 1
568 330 m 1
 714 330 l 1
 811 233 l 1
 811 97 l 1
 714 0 l 1
 568 0 l 1
 471 97 l 1
 471 233 l 1
 568 330 l 1
168 595 m 1
 145 572 l 1
 145 518 l 1
 168 495 l 1
 222 495 l 1
 245 518 l 1
 245 572 l 1
 222 595 l 1
 168 595 l 1
122 710 m 1
 268 710 l 1
 365 613 l 1
 365 477 l 1
 268 380 l 1
 122 380 l 1
 25 477 l 1
 25 613 l 1
 122 710 l 1
989 215 m 1
 966 192 l 1
 966 138 l 1
 989 115 l 1
 1043 115 l 1
 1066 138 l 1
 1066 192 l 1
 1043 215 l 1
 989 215 l 1
943 330 m 1
 1089 330 l 1
 1186 233 l 1
 1186 97 l 1
 1089 0 l 1
 943 0 l 1
 846 97 l 1
 846 233 l 1
 943 330 l 1
EndSplineSet
EndChar

StartChar: daggerdbl
Encoding: 8225 8225 196
Width: 460
GlyphClass: 1
Flags: MW
HStem: -168 21G<152 308 152 152> 22 135<0 152 0 152 308 460> 385 135<0 152 0 152 308 460> 690 20G<152 308 308 308>
VStem: 152 156<-168 22 -168 22 157 385 520 710>
LayerCount: 2
Fore
SplineSet
0 385 m 1
 0 520 l 1
 152 520 l 1
 152 710 l 1
 308 710 l 1
 308 520 l 1
 460 520 l 1
 460 385 l 1
 308 385 l 1
 308 157 l 1
 460 157 l 1
 460 22 l 1
 308 22 l 1
 308 -168 l 1
 152 -168 l 1
 152 22 l 1
 0 22 l 1
 0 157 l 1
 152 157 l 1
 152 385 l 1
 0 385 l 1
EndSplineSet
EndChar

StartChar: dagger
Encoding: 8224 8224 197
Width: 460
GlyphClass: 1
Flags: MW
HStem: -168 21G<152 308 152 152> 385 135<0 152 0 152 308 460> 690 20G<152 308 308 308>
VStem: 152 156<-168 385 -168 385 520 710>
LayerCount: 2
Fore
SplineSet
0 385 m 1
 0 520 l 1
 152 520 l 1
 152 710 l 1
 308 710 l 1
 308 520 l 1
 460 520 l 1
 460 385 l 1
 308 385 l 1
 308 -168 l 1
 152 -168 l 1
 152 385 l 1
 0 385 l 1
EndSplineSet
EndChar

StartChar: brokenbar
Encoding: 166 166 198
Width: 276
GlyphClass: 1
Flags: MW
HStem: -168 21G<60 216 60 60> 690 20G<60 216 216 216>
VStem: 60 156<-168 207 335 710>
LayerCount: 2
Fore
SplineSet
216 710 m 1
 216 335 l 1
 60 335 l 1
 60 710 l 1
 216 710 l 1
216 -168 m 1
 60 -168 l 1
 60 207 l 1
 216 207 l 1
 216 -168 l 1
EndSplineSet
EndChar

StartChar: afii10052
Encoding: 1027 1027 199
Width: 552
GlyphClass: 1
Flags: MW
HStem: 0 21G<60 215 60 60> 565 145<215 215 215 542> 765 170<225 470 325 350>
VStem: 60 155<0 565 0 710 0 710>
LayerCount: 2
Fore
SplineSet
215 565 m 1
 215 0 l 1
 60 0 l 1
 60 710 l 1
 542 710 l 1
 542 565 l 1
 215 565 l 1
225 765 m 1
 325 935 l 1
 470 935 l 1
 350 765 l 1
 225 765 l 1
EndSplineSet
EndChar

StartChar: afii10100
Encoding: 1107 1107 200
Width: 470
GlyphClass: 1
Flags: MW
HStem: 0 21G<50 206 50 50> 397 146<206 206 206 455> 598 170<180 425 280 305>
VStem: 50 156<0 397 0 543 0 543>
LayerCount: 2
Fore
SplineSet
206 397 m 1
 206 0 l 1
 50 0 l 1
 50 543 l 1
 455 543 l 1
 455 397 l 1
 206 397 l 1
180 598 m 1
 280 768 l 1
 425 768 l 1
 305 598 l 1
 180 598 l 1
EndSplineSet
EndChar

StartChar: afii10061
Encoding: 1036 1036 201
Width: 620
GlyphClass: 1
Flags: MW
HStem: -20 20G 730 170<240 485 340 365 340 566>
VStem: 60 156<0 287 0 432 432 710>
LayerCount: 2
Fore
SplineSet
269 432 m 1
 413 682 l 1
 566 730 l 1
 610 590 l 1
 524 563 l 1
 404 355 l 1
 529 147 l 1
 615 120 l 1
 571 -20 l 1
 418 28 l 1
 262 287 l 1
 216 287 l 1
 216 0 l 1
 60 0 l 1
 60 710 l 1
 216 710 l 1
 216 432 l 1
 269 432 l 1
240 730 m 1
 340 900 l 1
 485 900 l 1
 365 730 l 1
 240 730 l 1
EndSplineSet
EndChar

StartChar: afii10109
Encoding: 1116 1116 202
Width: 538
GlyphClass: 1
Flags: MW
HStem: -25 21G<460 460> -20 20G<50 205 50 50> 562 170<215 460 315 340>
VStem: 50 155<0 207 332 543>
LayerCount: 2
Fore
SplineSet
205 332 m 1x70
 216 332 l 1
 344 508 l 1
 459 568 l 1
 528 435 l 1
 450 394 l 1
 359 269 l 1
 454 146 l 1
 528 108 l 1
 460 -25 l 1xb0
 355 29 l 1
 217 207 l 1
 205 207 l 1
 205 0 l 1
 50 0 l 1
 50 543 l 1
 205 543 l 1
 205 332 l 1x70
215 562 m 1
 315 732 l 1
 460 732 l 1
 340 562 l 1
 215 562 l 1
EndSplineSet
EndChar

StartChar: ellipsis
Encoding: 8230 8230 203
Width: 690
GlyphClass: 1
Flags: MW
HStem: -15 169<72 153 72 158 72 153 72 302 302 383 532 613>
VStem: 30 170<27 112 27 112> 260 170<27 112 27 112> 490 170<27 112 27 112>
CounterMasks: 1 70
LayerCount: 2
Fore
SplineSet
30 27 m 1
 30 112 l 1
 72 154 l 1
 153 154 l 1
 200 112 l 1
 200 27 l 1
 158 -15 l 1
 72 -15 l 1
 30 27 l 1
260 27 m 1
 260 112 l 1
 302 154 l 1
 383 154 l 1
 430 112 l 1
 430 27 l 1
 388 -15 l 1
 302 -15 l 1
 260 27 l 1
490 27 m 1
 490 112 l 1
 532 154 l 1
 613 154 l 1
 660 112 l 1
 660 27 l 1
 618 -15 l 1
 532 -15 l 1
 490 27 l 1
EndSplineSet
EndChar

StartChar: guilsinglleft
Encoding: 8249 8249 204
Width: 389
GlyphClass: 1
Flags: MW
HStem: -10 21G<281 281> 516 20G<281 281>
LayerCount: 2
Fore
SplineSet
20 223 m 1
 20 303 l 1
 281 536 l 1
 379 426 l 1
 196 263 l 1
 379 100 l 1
 281 -10 l 1
 20 223 l 1
EndSplineSet
EndChar

StartChar: guilsinglright
Encoding: 8250 8250 205
Width: 389
GlyphClass: 1
Flags: MW
HStem: -10 21G<108 108> 516 20G<108 108>
LayerCount: 2
Fore
SplineSet
369 303 m 1
 369 223 l 1
 108 -10 l 1
 10 100 l 1
 193 263 l 1
 10 426 l 1
 108 536 l 1
 369 303 l 1
EndSplineSet
EndChar

StartChar: degree
Encoding: 176 176 206
Width: 390
GlyphClass: 1
Flags: MW
HStem: 380 21G<122 268 122 122> 690 20G<122 268 268 268>
LayerCount: 2
Fore
SplineSet
168 595 m 1
 145 572 l 1
 145 518 l 1
 168 495 l 1
 222 495 l 1
 245 518 l 1
 245 572 l 1
 222 595 l 1
 168 595 l 1
122 710 m 1
 268 710 l 1
 365 613 l 1
 365 477 l 1
 268 380 l 1
 122 380 l 1
 25 477 l 1
 25 613 l 1
 122 710 l 1
EndSplineSet
EndChar

StartChar: uni00AD
Encoding: 173 173 207
Width: 500
GlyphClass: 1
Flags: MW
HStem: 277 135<20 480 20 480>
LayerCount: 2
Fore
SplineSet
20 277 m 1
 20 412 l 1
 480 412 l 1
 480 277 l 1
 20 277 l 1
EndSplineSet
EndChar

StartChar: Euro
Encoding: 8364 8364 208
Width: 619
GlyphClass: 1
Flags: MW
HStem: 0 145<245 407 245 474 178 407> 248 85<0 50 0 50 205 395> 377 85<10 50 10 50 205 405> 565 145<245 400 245 245>
VStem: 50 155<185 248 185 248 185 248 333 377 185 377 462 525> 440 155<450 525 525 525>
LayerCount: 2
Fore
SplineSet
10 377 m 1
 10 462 l 1
 50 462 l 1
 50 582 l 1
 178 710 l 1
 467 710 l 1
 595 582 l 1
 595 450 l 1
 440 450 l 1
 440 525 l 1
 400 565 l 1
 245 565 l 1
 205 525 l 1
 205 462 l 1
 405 462 l 1
 405 377 l 1
 205 377 l 1
 205 333 l 1
 395 333 l 1
 395 248 l 1
 205 248 l 1
 205 185 l 1
 245 145 l 1
 407 145 l 1
 503 241 l 1
 609 135 l 1
 474 0 l 1
 178 0 l 1
 50 128 l 1
 50 248 l 1
 0 248 l 1
 0 333 l 1
 50 333 l 1
 50 377 l 1
 10 377 l 1
EndSplineSet
EndChar

StartChar: currency
Encoding: 164 164 209
Width: 634
GlyphClass: 1
Flags: MW
HStem: -20 20G 195 95<0 40 0 40 195 343> 322 95<0 40 0 40 195 380> 565 145<195 394 195 195>
VStem: 40 155<0 195 0 195 290 322 0 322 417 565> 430 155<453 529 529 529>
LayerCount: 2
Fore
SplineSet
394 565 m 1
 195 565 l 1
 195 417 l 1
 380 417 l 1
 430 453 l 1
 430 529 l 1
 394 565 l 1
456 290 m 1
 520 141 l 1
 609 113 l 1
 567 -20 l 1
 414 28 l 1
 343 195 l 1
 195 195 l 1
 195 0 l 1
 40 0 l 1
 40 195 l 1
 0 195 l 1
 0 290 l 1
 40 290 l 1
 40 322 l 1
 0 322 l 1
 0 417 l 1
 40 417 l 1
 40 710 l 1
 474 710 l 1
 585 600 l 1
 585 402 l 1
 474 322 l 1
 195 322 l 1
 195 290 l 1
 456 290 l 1
EndSplineSet
EndChar

StartChar: asciitilde
Encoding: 126 126 210
Width: 667
GlyphClass: 1
Flags: MW
HStem: 208 21G<162 303 162 162> 461 20G<364 505 505 505>
LayerCount: 2
Fore
SplineSet
505 481 m 1
 647 340 l 1
 542 234 l 1
 439 336 l 1
 431 336 l 1
 303 208 l 1
 162 208 l 1
 20 349 l 1
 125 455 l 1
 228 353 l 1
 236 353 l 1
 364 481 l 1
 505 481 l 1
EndSplineSet
EndChar

StartChar: logicalnot
Encoding: 172 172 211
Width: 445
GlyphClass: 1
Flags: MW
HStem: 177 235<269 269 269 425> 277 135<20 269 20 425>
VStem: 269 156<177 277 277 277>
LayerCount: 2
Fore
SplineSet
269 177 m 1xa0
 269 277 l 1
 20 277 l 1x60
 20 412 l 1
 425 412 l 1
 425 177 l 1
 269 177 l 1xa0
EndSplineSet
EndChar

StartChar: quotedblright
Encoding: 8221 8221 212
Width: 420
GlyphClass: 1
Flags: MW
HStem: 420 21G<10 10 10 115 210 315 210 210> 690 20G<75 220 220 220 275 420 420 420>
LayerCount: 2
Fore
SplineSet
10 420 m 1
 75 710 l 1
 220 710 l 1
 115 420 l 1
 10 420 l 1
210 420 m 1
 275 710 l 1
 420 710 l 1
 315 420 l 1
 210 420 l 1
EndSplineSet
EndChar

StartChar: quotedblleft
Encoding: 8220 8220 213
Width: 420
GlyphClass: 1
Flags: MW
HStem: 420 21G<0 145 0 0 200 345 200 200> 690 20G<105 210 210 210 305 410 410 410>
LayerCount: 2
Fore
SplineSet
410 710 m 1
 345 420 l 1
 200 420 l 1
 305 710 l 1
 410 710 l 1
210 710 m 1
 145 420 l 1
 0 420 l 1
 105 710 l 1
 210 710 l 1
EndSplineSet
EndChar

StartChar: quoteleft
Encoding: 8216 8216 214
Width: 220
GlyphClass: 1
Flags: MW
HStem: 420 21G<0 145 0 0> 690 20G<105 210 210 210>
LayerCount: 2
Fore
SplineSet
210 710 m 1
 145 420 l 1
 0 420 l 1
 105 710 l 1
 210 710 l 1
EndSplineSet
EndChar

StartChar: quoteright
Encoding: 8217 8217 215
Width: 220
GlyphClass: 1
Flags: MW
HStem: 420 21G<10 10 10 115> 690 20G<75 220 220 220>
LayerCount: 2
Fore
SplineSet
10 420 m 1
 75 710 l 1
 220 710 l 1
 115 420 l 1
 10 420 l 1
EndSplineSet
EndChar

StartChar: quotesinglbase
Encoding: 8218 8218 216
Width: 220
GlyphClass: 1
Flags: MW
HStem: -180 21G<10 10 10 115> 90 20G<75 220 220 220>
LayerCount: 2
Fore
SplineSet
10 -180 m 1
 75 110 l 1
 220 110 l 1
 115 -180 l 1
 10 -180 l 1
EndSplineSet
EndChar

StartChar: quotedblbase
Encoding: 8222 8222 217
Width: 420
GlyphClass: 1
Flags: MW
HStem: -180 21G<10 10 10 115 210 315 210 210> 90 20G<75 220 220 220 275 420 420 420>
LayerCount: 2
Fore
SplineSet
10 -180 m 1
 75 110 l 1
 220 110 l 1
 115 -180 l 1
 10 -180 l 1
210 -180 m 1
 275 110 l 1
 420 110 l 1
 315 -180 l 1
 210 -180 l 1
EndSplineSet
EndChar

StartChar: bullet
Encoding: 8226 8226 218
Width: 420
GlyphClass: 1
Flags: MW
HStem: 190 21G<137 283 137 137> 500 20G<137 283 283 283>
LayerCount: 2
Fore
SplineSet
137 520 m 1
 283 520 l 1
 380 423 l 1
 380 287 l 1
 283 190 l 1
 137 190 l 1
 40 287 l 1
 40 423 l 1
 137 520 l 1
EndSplineSet
EndChar

StartChar: periodcentered
Encoding: 183 183 219
Width: 330
GlyphClass: 1
Flags: MW
HStem: 271 169<122 203 122 208 122 203>
VStem: 80 170<313 398 313 398>
LayerCount: 2
Fore
SplineSet
80 313 m 1
 80 398 l 1
 122 440 l 1
 203 440 l 1
 250 398 l 1
 250 313 l 1
 208 271 l 1
 122 271 l 1
 80 313 l 1
EndSplineSet
EndChar

StartChar: uni00A0
Encoding: 160 160 220
Width: 2345
GlyphClass: 1
Flags: MW
HStem: -20 20G<20 340 20 20 340 660 340 340 670 670 670 830 830 830 830 990 1380 1665 1380 1380 1700 1700 1700 2020> -10 21G<1137.5 1232.5 2030 2077.5> 665 20G<632.5 727.5>
VStem: 670 180<0 562.5 320 562.5> 2030 170<112.5 207.5 112.5 330 112.5 330>
LayerCount: 2
Fore
SplineSet
1355 160 m 0x78
 1355 65 1280 -10 1185 -10 c 0
 1090 -10 1015 65 1015 160 c 0
 1015 255 1090 330 1185 330 c 0
 1280 330 1355 255 1355 160 c 0x78
340 0 m 1xb8
 20 0 l 1
 20 320 l 1
 340 0 l 1xb8
2020 0 m 1
 1700 0 l 1
 1860 320 l 1
 2020 0 l 1
2200 160 m 0
 2200 65 2125 -10 2030 -10 c 1x78
 2030 330 l 1
 2125 330 2200 255 2200 160 c 0
1690 320 m 1
 1690 25 l 1
 1405 320 l 1
 1690 320 l 1
1380 0 m 1xb8
 1380 295 l 1
 1665 0 l 1
 1380 0 l 1xb8
670 320 m 1
 830 0 l 1
 670 0 l 1
 670 320 l 1
990 320 m 1
 990 0 l 1
 830 0 l 1
 990 320 l 1
340 0 m 1
 340 160 l 1
 660 0 l 1
 340 0 l 1
340 320 m 1
 660 320 l 1
 340 160 l 1
 340 320 l 1
485 355 m 1
 165 355 l 1
 485 675 l 1
 485 355 l 1
850 515 m 0
 850 420 775 345 680 345 c 0
 585 345 510 420 510 515 c 0
 510 610 585 685 680 685 c 0
 775 685 850 610 850 515 c 0
820 675 m 1
 1140 675 l 1
 980 355 l 1
 820 675 l 1
1345 355 m 1
 1025 355 l 1
 1185 675 l 1
 1345 355 l 1
1665 675 m 1
 1665 380 l 1
 1380 675 l 1
 1665 675 l 1
1355 355 m 1
 1355 650 l 1
 1640 355 l 1
 1355 355 l 1
2015 675 m 1
 2015 380 l 1
 1730 675 l 1
 2015 675 l 1
1705 355 m 1
 1705 650 l 1
 1990 355 l 1
 1705 355 l 1
2025 675 m 1
 2345 675 l 1
 2185 355 l 1
 2025 675 l 1
EndSplineSet
EndChar

StartChar: plusminus
Encoding: 177 177 221
Width: 520
GlyphClass: 1
Flags: MW
HStem: 30 115<30 490 30 490> 305 135<20 188 20 188 332 500> 560 20G<188 332 332 332>
VStem: 188 144<165 305 165 305 440 580>
LayerCount: 2
Fore
SplineSet
188 580 m 1
 332 580 l 1
 332 440 l 1
 500 440 l 1
 500 305 l 1
 332 305 l 1
 332 165 l 1
 188 165 l 1
 188 305 l 1
 20 305 l 1
 20 440 l 1
 188 440 l 1
 188 580 l 1
30 30 m 1
 30 145 l 1
 490 145 l 1
 490 30 l 1
 30 30 l 1
EndSplineSet
EndChar

StartChar: odieresis
Encoding: 246 246 222
Width: 587
GlyphClass: 1
Flags: MW
HStem: 0 145<224 363 224 430 157 363> 398 145<224 363 224 224> 595 159<150 221 150 226 150 221 150 362 362 433>
VStem: 50 155<164 379 164 435 164 435> 108 160<637 712 637 712> 320 160<637 712 637 712> 382 155<164 379 379 379>
LayerCount: 2
Fore
SplineSet
537 108 m 1xf2
 430 0 l 1
 157 0 l 1
 50 108 l 1
 50 435 l 1
 157 543 l 1
 430 543 l 1
 537 435 l 1
 537 108 l 1xf2
224 145 m 1
 363 145 l 1
 382 164 l 1
 382 379 l 1
 363 398 l 1
 224 398 l 1
 205 379 l 1
 205 164 l 1
 224 145 l 1
108 637 m 1xec
 108 712 l 1
 150 754 l 1
 221 754 l 1
 268 712 l 1
 268 637 l 1
 226 595 l 1
 150 595 l 1
 108 637 l 1xec
320 637 m 1
 320 712 l 1
 362 754 l 1
 433 754 l 1
 480 712 l 1
 480 637 l 1
 438 595 l 1
 362 595 l 1
 320 637 l 1
EndSplineSet
EndChar

StartChar: udieresis
Encoding: 252 252 223
Width: 599
GlyphClass: 1
Flags: MW
HStem: -15 21G<446 446> 0 145<224 333 224 373 158 333> 595 159<147 218 147 223 147 218 147 359 359 430>
VStem: 50 155<164 543 164 543 164 543> 105 160<637 712 637 712> 317 160<637 712 637 712> 378 155<197 543 169 543>
LayerCount: 2
Fore
SplineSet
50 107 m 1x74
 50 543 l 1
 205 543 l 1
 205 164 l 1
 224 145 l 1
 333 145 l 1x74
 378 197 l 1
 378 543 l 1
 533 543 l 1
 533 169 l 1
 569 13 l 1
 446 -15 l 1xb2
 428 63 l 1
 373 0 l 1
 158 0 l 1
 50 107 l 1x74
105 637 m 1x6c
 105 712 l 1
 147 754 l 1
 218 754 l 1
 265 712 l 1
 265 637 l 1
 223 595 l 1
 147 595 l 1
 105 637 l 1x6c
317 637 m 1
 317 712 l 1
 359 754 l 1
 430 754 l 1
 477 712 l 1
 477 637 l 1
 435 595 l 1
 359 595 l 1
 317 637 l 1
EndSplineSet
EndChar

StartChar: Odieresis
Encoding: 214 214 224
Width: 675
GlyphClass: 1
Flags: MW
HStem: 0 145<251 424 251 486 189 424> 565 145<251 424 251 251> 766 159<195 266 195 271 195 266 195 405 405 476>
VStem: 50 155<187 523 187 584 187 584> 153 160<808 883 808 883> 363 160<808 883 808 883> 470 155<187 523 523 523>
LayerCount: 2
Fore
SplineSet
189 710 m 1xf2
 486 710 l 1
 625 584 l 1
 625 126 l 1
 486 0 l 1
 189 0 l 1
 50 126 l 1
 50 584 l 1
 189 710 l 1xf2
470 523 m 1
 424 565 l 1
 251 565 l 1
 205 523 l 1
 205 187 l 1
 251 145 l 1
 424 145 l 1
 470 187 l 1
 470 523 l 1
153 808 m 1xec
 153 883 l 1
 195 925 l 1
 266 925 l 1
 313 883 l 1
 313 808 l 1
 271 766 l 1
 195 766 l 1
 153 808 l 1xec
363 808 m 1
 363 883 l 1
 405 925 l 1
 476 925 l 1
 523 883 l 1
 523 808 l 1
 481 766 l 1
 405 766 l 1
 363 808 l 1
EndSplineSet
EndChar

StartChar: Udieresis
Encoding: 220 220 225
Width: 645
GlyphClass: 1
Flags: MW
HStem: 0 145<178 400 245 400 245 467> 766 159<180 251 180 256 180 251 180 390 390 461>
VStem: 50 155<185 710 185 710 185 710> 138 160<808 883 808 883> 348 160<808 883 808 883> 440 155<185 710 127 710>
LayerCount: 2
Fore
SplineSet
178 0 m 1xe4
 50 127 l 1
 50 710 l 1
 205 710 l 1
 205 185 l 1
 245 145 l 1
 400 145 l 1
 440 185 l 1
 440 710 l 1
 595 710 l 1
 595 127 l 1
 467 0 l 1
 178 0 l 1xe4
138 808 m 1xd8
 138 883 l 1
 180 925 l 1
 251 925 l 1
 298 883 l 1
 298 808 l 1
 256 766 l 1
 180 766 l 1
 138 808 l 1xd8
348 808 m 1
 348 883 l 1
 390 925 l 1
 461 925 l 1
 508 883 l 1
 508 808 l 1
 466 766 l 1
 390 766 l 1
 348 808 l 1
EndSplineSet
EndChar

StartChar: edieresis
Encoding: 235 235 226
Width: 569
GlyphClass: 1
Flags: MW
HStem: 0 135<224 373 224 392 158 373> 200 125<205 363 205 434 205 363> 418 125<224 224 224 358> 595 159<147 218 147 223 147 218 147 359 359 430>
VStem: 50 155<154 200 154 325 325 399> 105 160<637 712 637 712> 317 160<637 712 637 712> 377 155<339 399 399 399>
LayerCount: 2
Fore
SplineSet
373 135 m 1xf9
 498 175 l 1
 539 46 l 1
 392 0 l 1
 158 0 l 1
 50 107 l 1
 50 436 l 1
 158 543 l 1
 424 543 l 1
 532 436 l 1
 532 297 l 1
 434 200 l 1
 205 200 l 1
 205 154 l 1
 224 135 l 1
 373 135 l 1xf9
224 418 m 1
 205 399 l 1
 205 325 l 1
 363 325 l 1
 377 339 l 1
 377 399 l 1
 358 418 l 1
 224 418 l 1
105 637 m 1xf6
 105 712 l 1
 147 754 l 1
 218 754 l 1
 265 712 l 1
 265 637 l 1
 223 595 l 1
 147 595 l 1
 105 637 l 1xf6
317 637 m 1
 317 712 l 1
 359 754 l 1
 430 754 l 1
 477 712 l 1
 477 637 l 1
 435 595 l 1
 359 595 l 1
 317 637 l 1
EndSplineSet
EndChar

StartChar: Edieresis
Encoding: 203 203 227
Width: 573
GlyphClass: 1
Flags: MW
HStem: 0 145<215 553 215 553> 298 145<215 511 215 511> 565 145<215 553 215 215> 766 159<168 239 168 244 168 239 168 378 378 449>
VStem: 60 155<145 298 443 565> 126 160<808 883 808 883> 336 160<808 883 808 883>
LayerCount: 2
Fore
SplineSet
60 0 m 1xfa
 60 710 l 1
 553 710 l 1
 553 565 l 1
 215 565 l 1
 215 443 l 1
 511 443 l 1
 511 298 l 1
 215 298 l 1
 215 145 l 1
 553 145 l 1
 553 0 l 1
 60 0 l 1xfa
126 808 m 1xf6
 126 883 l 1
 168 925 l 1
 239 925 l 1
 286 883 l 1
 286 808 l 1
 244 766 l 1
 168 766 l 1
 126 808 l 1xf6
336 808 m 1
 336 883 l 1
 378 925 l 1
 449 925 l 1
 496 883 l 1
 496 808 l 1
 454 766 l 1
 378 766 l 1
 336 808 l 1
EndSplineSet
EndChar

StartChar: Tcommaaccent
Encoding: 354 354 228
Width: 565
GlyphClass: 1
Flags: MW
HStem: -330 21G<155 155 155 260> -20 20G<205 360 205 205> 565 145<10 205 10 555 360 555 360 360>
VStem: 205 155<0 565 0 565>
LayerCount: 2
Fore
SplineSet
360 565 m 1
 360 0 l 1
 205 0 l 1
 205 565 l 1
 10 565 l 1
 10 710 l 1
 555 710 l 1
 555 565 l 1
 360 565 l 1
155 -330 m 1
 220 -40 l 1
 365 -40 l 1
 260 -330 l 1
 155 -330 l 1
EndSplineSet
EndChar

StartChar: tcommaaccent
Encoding: 355 355 229
Width: 518
GlyphClass: 1
Flags: MW
HStem: -330 21G<170 170 170 275> -20 20G<227 368 227 227> 378 145<30 120 30 120 275 410> 660 20G<120 275 275 275>
VStem: 120 155<169 378 523 680>
LayerCount: 2
Fore
SplineSet
120 378 m 1
 30 378 l 1
 30 523 l 1
 120 523 l 1
 120 680 l 1
 275 680 l 1
 275 523 l 1
 410 523 l 1
 410 378 l 1
 275 378 l 1
 275 169 l 1
 299 145 l 1
 351 145 l 1
 387 156 440 173 475 184 c 1
 518 47 l 1
 368 0 l 1
 227 0 l 1
 120 107 l 1
 120 378 l 1
170 -330 m 1
 235 -40 l 1
 380 -40 l 1
 275 -330 l 1
 170 -330 l 1
EndSplineSet
EndChar

StartChar: adieresis
Encoding: 228 228 230
Width: 579
GlyphClass: 1
Flags: MW
HStem: -15 21G<426 426> 0 125<204 313 204 353 138 313> 219 125<204 358 204 204> 408 135<201 339 201 201> 595 159<147 218 147 223 147 218 147 359 359 430>
VStem: 105 160<637 712 637 712> 317 160<637 712 637 712> 358 155<177 219 219 219 344 389 389 389>
LayerCount: 2
Fore
SplineSet
513 169 m 1x7d
 549 13 l 1
 426 -15 l 1xbd
 408 63 l 1
 353 0 l 1
 138 0 l 1
 30 107 l 1
 30 237 l 1
 138 344 l 1
 358 344 l 1
 358 389 l 1
 339 408 l 1
 201 408 l 1
 76 368 l 1
 35 497 l 1
 182 543 l 1
 405 543 l 1
 513 436 l 1
 513 169 l 1x7d
358 177 m 1
 358 219 l 1
 204 219 l 1
 185 200 l 1
 185 144 l 1
 204 125 l 1
 313 125 l 1x7d
 358 177 l 1
105 637 m 1
 105 712 l 1
 147 754 l 1
 218 754 l 1
 265 712 l 1
 265 637 l 1
 223 595 l 1
 147 595 l 1
 105 637 l 1
317 637 m 1x7e
 317 712 l 1
 359 754 l 1
 430 754 l 1
 477 712 l 1
 477 637 l 1
 435 595 l 1
 359 595 l 1
 317 637 l 1x7e
EndSplineSet
EndChar

StartChar: Adieresis
Encoding: 196 196 231
Width: 620
GlyphClass: 1
Flags: MW
HStem: -20 21G<146 146 474 474> 139 135<239 381 239 420 195 381> 766 159<168 239 168 244 168 239 168 378 378 449>
VStem: 126 160<808 883 808 883> 336 160<808 883 808 883>
LayerCount: 2
Fore
SplineSet
126 808 m 1
 126 883 l 1
 168 925 l 1
 239 925 l 1
 286 883 l 1
 286 808 l 1
 244 766 l 1
 168 766 l 1
 126 808 l 1
336 808 m 1
 336 883 l 1
 378 925 l 1
 449 925 l 1
 496 883 l 1
 496 808 l 1
 454 766 l 1
 378 766 l 1
 336 808 l 1
229 710 m 1
 391 710 l 1
 620 29 l 1
 474 -20 l 1
 420 139 l 1
 195 139 l 1
 146 -20 l 1
 0 29 l 1
 229 710 l 1
381 274 m 1
 325 440 l 1
 312 514 l 1
 308 514 l 1
 295 440 l 1
 239 274 l 1
 381 274 l 1
EndSplineSet
EndChar

StartChar: Scommaaccent
Encoding: 536 536 232
Width: 600
GlyphClass: 1
Flags: MW
HStem: -330 21G<170 170 170 275> 0 145<203 376 203 438 174 376> 565 145<225 397 225 225>
LayerCount: 2
Fore
SplineSet
36 448 m 1
 36 583 l 1
 163 710 l 1
 426 710 l 1
 570 661 l 1
 523 522 l 1
 397 565 l 1
 225 565 l 1
 191 531 l 1
 191 506 l 1
 204 479 l 1
 523 341 l 1
 565 262 l 1
 565 127 l 1
 438 0 l 1
 174 0 l 1
 30 49 l 1
 77 188 l 1
 203 145 l 1
 376 145 l 1
 410 179 l 1
 410 204 l 1
 397 231 l 1
 78 369 l 1
 36 448 l 1
170 -330 m 1
 235 -40 l 1
 380 -40 l 1
 275 -330 l 1
 170 -330 l 1
EndSplineSet
EndChar

StartChar: scommaaccent
Encoding: 537 537 233
Width: 525
GlyphClass: 1
Flags: MW
HStem: -330 21G<144 144 144 249> 0 135<193 321 193 389 165 321> 408 135<203 332 203 203>
LayerCount: 2
Fore
SplineSet
183 374 m 1
 191 363 l 1
 451 300 l 1
 496 226 l 1
 496 107 l 1
 389 0 l 1
 165 0 l 1
 20 48 l 1
 63 178 l 1
 193 135 l 1
 321 135 l 1
 341 155 l 1
 341 170 l 1
 333 182 l 1
 73 245 l 1
 28 319 l 1
 28 436 l 1
 135 543 l 1
 360 543 l 1
 505 495 l 1
 462 365 l 1
 332 408 l 1
 203 408 l 1
 183 388 l 1
 183 374 l 1
144 -330 m 1
 209 -40 l 1
 354 -40 l 1
 249 -330 l 1
 144 -330 l 1
EndSplineSet
EndChar

StartChar: zdotaccent
Encoding: 380 380 234
Width: 506
GlyphClass: 1
Flags: MW
HStem: 0 135<245 482 245 482> 408 135<24 261 24 486> 585 159<217 288 217 293 217 288>
VStem: 175 160<627 702 627 702>
LayerCount: 2
Fore
SplineSet
261 408 m 1
 24 408 l 1
 24 543 l 1
 486 543 l 1
 486 425 l 1
 243 146 l 1
 208 121 l 1
 210 118 l 1
 245 135 l 1
 482 135 l 1
 482 0 l 1
 20 0 l 1
 20 117 l 1
 263 397 l 1
 298 422 l 1
 296 425 l 1
 261 408 l 1
175 627 m 1
 175 702 l 1
 217 744 l 1
 288 744 l 1
 335 702 l 1
 335 627 l 1
 293 585 l 1
 217 585 l 1
 175 627 l 1
EndSplineSet
EndChar

StartChar: Zdotaccent
Encoding: 379 379 235
Width: 585
GlyphClass: 1
Flags: MW
HStem: 0 145<244 552 244 552> 565 145<33 341 33 560> 766 159<258 329 258 334 258 329>
VStem: 216 160<808 883>
LayerCount: 2
Fore
SplineSet
341 565 m 1
 33 565 l 1
 33 710 l 1
 560 710 l 1
 560 595 l 1
 242 156 l 1
 207 131 l 1
 209 128 l 1
 244 145 l 1
 552 145 l 1
 552 0 l 1
 25 0 l 1
 25 113 l 1
 343 554 l 1
 378 579 l 1
 376 582 l 1
 341 565 l 1
216 808 m 1
 216 883 l 1
 258 925 l 1
 329 925 l 1
 376 883 l 1
 376 808 l 1
 334 766 l 1
 258 766 l 1
 216 808 l 1
EndSplineSet
EndChar

StartChar: Abreve
Encoding: 258 258 236
Width: 620
GlyphClass: 1
Flags: MW
HStem: -20 21G<146 146 474 474> 139 135<239 381 239 420 195 381> 765 130<260 360 260 417 203 360> 765 209<203 242 378 417 203 203>
VStem: 117 125<913 974 913 974 913 974> 378 125<913 974 850 974>
LayerCount: 2
Fore
SplineSet
503 850 m 1xdc
 417 765 l 1
 203 765 l 1
 117 850 l 1
 117 974 l 1
 242 974 l 1xdc
 242 913 l 1
 260 895 l 1
 360 895 l 1xec
 378 913 l 1
 378 974 l 1
 503 974 l 1
 503 850 l 1xdc
229 710 m 1
 391 710 l 1
 620 29 l 1
 474 -20 l 1
 420 139 l 1
 195 139 l 1
 146 -20 l 1
 0 29 l 1
 229 710 l 1
381 274 m 1
 325 440 l 1
 312 514 l 1
 308 514 l 1
 295 440 l 1
 239 274 l 1
 381 274 l 1
EndSplineSet
EndChar

StartChar: abreve
Encoding: 259 259 237
Width: 579
GlyphClass: 1
Flags: MW
HStem: -15 21G<426 426> 0 125<204 313 204 353 138 313> 219 125<204 358 204 204> 408 135<201 339 201 201> 618 120<243 344 243 408 179 344> 618 180<179 228 359 408 179 179>
VStem: 358 126 358 155<177 219 219 219 344 389 389 389>
LayerCount: 2
Fore
SplineSet
513 169 m 1x79
 549 13 l 1
 426 -15 l 1xba
 408 63 l 1
 353 0 l 1
 138 0 l 1
 30 107 l 1
 30 237 l 1
 138 344 l 1
 358 344 l 1
 358 389 l 1
 339 408 l 1
 201 408 l 1
 76 368 l 1
 35 497 l 1
 182 543 l 1
 405 543 l 1
 513 436 l 1
 513 169 l 1x79
358 177 m 1
 358 219 l 1
 204 219 l 1
 185 200 l 1
 185 144 l 1
 204 125 l 1
 313 125 l 1x76
 358 177 l 1
408 618 m 1
 179 618 l 1
 103 693 l 1
 103 798 l 1
 228 798 l 1x76
 228 753 l 1
 243 738 l 1
 344 738 l 1x7a
 359 753 l 1
 359 798 l 1
 484 798 l 1
 484 693 l 1
 408 618 l 1
EndSplineSet
EndChar

StartChar: Dcroat
Encoding: 272 272 238
Width: 656
GlyphClass: 1
Flags: MW
HStem: 0 145<215 411 215 478> 295 120<-30 60 -30 60 215 350> 565 145<215 411 215 215>
VStem: 60 155<145 295 145 295 145 295 415 565> 451 155<185 525 525 525>
CounterMasks: 1 e0
LayerCount: 2
Fore
SplineSet
451 525 m 1
 411 565 l 1
 215 565 l 1
 215 415 l 1
 350 415 l 1
 350 295 l 1
 215 295 l 1
 215 145 l 1
 411 145 l 1
 451 185 l 1
 451 525 l 1
-30 415 m 1
 60 415 l 1
 60 710 l 1
 478 710 l 1
 606 581 l 1
 606 129 l 1
 478 0 l 1
 60 0 l 1
 60 295 l 1
 -30 295 l 1
 -30 415 l 1
EndSplineSet
EndChar

StartChar: dcroat
Encoding: 273 273 239
Width: 598
GlyphClass: 1
Flags: MW
HStem: -15 21G<445 445> 0 145<224 332 224 372 158 332> 308 145<224 327 224 224> 490 120<242 377 242 377 532 622> 690 20G<377 532 532 532>
VStem: 50 155<164 289 164 346 164 346> 377 155<197 271 271 271 416 490 169 490 610 710>
LayerCount: 2
Fore
SplineSet
242 610 m 1x7e
 377 610 l 1
 377 710 l 1
 532 710 l 1
 532 610 l 1
 622 610 l 1
 622 490 l 1
 532 490 l 1
 532 169 l 1
 568 13 l 1
 445 -15 l 1xbe
 427 63 l 1
 372 0 l 1
 158 0 l 1
 50 107 l 1
 50 346 l 1
 158 453 l 1
 327 453 l 1
 377 416 l 1
 377 490 l 1
 242 490 l 1
 242 610 l 1x7e
332 145 m 1x7e
 377 197 l 1
 377 271 l 1
 327 308 l 1
 224 308 l 1
 205 289 l 1
 205 164 l 1
 224 145 l 1
 332 145 l 1x7e
EndSplineSet
EndChar

StartChar: Sacute
Encoding: 346 346 240
Width: 600
GlyphClass: 1
Flags: MW
HStem: 0 145<203 376 203 438 174 376> 565 145<225 397 225 225> 750 210<208 496 337 348>
LayerCount: 2
Fore
SplineSet
36 448 m 1
 36 583 l 1
 163 710 l 1
 426 710 l 1
 570 661 l 1
 523 522 l 1
 397 565 l 1
 225 565 l 1
 191 531 l 1
 191 506 l 1
 204 479 l 1
 523 341 l 1
 565 262 l 1
 565 127 l 1
 438 0 l 1
 174 0 l 1
 30 49 l 1
 77 188 l 1
 203 145 l 1
 376 145 l 1
 410 179 l 1
 410 204 l 1
 397 231 l 1
 78 369 l 1
 36 448 l 1
208 750 m 1
 337 960 l 1
 496 960 l 1
 348 750 l 1
 208 750 l 1
EndSplineSet
EndChar

StartChar: Zacute
Encoding: 377 377 241
Width: 585
GlyphClass: 1
Flags: MW
HStem: 0 145<244 552 244 552> 565 145<33 341 33 560> 750 210<213 501 342 353>
LayerCount: 2
Fore
SplineSet
341 565 m 1
 33 565 l 1
 33 710 l 1
 560 710 l 1
 560 595 l 1
 242 156 l 1
 207 131 l 1
 209 128 l 1
 244 145 l 1
 552 145 l 1
 552 0 l 1
 25 0 l 1
 25 113 l 1
 343 554 l 1
 378 579 l 1
 376 582 l 1
 341 565 l 1
213 750 m 1
 342 960 l 1
 501 960 l 1
 353 750 l 1
 213 750 l 1
EndSplineSet
EndChar

StartChar: sacute
Encoding: 347 347 242
Width: 525
GlyphClass: 1
Flags: MW
HStem: 0 135<193 321 193 389 165 321> 408 135<203 332 203 203> 583 210<179 467 308 319>
LayerCount: 2
Fore
SplineSet
183 374 m 1
 191 363 l 1
 451 300 l 1
 496 226 l 1
 496 107 l 1
 389 0 l 1
 165 0 l 1
 20 48 l 1
 63 178 l 1
 193 135 l 1
 321 135 l 1
 341 155 l 1
 341 170 l 1
 333 182 l 1
 73 245 l 1
 28 319 l 1
 28 436 l 1
 135 543 l 1
 360 543 l 1
 505 495 l 1
 462 365 l 1
 332 408 l 1
 203 408 l 1
 183 388 l 1
 183 374 l 1
179 583 m 1
 308 793 l 1
 467 793 l 1
 319 583 l 1
 179 583 l 1
EndSplineSet
EndChar

StartChar: zacute
Encoding: 378 378 243
Width: 506
GlyphClass: 1
Flags: MW
HStem: 0 135<245 482 245 482> 408 135<24 261 24 486> 583 210<179 467 308 319>
LayerCount: 2
Fore
SplineSet
261 408 m 1
 24 408 l 1
 24 543 l 1
 486 543 l 1
 486 425 l 1
 243 146 l 1
 208 121 l 1
 210 118 l 1
 245 135 l 1
 482 135 l 1
 482 0 l 1
 20 0 l 1
 20 117 l 1
 263 397 l 1
 298 422 l 1
 296 425 l 1
 261 408 l 1
179 583 m 1
 308 793 l 1
 467 793 l 1
 319 583 l 1
 179 583 l 1
EndSplineSet
EndChar

StartChar: Racute
Encoding: 340 340 244
Width: 641
GlyphClass: 1
Flags: MW
HStem: -25 21G<510 510> -20 20G<60 215 60 60> 565 145<215 414 215 215> 750 210<226 514 355 366>
VStem: 60 155<0 264 409 565> 450 155<446 528 528 528>
LayerCount: 2
Fore
SplineSet
414 565 m 1x7c
 215 565 l 1
 215 409 l 1
 414 409 l 1
 450 446 l 1
 450 528 l 1
 414 565 l 1x7c
456 253 m 1
 621 84 l 1
 510 -25 l 1xbc
 228 264 l 1
 215 264 l 1
 215 0 l 1
 60 0 l 1
 60 710 l 1
 494 710 l 1
 605 600 l 1
 605 374 l 1
 494 264 l 1
 458 264 l 1
 423 281 l 1
 421 278 l 1
 456 253 l 1
226 750 m 1
 355 960 l 1
 514 960 l 1
 366 750 l 1
 226 750 l 1
EndSplineSet
EndChar

StartChar: Aacute
Encoding: 193 193 245
Width: 620
GlyphClass: 1
Flags: MW
HStem: -20 21G<146 146 474 474> 139 135<239 381 239 420 195 381> 750 210<240 528 369 380>
LayerCount: 2
Fore
SplineSet
240 750 m 1
 369 960 l 1
 528 960 l 1
 380 750 l 1
 240 750 l 1
229 710 m 1
 391 710 l 1
 620 29 l 1
 474 -20 l 1
 420 139 l 1
 195 139 l 1
 146 -20 l 1
 0 29 l 1
 229 710 l 1
381 274 m 1
 325 440 l 1
 312 514 l 1
 308 514 l 1
 295 440 l 1
 239 274 l 1
 381 274 l 1
EndSplineSet
EndChar

StartChar: Lacute
Encoding: 313 313 246
Width: 553
GlyphClass: 1
Flags: MW
HStem: 0 145<215 543 215 543> 750 210<68 356 197 208>
VStem: 60 155<145 710 145 710 145 710>
LayerCount: 2
Fore
SplineSet
60 0 m 1
 60 710 l 1
 215 710 l 1
 215 145 l 1
 543 145 l 1
 543 0 l 1
 60 0 l 1
68 750 m 1
 197 960 l 1
 356 960 l 1
 208 750 l 1
 68 750 l 1
EndSplineSet
EndChar

StartChar: Cacute
Encoding: 262 262 247
Width: 619
GlyphClass: 1
Flags: MW
HStem: 0 145<245 407 245 474 178 407> 565 145<245 400 245 245> 750 210<240 528 369 380>
VStem: 50 155<185 525 185 582 185 582> 440 155<450 525 525 525>
LayerCount: 2
Fore
SplineSet
407 145 m 1
 503 241 l 1
 609 135 l 1
 474 0 l 1
 178 0 l 1
 50 128 l 1
 50 582 l 1
 178 710 l 1
 467 710 l 1
 595 582 l 1
 595 450 l 1
 440 450 l 1
 440 525 l 1
 400 565 l 1
 245 565 l 1
 205 525 l 1
 205 185 l 1
 245 145 l 1
 407 145 l 1
240 750 m 1
 369 960 l 1
 528 960 l 1
 380 750 l 1
 240 750 l 1
EndSplineSet
EndChar

StartChar: Eacute
Encoding: 201 201 248
Width: 573
GlyphClass: 1
Flags: MW
HStem: 0 145<215 553 215 553> 298 145<215 511 215 511> 565 145<215 553 215 215> 750 210<219 507 348 359>
VStem: 60 155<145 298 443 565>
LayerCount: 2
Fore
SplineSet
60 0 m 1
 60 710 l 1
 553 710 l 1
 553 565 l 1
 215 565 l 1
 215 443 l 1
 511 443 l 1
 511 298 l 1
 215 298 l 1
 215 145 l 1
 553 145 l 1
 553 0 l 1
 60 0 l 1
219 750 m 1
 348 960 l 1
 507 960 l 1
 359 750 l 1
 219 750 l 1
EndSplineSet
EndChar

StartChar: Iacute
Encoding: 205 205 249
Width: 407
GlyphClass: 1
Flags: MW
HStem: 0 135<30 126 281 377 30 126> 575 135<30 126 30 377 281 281 281 377> 750 210<130 418 259 270>
VStem: 126 155<135 575 135 575>
LayerCount: 2
Fore
SplineSet
377 0 m 1
 30 0 l 1
 30 135 l 1
 126 135 l 1
 126 575 l 1
 30 575 l 1
 30 710 l 1
 377 710 l 1
 377 575 l 1
 281 575 l 1
 281 135 l 1
 377 135 l 1
 377 0 l 1
130 750 m 1
 259 960 l 1
 418 960 l 1
 270 750 l 1
 130 750 l 1
EndSplineSet
EndChar

StartChar: Nacute
Encoding: 323 323 250
Width: 666
GlyphClass: 1
Flags: MW
HStem: 0 21G<60 215 60 60 467 467 467 606> 740 210<244 532 373 384>
VStem: 60 155<0 372 0 710> 451 155<338 710 0 710>
LayerCount: 2
Fore
SplineSet
215 372 m 1
 215 0 l 1
 60 0 l 1
 60 710 l 1
 199 710 l 1
 432 337 l 1
 458 271 l 1
 462 271 l 1
 451 338 l 1
 451 710 l 1
 606 710 l 1
 606 0 l 1
 467 0 l 1
 234 373 l 1
 208 439 l 1
 204 439 l 1
 215 372 l 1
244 740 m 1
 373 950 l 1
 532 950 l 1
 384 740 l 1
 244 740 l 1
EndSplineSet
EndChar

StartChar: Oacute
Encoding: 211 211 251
Width: 675
GlyphClass: 1
Flags: MW
HStem: 0 145<251 424 251 486 189 424> 565 145<251 424 251 251> 750 210<254 542 383 394>
VStem: 50 155<187 523 187 584 187 584> 470 155<187 523 523 523>
LayerCount: 2
Fore
SplineSet
189 710 m 1
 486 710 l 1
 625 584 l 1
 625 126 l 1
 486 0 l 1
 189 0 l 1
 50 126 l 1
 50 584 l 1
 189 710 l 1
470 523 m 1
 424 565 l 1
 251 565 l 1
 205 523 l 1
 205 187 l 1
 251 145 l 1
 424 145 l 1
 470 187 l 1
 470 523 l 1
254 750 m 1
 383 960 l 1
 542 960 l 1
 394 750 l 1
 254 750 l 1
EndSplineSet
EndChar

StartChar: Uacute
Encoding: 218 218 252
Width: 645
GlyphClass: 1
Flags: MW
HStem: 0 145<178 400 245 400 245 467> 740 210<244 532 373 384>
VStem: 50 155<185 710 185 710 185 710> 440 155<185 710 127 710>
LayerCount: 2
Fore
SplineSet
178 0 m 1
 50 127 l 1
 50 710 l 1
 205 710 l 1
 205 185 l 1
 245 145 l 1
 400 145 l 1
 440 185 l 1
 440 710 l 1
 595 710 l 1
 595 127 l 1
 467 0 l 1
 178 0 l 1
244 740 m 1
 373 950 l 1
 532 950 l 1
 384 740 l 1
 244 740 l 1
EndSplineSet
EndChar

StartChar: Yacute
Encoding: 221 221 253
Width: 604
GlyphClass: 1
Flags: MW
HStem: 0 21G<224 379 224 224> 740 210<223 511 352 363>
VStem: 224 155<0 220 0 222 0 222>
LayerCount: 2
Fore
SplineSet
604 665 m 1
 379 220 l 1
 379 0 l 1
 224 0 l 1
 224 222 l 1
 0 665 l 1
 139 735 l 1
 288 440 l 1
 300 371 l 1
 304 371 l 1
 316 440 l 1
 465 735 l 1
 604 665 l 1
223 740 m 1
 352 950 l 1
 511 950 l 1
 363 740 l 1
 223 740 l 1
EndSplineSet
EndChar

StartChar: racute
Encoding: 341 341 254
Width: 520
GlyphClass: 1
Flags: MW
HStem: 0 21G<66 221 66 66> 398 145<266 266 266 351> 583 210<236 524 365 376>
VStem: 66 155<0 346 0 374 0 374>
LayerCount: 2
Fore
SplineSet
266 398 m 1
 221 346 l 1
 221 0 l 1
 66 0 l 1
 66 374 l 1
 30 530 l 1
 153 558 l 1
 171 480 l 1
 226 543 l 1
 414 543 l 1
 530 429 l 1
 427 324 l 1
 351 398 l 1
 266 398 l 1
236 583 m 1
 365 793 l 1
 524 793 l 1
 376 583 l 1
 236 583 l 1
EndSplineSet
EndChar

StartChar: aacute
Encoding: 225 225 255
Width: 579
GlyphClass: 1
Flags: MW
HStem: -15 21G<426 426> 0 125<204 313 204 353 138 313> 219 125<204 358 204 204> 408 135<201 339 201 201> 583 210<217 505 346 357>
VStem: 358 155<177 219 219 219 344 389 389 389>
LayerCount: 2
Fore
SplineSet
513 169 m 1x7c
 549 13 l 1
 426 -15 l 1xbc
 408 63 l 1
 353 0 l 1
 138 0 l 1
 30 107 l 1
 30 237 l 1
 138 344 l 1
 358 344 l 1
 358 389 l 1
 339 408 l 1
 201 408 l 1
 76 368 l 1
 35 497 l 1
 182 543 l 1
 405 543 l 1
 513 436 l 1
 513 169 l 1x7c
358 177 m 1
 358 219 l 1
 204 219 l 1
 185 200 l 1
 185 144 l 1
 204 125 l 1
 313 125 l 1x7c
 358 177 l 1
217 583 m 1
 346 793 l 1
 505 793 l 1
 357 583 l 1
 217 583 l 1
EndSplineSet
EndChar

StartChar: lacute
Encoding: 314 314 256
Width: 274
GlyphClass: 1
Flags: MW
HStem: 0 21G<69 224 69 69> 750 210<50 338 179 190>
VStem: 69 155<0 559 559 559>
LayerCount: 2
Fore
SplineSet
69 559 m 1
 30 678 l 1
 176 726 l 1
 224 580 l 1
 224 0 l 1
 69 0 l 1
 69 559 l 1
50 750 m 1
 179 960 l 1
 338 960 l 1
 190 750 l 1
 50 750 l 1
EndSplineSet
EndChar

StartChar: cacute
Encoding: 263 263 257
Width: 554
GlyphClass: 1
Flags: MW
HStem: 0 145<224 375 224 394 158 375> 325 218<377 424 158 532 377 377> 398 145<224 358 224 224> 583 210<219 507 348 359>
VStem: 50 155<164 379 164 436 164 436>
LayerCount: 2
Fore
SplineSet
375 145 m 1xb8
 500 185 l 1
 544 47 l 1
 394 0 l 1
 158 0 l 1
 50 107 l 1
 50 436 l 1
 158 543 l 1
 424 543 l 1
 532 436 l 1
 532 325 l 1
 377 325 l 1xd8
 377 379 l 1
 358 398 l 1
 224 398 l 1
 205 379 l 1
 205 164 l 1
 224 145 l 1
 375 145 l 1xb8
219 583 m 1
 348 793 l 1
 507 793 l 1
 359 583 l 1
 219 583 l 1
EndSplineSet
EndChar

StartChar: eacute
Encoding: 233 233 258
Width: 569
GlyphClass: 1
Flags: MW
HStem: 0 135<224 373 224 392 158 373> 200 125<205 363 205 434 205 363> 418 125<224 224 224 358> 583 210<219 507 348 359>
VStem: 50 155<154 200 154 325 325 399> 377 155<339 399 399 399>
LayerCount: 2
Fore
SplineSet
373 135 m 1
 498 175 l 1
 539 46 l 1
 392 0 l 1
 158 0 l 1
 50 107 l 1
 50 436 l 1
 158 543 l 1
 424 543 l 1
 532 436 l 1
 532 297 l 1
 434 200 l 1
 205 200 l 1
 205 154 l 1
 224 135 l 1
 373 135 l 1
224 418 m 1
 205 399 l 1
 205 325 l 1
 363 325 l 1
 377 339 l 1
 377 399 l 1
 358 418 l 1
 224 418 l 1
219 583 m 1
 348 793 l 1
 507 793 l 1
 359 583 l 1
 219 583 l 1
EndSplineSet
EndChar

StartChar: iacute
Encoding: 237 237 259
Width: 277
GlyphClass: 1
Flags: MW
HStem: 0 21G<69 224 69 69> 583 210<50 338 179 190>
VStem: 69 155<0 381 381 381>
LayerCount: 2
Fore
SplineSet
69 381 m 1
 30 500 l 1
 176 548 l 1
 224 402 l 1
 224 0 l 1
 69 0 l 1
 69 381 l 1
50 583 m 1
 179 793 l 1
 338 793 l 1
 190 583 l 1
 50 583 l 1
EndSplineSet
EndChar

StartChar: nacute
Encoding: 324 324 260
Width: 599
GlyphClass: 1
Flags: MW
HStem: 0 21G<66 221 66 66 394 549 394 394> 398 145<266 375 266 266> 583 210<241 529 370 381>
VStem: 66 155<0 346 0 374 0 374> 394 155<0 379 379 379>
LayerCount: 2
Fore
SplineSet
549 436 m 1
 549 0 l 1
 394 0 l 1
 394 379 l 1
 375 398 l 1
 266 398 l 1
 221 346 l 1
 221 0 l 1
 66 0 l 1
 66 374 l 1
 30 530 l 1
 153 558 l 1
 171 480 l 1
 226 543 l 1
 441 543 l 1
 549 436 l 1
241 583 m 1
 370 793 l 1
 529 793 l 1
 381 583 l 1
 241 583 l 1
EndSplineSet
EndChar

StartChar: oacute
Encoding: 243 243 261
Width: 587
GlyphClass: 1
Flags: MW
HStem: 0 145<224 363 224 430 157 363> 398 145<224 363 224 224> 583 210<221 509 350 361>
VStem: 50 155<164 379 164 435 164 435> 382 155<164 379 379 379>
LayerCount: 2
Fore
SplineSet
537 108 m 1
 430 0 l 1
 157 0 l 1
 50 108 l 1
 50 435 l 1
 157 543 l 1
 430 543 l 1
 537 435 l 1
 537 108 l 1
224 145 m 1
 363 145 l 1
 382 164 l 1
 382 379 l 1
 363 398 l 1
 224 398 l 1
 205 379 l 1
 205 164 l 1
 224 145 l 1
221 583 m 1
 350 793 l 1
 509 793 l 1
 361 583 l 1
 221 583 l 1
EndSplineSet
EndChar

StartChar: uacute
Encoding: 250 250 262
Width: 599
GlyphClass: 1
Flags: MW
HStem: -15 21G<446 446> 0 145<224 333 224 373 158 333> 583 210<218 506 347 358>
VStem: 50 155<164 543 164 543 164 543> 378 155<197 543 169 543>
LayerCount: 2
Fore
SplineSet
50 107 m 1x78
 50 543 l 1
 205 543 l 1
 205 164 l 1
 224 145 l 1
 333 145 l 1x78
 378 197 l 1
 378 543 l 1
 533 543 l 1
 533 169 l 1
 569 13 l 1
 446 -15 l 1xb8
 428 63 l 1
 373 0 l 1
 158 0 l 1
 50 107 l 1x78
218 583 m 1
 347 793 l 1
 506 793 l 1
 358 583 l 1
 218 583 l 1
EndSplineSet
EndChar

StartChar: yacute
Encoding: 253 253 263
Width: 549
GlyphClass: 1
Flags: MW
HStem: -168 145<83 206 83 268 83 206> 583 210<198 486 327 338>
LayerCount: 2
Fore
SplineSet
302 249 m 1
 407 563 l 1
 549 516 l 1
 348 -88 l 1
 268 -168 l 1
 83 -168 l 1
 83 -23 l 1
 206 -23 l 1
 223 -6 l 1
 230 16 l 1
 205 16 l 1
 0 504 l 1
 140 563 l 1
 272 249 l 1
 285 180 l 1
 289 180 l 1
 302 249 l 1
198 583 m 1
 327 793 l 1
 486 793 l 1
 338 583 l 1
 198 583 l 1
EndSplineSet
EndChar

StartChar: uhungarumlaut
Encoding: 369 369 264
Width: 599
GlyphClass: 1
Flags: MW
HStem: -15 21G<446 446> 0 145<224 333 224 373 158 333> 593 210<100 388 229 240 335 388 464 475 335 335>
VStem: 50 155<164 543 164 543 164 543> 378 155<197 543 169 543>
LayerCount: 2
Fore
SplineSet
50 107 m 1x78
 50 543 l 1
 205 543 l 1
 205 164 l 1
 224 145 l 1
 333 145 l 1x78
 378 197 l 1
 378 543 l 1
 533 543 l 1
 533 169 l 1
 569 13 l 1
 446 -15 l 1xb8
 428 63 l 1
 373 0 l 1
 158 0 l 1
 50 107 l 1x78
100 593 m 1
 229 803 l 1
 388 803 l 1
 240 593 l 1
 100 593 l 1
335 593 m 1
 464 803 l 1
 623 803 l 1
 475 593 l 1
 335 593 l 1
EndSplineSet
EndChar

StartChar: ohungarumlaut
Encoding: 337 337 265
Width: 587
GlyphClass: 1
Flags: MW
HStem: 0 145<224 363 224 430 157 363> 398 145<224 363 224 224> 593 210<103 391 232 243 338 391 467 478 338 338>
VStem: 50 155<164 379 164 435 164 435> 382 155<164 379 379 379>
LayerCount: 2
Fore
SplineSet
537 108 m 1
 430 0 l 1
 157 0 l 1
 50 108 l 1
 50 435 l 1
 157 543 l 1
 430 543 l 1
 537 435 l 1
 537 108 l 1
224 145 m 1
 363 145 l 1
 382 164 l 1
 382 379 l 1
 363 398 l 1
 224 398 l 1
 205 379 l 1
 205 164 l 1
 224 145 l 1
103 593 m 1
 232 803 l 1
 391 803 l 1
 243 593 l 1
 103 593 l 1
338 593 m 1
 467 803 l 1
 626 803 l 1
 478 593 l 1
 338 593 l 1
EndSplineSet
EndChar

StartChar: Uhungarumlaut
Encoding: 368 368 266
Width: 645
GlyphClass: 1
Flags: MW
HStem: 0 145<178 400 245 400 245 467> 750 210<126 414 255 266 361 414 490 501 361 361>
VStem: 50 155<185 710 185 710 185 710> 440 155<185 710 127 710>
LayerCount: 2
Fore
SplineSet
178 0 m 1
 50 127 l 1
 50 710 l 1
 205 710 l 1
 205 185 l 1
 245 145 l 1
 400 145 l 1
 440 185 l 1
 440 710 l 1
 595 710 l 1
 595 127 l 1
 467 0 l 1
 178 0 l 1
126 750 m 1
 255 960 l 1
 414 960 l 1
 266 750 l 1
 126 750 l 1
361 750 m 1
 490 960 l 1
 649 960 l 1
 501 750 l 1
 361 750 l 1
EndSplineSet
EndChar

StartChar: Ohungarumlaut
Encoding: 336 336 267
Width: 675
GlyphClass: 1
Flags: MW
HStem: 0 145<251 424 251 486 189 424> 565 145<251 424 251 251> 750 210<136 424 265 276 371 424 500 511 371 371>
VStem: 50 155<187 523 187 584 187 584> 470 155<187 523 523 523>
LayerCount: 2
Fore
SplineSet
189 710 m 1
 486 710 l 1
 625 584 l 1
 625 126 l 1
 486 0 l 1
 189 0 l 1
 50 126 l 1
 50 584 l 1
 189 710 l 1
470 523 m 1
 424 565 l 1
 251 565 l 1
 205 523 l 1
 205 187 l 1
 251 145 l 1
 424 145 l 1
 470 187 l 1
 470 523 l 1
136 750 m 1
 265 960 l 1
 424 960 l 1
 276 750 l 1
 136 750 l 1
371 750 m 1
 500 960 l 1
 659 960 l 1
 511 750 l 1
 371 750 l 1
EndSplineSet
EndChar

StartChar: Zcaron
Encoding: 381 381 268
Width: 585
GlyphClass: 1
Flags: MW
HStem: 0 145<244 552 244 552> 565 145<33 341 33 560> 880 20G<88 228 228 228 374 514 514 514>
LayerCount: 2
Fore
SplineSet
341 565 m 1
 33 565 l 1
 33 710 l 1
 560 710 l 1
 560 595 l 1
 242 156 l 1
 207 131 l 1
 209 128 l 1
 244 145 l 1
 552 145 l 1
 552 0 l 1
 25 0 l 1
 25 113 l 1
 343 554 l 1
 378 579 l 1
 376 582 l 1
 341 565 l 1
229 750 m 1
 88 900 l 1
 228 900 l 1
 301 831 l 1
 374 900 l 1
 514 900 l 1
 373 750 l 1
 229 750 l 1
EndSplineSet
EndChar

StartChar: Tcaron
Encoding: 356 356 269
Width: 565
GlyphClass: 1
Flags: MW
HStem: 0 21G<205 360 205 205> 565 145<10 205 10 555 360 555 360 360> 880 20G<67 207 207 207 353 493 493 493>
VStem: 205 155<0 565 0 565>
LayerCount: 2
Fore
SplineSet
360 565 m 1
 360 0 l 1
 205 0 l 1
 205 565 l 1
 10 565 l 1
 10 710 l 1
 555 710 l 1
 555 565 l 1
 360 565 l 1
208 750 m 1
 67 900 l 1
 207 900 l 1
 280 831 l 1
 353 900 l 1
 493 900 l 1
 352 750 l 1
 208 750 l 1
EndSplineSet
EndChar

StartChar: Scaron
Encoding: 352 352 270
Width: 600
GlyphClass: 1
Flags: MW
HStem: 0 145<203 376 203 438 174 376> 565 145<225 397 225 225> 880 20G<91 231 231 231 377 517 517 517>
LayerCount: 2
Fore
SplineSet
36 448 m 1
 36 583 l 1
 163 710 l 1
 426 710 l 1
 570 661 l 1
 523 522 l 1
 397 565 l 1
 225 565 l 1
 191 531 l 1
 191 506 l 1
 204 479 l 1
 523 341 l 1
 565 262 l 1
 565 127 l 1
 438 0 l 1
 174 0 l 1
 30 49 l 1
 77 188 l 1
 203 145 l 1
 376 145 l 1
 410 179 l 1
 410 204 l 1
 397 231 l 1
 78 369 l 1
 36 448 l 1
232 750 m 1
 91 900 l 1
 231 900 l 1
 304 831 l 1
 377 900 l 1
 517 900 l 1
 376 750 l 1
 232 750 l 1
EndSplineSet
EndChar

StartChar: scaron
Encoding: 353 353 271
Width: 525
GlyphClass: 1
Flags: MW
HStem: 0 135<193 321 193 389 165 321> 408 135<203 332 203 203> 713 20G<50 190 190 190 336 476 476 476>
LayerCount: 2
Fore
SplineSet
183 374 m 1
 191 363 l 1
 451 300 l 1
 496 226 l 1
 496 107 l 1
 389 0 l 1
 165 0 l 1
 20 48 l 1
 63 178 l 1
 193 135 l 1
 321 135 l 1
 341 155 l 1
 341 170 l 1
 333 182 l 1
 73 245 l 1
 28 319 l 1
 28 436 l 1
 135 543 l 1
 360 543 l 1
 505 495 l 1
 462 365 l 1
 332 408 l 1
 203 408 l 1
 183 388 l 1
 183 374 l 1
191 583 m 1
 50 733 l 1
 190 733 l 1
 263 664 l 1
 336 733 l 1
 476 733 l 1
 335 583 l 1
 191 583 l 1
EndSplineSet
EndChar

StartChar: zcaron
Encoding: 382 382 272
Width: 506
GlyphClass: 1
Flags: MW
HStem: 0 135<245 482 245 482> 408 135<24 261 24 486> 713 20G<50 190 190 190 336 476 476 476>
LayerCount: 2
Fore
SplineSet
261 408 m 1
 24 408 l 1
 24 543 l 1
 486 543 l 1
 486 425 l 1
 243 146 l 1
 208 121 l 1
 210 118 l 1
 245 135 l 1
 482 135 l 1
 482 0 l 1
 20 0 l 1
 20 117 l 1
 263 397 l 1
 298 422 l 1
 296 425 l 1
 261 408 l 1
191 583 m 1
 50 733 l 1
 190 733 l 1
 263 664 l 1
 336 733 l 1
 476 733 l 1
 335 583 l 1
 191 583 l 1
EndSplineSet
EndChar

StartChar: Lcaron
Encoding: 317 317 273
Width: 553
GlyphClass: 1
Flags: MW
HStem: 0 145<215 543 215 543> 880 20G<-76 64 64 64 210 350 350 350>
VStem: 60 155<145 710 145 710 145 710>
LayerCount: 2
Fore
SplineSet
60 0 m 1
 60 710 l 1
 215 710 l 1
 215 145 l 1
 543 145 l 1
 543 0 l 1
 60 0 l 1
65 750 m 1
 -76 900 l 1
 64 900 l 1
 137 831 l 1
 210 900 l 1
 350 900 l 1
 209 750 l 1
 65 750 l 1
EndSplineSet
EndChar

StartChar: Ccaron
Encoding: 268 268 274
Width: 619
GlyphClass: 1
Flags: MW
HStem: 0 145<245 407 245 474 178 407> 565 145<245 400 245 245> 880 20G<110 250 250 250 396 536 536 536>
VStem: 50 155<185 525 185 582 185 582> 440 155<450 525 525 525>
LayerCount: 2
Fore
SplineSet
407 145 m 1
 503 241 l 1
 609 135 l 1
 474 0 l 1
 178 0 l 1
 50 128 l 1
 50 582 l 1
 178 710 l 1
 467 710 l 1
 595 582 l 1
 595 450 l 1
 440 450 l 1
 440 525 l 1
 400 565 l 1
 245 565 l 1
 205 525 l 1
 205 185 l 1
 245 145 l 1
 407 145 l 1
251 750 m 1
 110 900 l 1
 250 900 l 1
 323 831 l 1
 396 900 l 1
 536 900 l 1
 395 750 l 1
 251 750 l 1
EndSplineSet
EndChar

StartChar: Ecaron
Encoding: 282 282 275
Width: 573
GlyphClass: 1
Flags: MW
HStem: 0 145<215 553 215 553> 298 145<215 511 215 511> 565 145<215 553 215 215> 880 20G<97 237 237 237 383 523 523 523>
VStem: 60 155<145 298 443 565>
LayerCount: 2
Fore
SplineSet
60 0 m 1
 60 710 l 1
 553 710 l 1
 553 565 l 1
 215 565 l 1
 215 443 l 1
 511 443 l 1
 511 298 l 1
 215 298 l 1
 215 145 l 1
 553 145 l 1
 553 0 l 1
 60 0 l 1
238 750 m 1
 97 900 l 1
 237 900 l 1
 310 831 l 1
 383 900 l 1
 523 900 l 1
 382 750 l 1
 238 750 l 1
EndSplineSet
EndChar

StartChar: Dcaron
Encoding: 270 270 276
Width: 656
GlyphClass: 1
Flags: MW
HStem: 0 145<215 411 215 478> 565 145<215 411 215 215> 880 20G<103 243 243 243 389 529 529 529>
VStem: 60 155<145 565 145 710 145 710> 451 155<185 525 525 525>
LayerCount: 2
Fore
SplineSet
60 0 m 1
 60 710 l 1
 478 710 l 1
 606 581 l 1
 606 129 l 1
 478 0 l 1
 60 0 l 1
451 525 m 1
 411 565 l 1
 215 565 l 1
 215 145 l 1
 411 145 l 1
 451 185 l 1
 451 525 l 1
244 750 m 1
 103 900 l 1
 243 900 l 1
 316 831 l 1
 389 900 l 1
 529 900 l 1
 388 750 l 1
 244 750 l 1
EndSplineSet
EndChar

StartChar: Ncaron
Encoding: 327 327 277
Width: 666
GlyphClass: 1
Flags: MW
HStem: 0 21G<60 215 60 60 467 467 467 606> 880 20G<117 257 257 257 403 543 543 543>
VStem: 60 155<0 372 0 710> 451 155<338 710 0 710>
LayerCount: 2
Fore
SplineSet
215 372 m 1
 215 0 l 1
 60 0 l 1
 60 710 l 1
 199 710 l 1
 432 337 l 1
 458 271 l 1
 462 271 l 1
 451 338 l 1
 451 710 l 1
 606 710 l 1
 606 0 l 1
 467 0 l 1
 234 373 l 1
 208 439 l 1
 204 439 l 1
 215 372 l 1
258 750 m 1
 117 900 l 1
 257 900 l 1
 330 831 l 1
 403 900 l 1
 543 900 l 1
 402 750 l 1
 258 750 l 1
EndSplineSet
EndChar

StartChar: Rcaron
Encoding: 344 344 278
Width: 641
GlyphClass: 1
Flags: MW
HStem: -25 21G<510 510> -20 20G<60 215 60 60> 565 145<215 414 215 215> 880 20G<105 245 245 245 391 531 531 531>
VStem: 60 155<0 264 409 565> 450 155<446 528 528 528>
LayerCount: 2
Fore
SplineSet
414 565 m 1x7c
 215 565 l 1
 215 409 l 1
 414 409 l 1
 450 446 l 1
 450 528 l 1
 414 565 l 1x7c
456 253 m 1
 621 84 l 1
 510 -25 l 1xbc
 228 264 l 1
 215 264 l 1
 215 0 l 1
 60 0 l 1
 60 710 l 1
 494 710 l 1
 605 600 l 1
 605 374 l 1
 494 264 l 1
 458 264 l 1
 423 281 l 1
 421 278 l 1
 456 253 l 1
246 750 m 1
 105 900 l 1
 245 900 l 1
 318 831 l 1
 391 900 l 1
 531 900 l 1
 390 750 l 1
 246 750 l 1
EndSplineSet
EndChar

StartChar: ccaron
Encoding: 269 269 279
Width: 554
GlyphClass: 1
Flags: MW
HStem: 0 145<224 375 224 394 158 375> 325 218<377 424 158 532 377 377> 398 145<224 358 224 224> 713 20G<78 218 218 218 364 504 504 504>
VStem: 50 155<164 379 164 436 164 436>
LayerCount: 2
Fore
SplineSet
375 145 m 1xb8
 500 185 l 1
 544 47 l 1
 394 0 l 1
 158 0 l 1
 50 107 l 1
 50 436 l 1
 158 543 l 1
 424 543 l 1
 532 436 l 1
 532 325 l 1
 377 325 l 1xd8
 377 379 l 1
 358 398 l 1
 224 398 l 1
 205 379 l 1
 205 164 l 1
 224 145 l 1
 375 145 l 1xb8
219 583 m 1
 78 733 l 1
 218 733 l 1
 291 664 l 1
 364 733 l 1
 504 733 l 1
 363 583 l 1
 219 583 l 1
EndSplineSet
EndChar

StartChar: ecaron
Encoding: 283 283 280
Width: 569
GlyphClass: 1
Flags: MW
HStem: 0 135<224 373 224 392 158 373> 200 125<205 363 205 434 205 363> 418 125<224 224 224 358> 713 20G<78 218 218 218 364 504 504 504>
VStem: 50 155<154 200 154 325 325 399> 377 155<339 399 399 399>
LayerCount: 2
Fore
SplineSet
373 135 m 1
 498 175 l 1
 539 46 l 1
 392 0 l 1
 158 0 l 1
 50 107 l 1
 50 436 l 1
 158 543 l 1
 424 543 l 1
 532 436 l 1
 532 297 l 1
 434 200 l 1
 205 200 l 1
 205 154 l 1
 224 135 l 1
 373 135 l 1
224 418 m 1
 205 399 l 1
 205 325 l 1
 363 325 l 1
 377 339 l 1
 377 399 l 1
 358 418 l 1
 224 418 l 1
219 583 m 1
 78 733 l 1
 218 733 l 1
 291 664 l 1
 364 733 l 1
 504 733 l 1
 363 583 l 1
 219 583 l 1
EndSplineSet
EndChar

StartChar: ncaron
Encoding: 328 328 281
Width: 599
GlyphClass: 1
Flags: MW
HStem: 0 21G<66 221 66 66 394 549 394 394> 398 145<266 375 266 266> 713 20G<111 251 251 251 397 537 537 537>
VStem: 66 155<0 346 0 374 0 374> 394 155<0 379 379 379>
LayerCount: 2
Fore
SplineSet
549 436 m 1
 549 0 l 1
 394 0 l 1
 394 379 l 1
 375 398 l 1
 266 398 l 1
 221 346 l 1
 221 0 l 1
 66 0 l 1
 66 374 l 1
 30 530 l 1
 153 558 l 1
 171 480 l 1
 226 543 l 1
 441 543 l 1
 549 436 l 1
252 583 m 1
 111 733 l 1
 251 733 l 1
 324 664 l 1
 397 733 l 1
 537 733 l 1
 396 583 l 1
 252 583 l 1
EndSplineSet
EndChar

StartChar: rcaron
Encoding: 345 345 282
Width: 520
GlyphClass: 1
Flags: MW
HStem: 0 21G<66 221 66 66> 398 145<266 266 266 351> 713 20G<99 239 239 239 385 525 525 525>
VStem: 66 155<0 346 0 374 0 374>
LayerCount: 2
Fore
SplineSet
266 398 m 1
 221 346 l 1
 221 0 l 1
 66 0 l 1
 66 374 l 1
 30 530 l 1
 153 558 l 1
 171 480 l 1
 226 543 l 1
 414 543 l 1
 530 429 l 1
 427 324 l 1
 351 398 l 1
 266 398 l 1
240 583 m 1
 99 733 l 1
 239 733 l 1
 312 664 l 1
 385 733 l 1
 525 733 l 1
 384 583 l 1
 240 583 l 1
EndSplineSet
EndChar

StartChar: ocircumflex
Encoding: 244 244 283
Width: 587
GlyphClass: 1
Flags: MW
HStem: 0 145<224 363 224 430 157 363> 398 145<224 363 224 224> 713 20G<222 366 366 366>
VStem: 50 155<164 379 164 435 164 435> 382 155<164 379 379 379>
LayerCount: 2
Fore
SplineSet
537 108 m 1
 430 0 l 1
 157 0 l 1
 50 108 l 1
 50 435 l 1
 157 543 l 1
 430 543 l 1
 537 435 l 1
 537 108 l 1
224 145 m 1
 363 145 l 1
 382 164 l 1
 382 379 l 1
 363 398 l 1
 224 398 l 1
 205 379 l 1
 205 164 l 1
 224 145 l 1
81 583 m 1
 222 733 l 1
 366 733 l 1
 507 583 l 1
 367 583 l 1
 294 652 l 1
 221 583 l 1
 81 583 l 1
EndSplineSet
EndChar

StartChar: lcaron
Encoding: 318 318 284
Width: 450
GlyphClass: 1
Flags: MW
HStem: 0 21G<69 224 69 69> 706 20G<176 176>
VStem: 69 155<0 559 559 559>
LayerCount: 2
Fore
SplineSet
69 559 m 1
 30 678 l 1
 176 726 l 1
 224 580 l 1
 224 0 l 1
 69 0 l 1
 69 559 l 1
260 420 m 1
 325 710 l 1
 470 710 l 1
 365 420 l 1
 260 420 l 1
EndSplineSet
EndChar

StartChar: tcaron
Encoding: 357 357 285
Width: 585
GlyphClass: 1
Flags: MW
HStem: 0 21G<227 368 227 227> 378 145<30 120 30 120 275 380> 690 20G<460 605 605 605>
VStem: 120 155<169 378 169 378 169 378 523 680>
LayerCount: 2
Fore
SplineSet
120 378 m 1
 30 378 l 1
 30 523 l 1
 120 523 l 1
 120 680 l 1
 275 680 l 1
 275 523 l 1
 380 523 l 1
 380 378 l 1
 275 378 l 1
 275 169 l 1
 299 145 l 1
 351 145 l 1
 387 156 440 173 475 184 c 1
 518 47 l 1
 368 0 l 1
 227 0 l 1
 120 107 l 1
 120 378 l 1
395 420 m 1
 460 710 l 1
 605 710 l 1
 500 420 l 1
 395 420 l 1
EndSplineSet
EndChar

StartChar: dcaron
Encoding: 271 271 286
Width: 758
GlyphClass: 1
Flags: MW
HStem: -15 21G<445 445> 0 145<224 332 224 372 158 332> 398 145<224 327 224 224> 690 20G<377 532 532 532 633 778 778 778>
VStem: 50 155<164 379 164 436 164 436> 377 155<197 361 361 361 506 710 169 710>
LayerCount: 2
Fore
SplineSet
332 145 m 1x7c
 377 197 l 1
 377 361 l 1
 327 398 l 1
 224 398 l 1
 205 379 l 1
 205 164 l 1
 224 145 l 1
 332 145 l 1x7c
372 0 m 1
 158 0 l 1x7c
 50 107 l 1
 50 436 l 1
 158 543 l 1
 327 543 l 1
 377 506 l 1
 377 710 l 1
 532 710 l 1
 532 169 l 1
 568 13 l 1
 445 -15 l 1xbc
 427 63 l 1
 372 0 l 1
568 420 m 1
 633 710 l 1
 778 710 l 1
 673 420 l 1
 568 420 l 1
EndSplineSet
EndChar

StartChar: icircumflex
Encoding: 238 238 287
Width: 277
GlyphClass: 1
Flags: MW
HStem: 0 21G<69 224 69 69> 713 20G<75 219 219 219>
VStem: 69 155<0 381 381 381>
LayerCount: 2
Fore
SplineSet
69 381 m 1
 30 500 l 1
 176 548 l 1
 224 402 l 1
 224 0 l 1
 69 0 l 1
 69 381 l 1
-66 583 m 1
 75 733 l 1
 219 733 l 1
 360 583 l 1
 220 583 l 1
 147 652 l 1
 74 583 l 1
 -66 583 l 1
EndSplineSet
EndChar

StartChar: acircumflex
Encoding: 226 226 288
Width: 579
GlyphClass: 1
Flags: MW
HStem: -15 21G<426 426> 0 125<204 313 204 353 138 313> 219 125<204 358 204 204> 408 135<201 339 201 201> 713 20G<230 374 374 374>
VStem: 358 155<177 219 219 219 344 389 389 389>
LayerCount: 2
Fore
SplineSet
513 169 m 1x7c
 549 13 l 1
 426 -15 l 1xbc
 408 63 l 1
 353 0 l 1
 138 0 l 1
 30 107 l 1
 30 237 l 1
 138 344 l 1
 358 344 l 1
 358 389 l 1
 339 408 l 1
 201 408 l 1
 76 368 l 1
 35 497 l 1
 182 543 l 1
 405 543 l 1
 513 436 l 1
 513 169 l 1x7c
358 177 m 1
 358 219 l 1
 204 219 l 1
 185 200 l 1
 185 144 l 1
 204 125 l 1
 313 125 l 1x7c
 358 177 l 1
89 583 m 1
 230 733 l 1
 374 733 l 1
 515 583 l 1
 375 583 l 1
 302 652 l 1
 229 583 l 1
 89 583 l 1
EndSplineSet
EndChar

StartChar: Ocircumflex
Encoding: 212 212 289
Width: 675
GlyphClass: 1
Flags: MW
HStem: 0 145<251 424 251 486 189 424> 565 145<251 424 251 251> 710 40<189 274 420 486 486 486> 915 20G<307 307 387 387>
VStem: 50 155<187 523 187 584 187 584> 470 155<187 523 523 523>
LayerCount: 2
Fore
SplineSet
189 710 m 1xdc
 486 710 l 1
 625 584 l 1
 625 126 l 1
 486 0 l 1
 189 0 l 1
 50 126 l 1
 50 584 l 1
 189 710 l 1xdc
470 523 m 1
 424 565 l 1
 251 565 l 1
 205 523 l 1
 205 187 l 1
 251 145 l 1
 424 145 l 1
 470 187 l 1
 470 523 l 1
134 750 m 1xbc
 307 935 l 1
 307 781 l 1
 274 750 l 1
 134 750 l 1xbc
387 935 m 1
 560 750 l 1
 420 750 l 1
 387 781 l 1
 387 935 l 1
EndSplineSet
EndChar

StartChar: Icircumflex
Encoding: 206 206 290
Width: 407
GlyphClass: 1
Flags: MW
HStem: 0 135<30 126 281 377 30 126> 575 135<30 126 30 377 281 281 281 377> 710 40<30 131 277 377 377 377> 915 20G<164 164 244 244>
VStem: 126 155<135 575 135 575>
LayerCount: 2
Fore
SplineSet
377 0 m 1xd8
 30 0 l 1
 30 135 l 1
 126 135 l 1
 126 575 l 1
 30 575 l 1
 30 710 l 1
 377 710 l 1
 377 575 l 1
 281 575 l 1
 281 135 l 1
 377 135 l 1
 377 0 l 1xd8
-9 750 m 1xb8
 164 935 l 1
 164 781 l 1
 131 750 l 1
 -9 750 l 1xb8
244 935 m 1
 417 750 l 1
 277 750 l 1
 244 781 l 1
 244 935 l 1
EndSplineSet
EndChar

StartChar: Acircumflex
Encoding: 194 194 291
Width: 620
GlyphClass: 1
Flags: MW
HStem: -20 21G<146 146 474 474> 139 135<239 381 239 420 195 381> 710 40<229 237 383 391 391 391> 915 20G<270 270 350 350>
VStem: 270 80<781 935 781 935>
LayerCount: 2
Fore
SplineSet
97 750 m 1
 270 935 l 1
 270 781 l 1
 237 750 l 1
 97 750 l 1
350 935 m 1
 523 750 l 1
 383 750 l 1
 350 781 l 1
 350 935 l 1
229 710 m 1
 391 710 l 1
 620 29 l 1
 474 -20 l 1
 420 139 l 1
 195 139 l 1
 146 -20 l 1
 0 29 l 1
 229 710 l 1
381 274 m 1
 325 440 l 1
 312 514 l 1
 308 514 l 1
 295 440 l 1
 239 274 l 1
 381 274 l 1
EndSplineSet
EndChar

StartChar: Ydieresis
Encoding: 376 376 292
Width: 604
GlyphClass: 1
Flags: MW
HStem: 0 21G<224 379 224 224> 766 159<160 231 160 236 160 231 160 370 370 441>
VStem: 118 160<808 883 808 883> 224 155<0 220 0 222 0 222> 328 160<808 883 808 883>
LayerCount: 2
Fore
SplineSet
604 665 m 1xd0
 379 220 l 1
 379 0 l 1
 224 0 l 1
 224 222 l 1
 0 665 l 1
 139 735 l 1
 288 440 l 1
 300 371 l 1
 304 371 l 1
 316 440 l 1
 465 735 l 1
 604 665 l 1xd0
118 808 m 1xe8
 118 883 l 1
 160 925 l 1
 231 925 l 1
 278 883 l 1
 278 808 l 1
 236 766 l 1
 160 766 l 1
 118 808 l 1xe8
328 808 m 1
 328 883 l 1
 370 925 l 1
 441 925 l 1
 488 883 l 1
 488 808 l 1
 446 766 l 1
 370 766 l 1
 328 808 l 1
EndSplineSet
EndChar

StartChar: Agrave
Encoding: 192 192 293
Width: 620
GlyphClass: 1
Flags: MW
HStem: -20 21G<146 146 474 474> 139 135<239 381 239 420 195 381> 750 210<244 255 96 384 244 244>
LayerCount: 2
Fore
SplineSet
255 960 m 1
 384 750 l 1
 244 750 l 1
 96 960 l 1
 255 960 l 1
229 710 m 1
 391 710 l 1
 620 29 l 1
 474 -20 l 1
 420 139 l 1
 195 139 l 1
 146 -20 l 1
 0 29 l 1
 229 710 l 1
381 274 m 1
 325 440 l 1
 312 514 l 1
 308 514 l 1
 295 440 l 1
 239 274 l 1
 381 274 l 1
EndSplineSet
EndChar

StartChar: Egrave
Encoding: 200 200 294
Width: 573
GlyphClass: 1
Flags: MW
HStem: 0 145<215 553 215 553> 298 145<215 511 215 511> 565 145<215 553 215 215> 750 210<262 273 114 402 262 262>
VStem: 60 155<145 298 443 565>
LayerCount: 2
Fore
SplineSet
60 0 m 1
 60 710 l 1
 553 710 l 1
 553 565 l 1
 215 565 l 1
 215 443 l 1
 511 443 l 1
 511 298 l 1
 215 298 l 1
 215 145 l 1
 553 145 l 1
 553 0 l 1
 60 0 l 1
273 960 m 1
 402 750 l 1
 262 750 l 1
 114 960 l 1
 273 960 l 1
EndSplineSet
EndChar

StartChar: Ecircumflex
Encoding: 202 202 295
Width: 573
GlyphClass: 1
Flags: MW
HStem: 0 145<215 553 215 553> 298 145<215 511 215 511> 565 145<215 553 215 215> 710 40<93 93 93 233 379 519> 915 20G<266 266 346 346>
VStem: 60 155<145 298 443 565>
LayerCount: 2
Fore
SplineSet
60 0 m 1xec
 60 710 l 1
 553 710 l 1
 553 565 l 1
 215 565 l 1
 215 443 l 1
 511 443 l 1
 511 298 l 1
 215 298 l 1
 215 145 l 1
 553 145 l 1
 553 0 l 1
 60 0 l 1xec
93 750 m 1xdc
 266 935 l 1
 266 781 l 1
 233 750 l 1
 93 750 l 1xdc
346 935 m 1
 519 750 l 1
 379 750 l 1
 346 781 l 1
 346 935 l 1
EndSplineSet
EndChar

StartChar: Igrave
Encoding: 204 204 296
Width: 407
GlyphClass: 1
Flags: MW
HStem: 0 135<30 126 281 377 30 126> 575 135<30 126 30 377 281 281 281 377> 750 210<135 146 -13 275 135 135>
VStem: 126 155<135 575 135 575>
LayerCount: 2
Fore
SplineSet
377 0 m 1
 30 0 l 1
 30 135 l 1
 126 135 l 1
 126 575 l 1
 30 575 l 1
 30 710 l 1
 377 710 l 1
 377 575 l 1
 281 575 l 1
 281 135 l 1
 377 135 l 1
 377 0 l 1
146 960 m 1
 275 750 l 1
 135 750 l 1
 -13 960 l 1
 146 960 l 1
EndSplineSet
EndChar

StartChar: Idieresis
Encoding: 207 207 297
Width: 407
GlyphClass: 1
Flags: MW
HStem: 0 135<30 126 281 377 30 126> 575 135<30 126 30 377 281 281 281 377> 766 159<60 131 60 136 60 131 60 270 270 341>
VStem: 18 160<808 883 808 883> 126 155<135 575 135 575> 228 149
LayerCount: 2
Fore
SplineSet
377 0 m 1xf4
 30 0 l 1
 30 135 l 1
 126 135 l 1
 126 575 l 1xe8
 30 575 l 1
 30 710 l 1
 377 710 l 1
 377 575 l 1xf4
 281 575 l 1
 281 135 l 1xe8
 377 135 l 1
 377 0 l 1xf4
18 808 m 1xf4
 18 883 l 1
 60 925 l 1
 131 925 l 1
 178 883 l 1
 178 808 l 1
 136 766 l 1
 60 766 l 1
 18 808 l 1xf4
228 808 m 1
 228 883 l 1
 270 925 l 1
 341 925 l 1
 388 883 l 1
 388 808 l 1
 346 766 l 1
 270 766 l 1
 228 808 l 1
EndSplineSet
EndChar

StartChar: idieresis
Encoding: 239 239 298
Width: 277
GlyphClass: 1
Flags: MW
HStem: 0 21G<69 224 69 69> 585 159<3 74 3 79 3 74 3 215 215 286>
VStem: -39 160<627 702 627 702> 69 155<0 381 381 381> 173 160<627 702 627 702>
LayerCount: 2
Fore
SplineSet
69 381 m 1xd0
 30 500 l 1
 176 548 l 1
 224 402 l 1
 224 0 l 1
 69 0 l 1
 69 381 l 1xd0
-39 627 m 1xe8
 -39 702 l 1
 3 744 l 1
 74 744 l 1
 121 702 l 1
 121 627 l 1
 79 585 l 1
 3 585 l 1
 -39 627 l 1xe8
173 627 m 1
 173 702 l 1
 215 744 l 1
 286 744 l 1
 333 702 l 1
 333 627 l 1
 291 585 l 1
 215 585 l 1
 173 627 l 1
EndSplineSet
EndChar

StartChar: Gbreve
Encoding: 286 286 299
Width: 645
GlyphClass: 1
Flags: MW
HStem: 0 145<245 400 245 468 178 400> 266 125<287 440 287 595> 565 145<245 400 245 245> 765 130<269 369 269 426 212 369> 765 209<212 251 387 426 212 212>
VStem: 50 155<185 525 185 582 185 582> 126 125<913 974 913 974 913 974> 387 125<913 974 850 974> 440 155<185 266 266 266 450 525 525 525>
LayerCount: 2
Fore
SplineSet
245 145 m 1xf480
 400 145 l 1
 414 159 426 170 440 185 c 1
 440 266 l 1
 287 266 l 1
 287 391 l 1
 595 391 l 1
 595 127 l 1
 468 0 l 1
 178 0 l 1
 50 128 l 1
 50 582 l 1
 178 710 l 1
 467 710 l 1
 595 582 l 1
 595 450 l 1
 440 450 l 1
 440 525 l 1
 400 565 l 1
 245 565 l 1
 205 525 l 1
 205 185 l 1
 245 145 l 1xf480
512 850 m 1xed
 426 765 l 1
 212 765 l 1
 126 850 l 1
 126 974 l 1
 251 974 l 1xeb
 251 913 l 1
 269 895 l 1
 369 895 l 1xf3
 387 913 l 1
 387 974 l 1
 512 974 l 1
 512 850 l 1xed
EndSplineSet
EndChar

StartChar: Ograve
Encoding: 210 210 300
Width: 675
GlyphClass: 1
Flags: MW
HStem: 0 145<251 424 251 486 189 424> 565 145<251 424 251 251> 750 210<281 292 133 421 281 281>
VStem: 50 155<187 523 187 584 187 584> 470 155<187 523 523 523>
LayerCount: 2
Fore
SplineSet
189 710 m 1
 486 710 l 1
 625 584 l 1
 625 126 l 1
 486 0 l 1
 189 0 l 1
 50 126 l 1
 50 584 l 1
 189 710 l 1
470 523 m 1
 424 565 l 1
 251 565 l 1
 205 523 l 1
 205 187 l 1
 251 145 l 1
 424 145 l 1
 470 187 l 1
 470 523 l 1
292 960 m 1
 421 750 l 1
 281 750 l 1
 133 960 l 1
 292 960 l 1
EndSplineSet
EndChar

StartChar: Ugrave
Encoding: 217 217 301
Width: 645
GlyphClass: 1
Flags: MW
HStem: 0 145<178 400 245 400 245 467> 740 210<267 278 119 407 267 267>
VStem: 50 155<185 710 185 710 185 710> 440 155<185 710 127 710>
LayerCount: 2
Fore
SplineSet
178 0 m 1
 50 127 l 1
 50 710 l 1
 205 710 l 1
 205 185 l 1
 245 145 l 1
 400 145 l 1
 440 185 l 1
 440 710 l 1
 595 710 l 1
 595 127 l 1
 467 0 l 1
 178 0 l 1
278 950 m 1
 407 740 l 1
 267 740 l 1
 119 950 l 1
 278 950 l 1
EndSplineSet
EndChar

StartChar: Ucircumflex
Encoding: 219 219 302
Width: 645
GlyphClass: 1
Flags: MW
HStem: 0 145<178 400 245 400 245 467> 710 40<108 108 108 205 205 205 440 534> 915 20G<281 281 361 361>
VStem: 50 155<185 710 185 710 185 710> 440 155<185 710 127 710>
LayerCount: 2
Fore
SplineSet
178 0 m 1
 50 127 l 1
 50 710 l 1
 205 710 l 1
 205 185 l 1
 245 145 l 1
 400 145 l 1
 440 185 l 1
 440 710 l 1
 595 710 l 1
 595 127 l 1
 467 0 l 1
 178 0 l 1
108 750 m 1
 281 935 l 1
 281 781 l 1
 248 750 l 1
 108 750 l 1
361 935 m 1
 534 750 l 1
 394 750 l 1
 361 781 l 1
 361 935 l 1
EndSplineSet
EndChar

StartChar: agrave
Encoding: 224 224 303
Width: 579
GlyphClass: 1
Flags: MW
HStem: -15 21G<426 426> 0 125<204 313 204 353 138 313> 219 125<204 358 204 204> 408 135<201 339 201 201> 583 210<232 243 84 372 232 232>
VStem: 358 155<177 219 219 219 344 389 389 389>
LayerCount: 2
Fore
SplineSet
513 169 m 1x7c
 549 13 l 1
 426 -15 l 1xbc
 408 63 l 1
 353 0 l 1
 138 0 l 1
 30 107 l 1
 30 237 l 1
 138 344 l 1
 358 344 l 1
 358 389 l 1
 339 408 l 1
 201 408 l 1
 76 368 l 1
 35 497 l 1
 182 543 l 1
 405 543 l 1
 513 436 l 1
 513 169 l 1x7c
358 177 m 1
 358 219 l 1
 204 219 l 1
 185 200 l 1
 185 144 l 1
 204 125 l 1
 313 125 l 1x7c
 358 177 l 1
243 793 m 1
 372 583 l 1
 232 583 l 1
 84 793 l 1
 243 793 l 1
EndSplineSet
EndChar

StartChar: egrave
Encoding: 232 232 304
Width: 569
GlyphClass: 1
Flags: MW
HStem: 0 135<224 373 224 392 158 373> 200 125<205 363 205 434 205 363> 418 125<224 224 224 358> 583 210<237 248 89 377 237 237>
VStem: 50 155<154 200 154 325 325 399> 377 155<339 399 399 399 297 583>
LayerCount: 2
Fore
SplineSet
373 135 m 1
 498 175 l 1
 539 46 l 1
 392 0 l 1
 158 0 l 1
 50 107 l 1
 50 436 l 1
 158 543 l 1
 424 543 l 1
 532 436 l 1
 532 297 l 1
 434 200 l 1
 205 200 l 1
 205 154 l 1
 224 135 l 1
 373 135 l 1
224 418 m 1
 205 399 l 1
 205 325 l 1
 363 325 l 1
 377 339 l 1
 377 399 l 1
 358 418 l 1
 224 418 l 1
248 793 m 1
 377 583 l 1
 237 583 l 1
 89 793 l 1
 248 793 l 1
EndSplineSet
EndChar

StartChar: ecircumflex
Encoding: 234 234 305
Width: 569
GlyphClass: 1
Flags: MW
HStem: 0 135<224 373 224 392 158 373> 200 125<205 363 205 434 205 363> 418 125<224 224 224 358> 713 20G<218 362 362 362>
VStem: 50 155<154 200 154 325 325 399> 377 155<339 399 399 399>
LayerCount: 2
Fore
SplineSet
373 135 m 1
 498 175 l 1
 539 46 l 1
 392 0 l 1
 158 0 l 1
 50 107 l 1
 50 436 l 1
 158 543 l 1
 424 543 l 1
 532 436 l 1
 532 297 l 1
 434 200 l 1
 205 200 l 1
 205 154 l 1
 224 135 l 1
 373 135 l 1
224 418 m 1
 205 399 l 1
 205 325 l 1
 363 325 l 1
 377 339 l 1
 377 399 l 1
 358 418 l 1
 224 418 l 1
77 583 m 1
 218 733 l 1
 362 733 l 1
 503 583 l 1
 363 583 l 1
 290 652 l 1
 217 583 l 1
 77 583 l 1
EndSplineSet
EndChar

StartChar: igrave
Encoding: 236 236 306
Width: 277
GlyphClass: 1
Flags: MW
HStem: 0 21G<69 224 69 69> 583 210<91 102 -57 231 91 91>
VStem: 69 155<0 381 381 381>
LayerCount: 2
Fore
SplineSet
69 381 m 1
 30 500 l 1
 176 548 l 1
 224 402 l 1
 224 0 l 1
 69 0 l 1
 69 381 l 1
102 793 m 1
 231 583 l 1
 91 583 l 1
 -57 793 l 1
 102 793 l 1
EndSplineSet
EndChar

StartChar: gbreve
Encoding: 287 287 307
Width: 572
GlyphClass: 1
Flags: MW
HStem: -168 125<177 376 193 376 193 439> -8 125<188 376 125 439> 152 130<233 353 233 419 188 353> 413 130<214 320 214 214> 618 120<238 339 238 403 174 339> 618 180<174 223 354 403 174 174>
VStem: 40 155<77 394 192 394 320 394 320 436 320 436> 372 155<301 368 368 368>
LayerCount: 2
Fore
SplineSet
372 368 m 1xf7
 320 413 l 1
 214 413 l 1
 195 394 l 1
 195 320 l 1
 233 282 l 1
 353 282 l 1
 372 301 l 1
 372 368 l 1xf7
177 -168 m 1
 30 -122 l 1
 68 -3 l 1
 193 -43 l 1
 376 -43 l 1
 389 -30 l 1
 389 -21 l 1
 376 -8 l 1
 125 -8 l 1
 40 77 l 1
 40 192 l 1
 88 240 l 1
 40 288 l 1
 40 436 l 1
 148 543 l 1
 358 543 l 1
 514 579 l 1
 542 456 l 1
 464 438 l 1
 527 383 l 1
 527 259 l 1
 419 152 l 1
 188 152 l 1
 175 139 l 1
 175 130 l 1
 188 117 l 1
 439 117 l 1
 524 32 l 1
 524 -83 l 1
 439 -168 l 1
 177 -168 l 1
403 618 m 1
 174 618 l 1
 98 693 l 1
 98 798 l 1
 223 798 l 1xf7
 223 753 l 1
 238 738 l 1
 339 738 l 1xfb
 354 753 l 1
 354 798 l 1
 479 798 l 1
 479 693 l 1
 403 618 l 1
EndSplineSet
EndChar

StartChar: ograve
Encoding: 242 242 308
Width: 587
GlyphClass: 1
Flags: MW
HStem: 0 145<224 363 224 430 157 363> 398 145<224 363 224 224> 583 210<233 244 85 373 233 233>
VStem: 50 155<164 379 164 435 164 435> 382 155<164 379 379 379>
LayerCount: 2
Fore
SplineSet
537 108 m 1
 430 0 l 1
 157 0 l 1
 50 108 l 1
 50 435 l 1
 157 543 l 1
 430 543 l 1
 537 435 l 1
 537 108 l 1
224 145 m 1
 363 145 l 1
 382 164 l 1
 382 379 l 1
 363 398 l 1
 224 398 l 1
 205 379 l 1
 205 164 l 1
 224 145 l 1
244 793 m 1
 373 583 l 1
 233 583 l 1
 85 793 l 1
 244 793 l 1
EndSplineSet
EndChar

StartChar: ugrave
Encoding: 249 249 309
Width: 599
GlyphClass: 1
Flags: MW
HStem: -15 21G<446 446> 0 145<224 333 224 373 158 333> 583 210<236 247 88 376 236 236>
VStem: 50 155<164 543 164 543 164 543> 378 155<197 543 169 543>
LayerCount: 2
Fore
SplineSet
50 107 m 1x78
 50 543 l 1
 205 543 l 1
 205 164 l 1
 224 145 l 1
 333 145 l 1x78
 378 197 l 1
 378 543 l 1
 533 543 l 1
 533 169 l 1
 569 13 l 1
 446 -15 l 1xb8
 428 63 l 1
 373 0 l 1
 158 0 l 1
 50 107 l 1x78
247 793 m 1
 376 583 l 1
 236 583 l 1
 88 793 l 1
 247 793 l 1
EndSplineSet
EndChar

StartChar: ucircumflex
Encoding: 251 251 310
Width: 599
GlyphClass: 1
Flags: MW
HStem: -15 21G<446 446> 0 145<224 333 224 373 158 333> 713 20G<217 361 361 361>
VStem: 50 155<164 543 164 543 164 543> 378 155<197 543 169 543>
LayerCount: 2
Fore
SplineSet
50 107 m 1x78
 50 543 l 1
 205 543 l 1
 205 164 l 1
 224 145 l 1
 333 145 l 1x78
 378 197 l 1
 378 543 l 1
 533 543 l 1
 533 169 l 1
 569 13 l 1
 446 -15 l 1xb8
 428 63 l 1
 373 0 l 1
 158 0 l 1
 50 107 l 1x78
76 583 m 1
 217 733 l 1
 361 733 l 1
 502 583 l 1
 362 583 l 1
 289 652 l 1
 216 583 l 1
 76 583 l 1
EndSplineSet
EndChar

StartChar: dotlessi
Encoding: 305 305 311
Width: 277
GlyphClass: 1
Flags: MW
HStem: 0 21G<69 224 69 69> 528 20G<176 176>
VStem: 69 155<0 381 381 381>
LayerCount: 2
Fore
SplineSet
69 381 m 1
 30 500 l 1
 176 548 l 1
 224 402 l 1
 224 0 l 1
 69 0 l 1
 69 381 l 1
EndSplineSet
EndChar

StartChar: scedilla
Encoding: 351 351 312
Width: 525
GlyphClass: 1
Flags: MW
HStem: -330 21G<144 144 144 249> 0 135<193 321 193 389 165 321> 408 135<203 332 203 203>
LayerCount: 2
Fore
SplineSet
183 374 m 1
 191 363 l 1
 451 300 l 1
 496 226 l 1
 496 107 l 1
 389 0 l 1
 165 0 l 1
 20 48 l 1
 63 178 l 1
 193 135 l 1
 321 135 l 1
 341 155 l 1
 341 170 l 1
 333 182 l 1
 73 245 l 1
 28 319 l 1
 28 436 l 1
 135 543 l 1
 360 543 l 1
 505 495 l 1
 462 365 l 1
 332 408 l 1
 203 408 l 1
 183 388 l 1
 183 374 l 1
144 -330 m 1
 209 -40 l 1
 354 -40 l 1
 249 -330 l 1
 144 -330 l 1
EndSplineSet
EndChar

StartChar: ydieresis
Encoding: 255 255 313
Width: 549
GlyphClass: 1
Flags: MW
HStem: -168 145<83 206 83 268 83 206> 595 159<129 200 129 205 129 200 129 341 341 412>
VStem: 83 164 299 160<637 712 637 712>
LayerCount: 2
Fore
SplineSet
302 249 m 1
 407 563 l 1
 549 516 l 1
 348 -88 l 1
 268 -168 l 1
 83 -168 l 1
 83 -23 l 1
 206 -23 l 1
 223 -6 l 1
 230 16 l 1
 205 16 l 1
 0 504 l 1
 140 563 l 1
 272 249 l 1
 285 180 l 1
 289 180 l 1
 302 249 l 1
87 637 m 1
 87 712 l 1
 129 754 l 1
 200 754 l 1
 247 712 l 1
 247 637 l 1
 205 595 l 1
 129 595 l 1
 87 637 l 1
299 637 m 1
 299 712 l 1
 341 754 l 1
 412 754 l 1
 459 712 l 1
 459 637 l 1
 417 595 l 1
 341 595 l 1
 299 637 l 1
EndSplineSet
EndChar

StartChar: Scedilla
Encoding: 350 350 314
Width: 600
GlyphClass: 1
Flags: MW
HStem: -330 21G<170 170 170 275> 0 145<203 376 203 438 174 376> 565 145<225 397 225 225>
LayerCount: 2
Fore
SplineSet
36 448 m 1
 36 583 l 1
 163 710 l 1
 426 710 l 1
 570 661 l 1
 523 522 l 1
 397 565 l 1
 225 565 l 1
 191 531 l 1
 191 506 l 1
 204 479 l 1
 523 341 l 1
 565 262 l 1
 565 127 l 1
 438 0 l 1
 174 0 l 1
 30 49 l 1
 77 188 l 1
 203 145 l 1
 376 145 l 1
 410 179 l 1
 410 204 l 1
 397 231 l 1
 78 369 l 1
 36 448 l 1
170 -330 m 1
 235 -40 l 1
 380 -40 l 1
 275 -330 l 1
 170 -330 l 1
EndSplineSet
EndChar

StartChar: Idotaccent
Encoding: 304 304 315
Width: 407
GlyphClass: 1
Flags: MW
HStem: 0 135<30 126 281 377 30 126> 575 135<30 126 30 377 281 281 281 377> 766 159<165 236 165 241 165 236>
VStem: 126 155<135 575 135 575>
LayerCount: 2
Fore
SplineSet
377 0 m 1
 30 0 l 1
 30 135 l 1
 126 135 l 1
 126 575 l 1
 30 575 l 1
 30 710 l 1
 377 710 l 1
 377 575 l 1
 281 575 l 1
 281 135 l 1
 377 135 l 1
 377 0 l 1
123 808 m 1
 123 883 l 1
 165 925 l 1
 236 925 l 1
 283 883 l 1
 283 808 l 1
 241 766 l 1
 165 766 l 1
 123 808 l 1
EndSplineSet
EndChar

StartChar: ccedilla
Encoding: 231 231 316
Width: 554
GlyphClass: 1
Flags: MW
HStem: -274 115<240 300 240 346 240 300> -125 154<240 300 240 320> 0 29<240 320 240 394> 0 145<224 375 224 394 158 375> 325 218<377 424 158 532 377 377> 398 145<224 358 224 224>
VStem: 50 155<164 379 164 436 164 436> 240 187<-193 -159 -159 -159 -125 -91 -193 29 -193 29>
LayerCount: 2
Fore
SplineSet
375 145 m 1x97
 500 185 l 1
 544 47 l 1
 394 0 l 1
 158 0 l 1
 50 107 l 1
 50 436 l 1
 158 543 l 1
 424 543 l 1
 532 436 l 1
 532 325 l 1
 377 325 l 1xab
 377 379 l 1
 358 398 l 1
 224 398 l 1
 205 379 l 1
 205 164 l 1
 224 145 l 1
 375 145 l 1x97
300 -125 m 1xcb
 240 -125 l 1
 240 29 l 1
 320 29 l 1
 320 -10 l 1
 346 -10 l 1
 427 -91 l 1
 427 -193 l 1
 346 -274 l 1
 240 -274 l 1
 240 -159 l 1
 300 -159 l 1
 307 -152 l 1
 307 -132 l 1
 300 -125 l 1xcb
EndSplineSet
EndChar

StartChar: Ccedilla
Encoding: 199 199 317
Width: 619
GlyphClass: 1
Flags: MW
HStem: -274 115<261 321 261 367 261 321> 0 145<245 261 178 407 341 341 341 407 245 474> 565 145<245 400 245 245>
VStem: 50 155<185 525 185 582 185 582> 261 187<-193 -159 -159 -159 -125 -91 -193 0 -193 0> 440 155<450 525 525 525>
LayerCount: 2
Fore
SplineSet
321 -125 m 1xf8
 261 -125 l 1
 261 0 l 1xf8
 178 0 l 1
 50 128 l 1
 50 582 l 1
 178 710 l 1
 467 710 l 1
 595 582 l 1
 595 450 l 1
 440 450 l 1
 440 525 l 1xf4
 400 565 l 1
 245 565 l 1
 205 525 l 1
 205 185 l 1
 245 145 l 1
 407 145 l 1
 503 241 l 1
 609 135 l 1
 474 0 l 1
 341 0 l 1
 341 -10 l 1
 367 -10 l 1
 448 -91 l 1
 448 -193 l 1
 367 -274 l 1
 261 -274 l 1
 261 -159 l 1
 321 -159 l 1
 328 -152 l 1
 328 -132 l 1
 321 -125 l 1xf8
EndSplineSet
EndChar

StartChar: eogonek
Encoding: 281 281 318
Width: 569
GlyphClass: 1
Flags: MW
HStem: -170 115<342 412 342 412 296 412> 0 135<158 373 158 373 335 373 224 392 335 335> 200 125<205 363 205 434 205 363> 418 125<224 224 224 358>
VStem: 50 155<154 200 154 325 325 399> 215 197<-89 -55 -170 0 -170 0> 377 155<339 399 399 399>
LayerCount: 2
Fore
SplineSet
373 135 m 1xfa
 498 175 l 1
 539 46 l 1
 392 0 l 1
 335 0 l 1
 335 -48 l 1
 342 -55 l 1
 412 -55 l 1
 412 -170 l 1
 296 -170 l 1
 215 -89 l 1
 215 0 l 1xfc
 158 0 l 1
 50 107 l 1
 50 436 l 1
 158 543 l 1
 424 543 l 1
 532 436 l 1
 532 297 l 1
 434 200 l 1
 205 200 l 1
 205 154 l 1
 224 135 l 1
 373 135 l 1xfa
224 418 m 1
 205 399 l 1
 205 325 l 1
 363 325 l 1
 377 339 l 1
 377 399 l 1xfa
 358 418 l 1
 224 418 l 1
EndSplineSet
EndChar

StartChar: Eogonek
Encoding: 280 280 319
Width: 573
GlyphClass: 1
Flags: MW
HStem: -170 115<368 438 368 438 322 438> 0 145<215 241 361 361 361 553> 298 145<215 511 215 511> 565 145<215 553 215 215>
VStem: 60 155<145 298 443 565> 241 197<-89 -55 -170 0 -170 0>
LayerCount: 2
Fore
SplineSet
60 0 m 1
 60 710 l 1
 553 710 l 1
 553 565 l 1
 215 565 l 1
 215 443 l 1
 511 443 l 1
 511 298 l 1
 215 298 l 1
 215 145 l 1
 553 145 l 1
 553 0 l 1
 361 0 l 1
 361 -48 l 1
 368 -55 l 1
 438 -55 l 1
 438 -170 l 1
 322 -170 l 1
 241 -89 l 1
 241 0 l 1
 60 0 l 1
EndSplineSet
EndChar

StartChar: divide
Encoding: 247 247 320
Width: 520
GlyphClass: 1
Flags: MW
HStem: 71 169<217 298 217 303 217 298> 277 135<20 500 20 500> 450 169<217 298 217 303 217 298>
VStem: 175 170<113 198 113 198 492 577>
LayerCount: 2
Fore
SplineSet
20 412 m 1
 500 412 l 1
 500 277 l 1
 20 277 l 1
 20 412 l 1
175 113 m 1
 175 198 l 1
 217 240 l 1
 298 240 l 1
 345 198 l 1
 345 113 l 1
 303 71 l 1
 217 71 l 1
 175 113 l 1
175 492 m 1
 175 577 l 1
 217 619 l 1
 298 619 l 1
 345 577 l 1
 345 492 l 1
 303 450 l 1
 217 450 l 1
 175 492 l 1
EndSplineSet
EndChar

StartChar: multiply
Encoding: 215 215 321
Width: 474
GlyphClass: 1
Flags: MW
HStem: 127 21G<116 116 353 353> 542 20G<122 122 360 360>
LayerCount: 2
Fore
SplineSet
20 460 m 1
 122 562 l 1
 241 443 l 1
 360 562 l 1
 455 466 l 1
 336 347 l 1
 454 229 l 1
 353 127 l 1
 234 245 l 1
 116 127 l 1
 20 222 l 1
 139 341 l 1
 20 460 l 1
EndSplineSet
EndChar

StartChar: Atilde
Encoding: 195 195 322
Width: 620
GlyphClass: 1
Flags: MW
HStem: -20 21G<146 146 474 474> 139 135<239 381 239 420 195 381> 942 20G<334 437 437 437>
LayerCount: 2
Fore
SplineSet
437 962 m 1
 533 867 l 1
 428 761 l 1
 358 830 l 1
 273 754 l 1
 170 754 l 1
 74 849 l 1
 179 955 l 1
 249 886 l 1
 334 962 l 1
 437 962 l 1
229 710 m 1
 391 710 l 1
 620 29 l 1
 474 -20 l 1
 420 139 l 1
 195 139 l 1
 146 -20 l 1
 0 29 l 1
 229 710 l 1
381 274 m 1
 325 440 l 1
 312 514 l 1
 308 514 l 1
 295 440 l 1
 239 274 l 1
 381 274 l 1
EndSplineSet
EndChar

StartChar: Ntilde
Encoding: 209 209 323
Width: 666
GlyphClass: 1
Flags: MW
HStem: 0 21G<60 215 60 60 467 467 467 606> 942 20G<350 453 453 453>
VStem: 60 155<0 372 0 710> 451 155<338 710 0 710>
LayerCount: 2
Fore
SplineSet
215 372 m 1
 215 0 l 1
 60 0 l 1
 60 710 l 1
 199 710 l 1
 432 337 l 1
 458 271 l 1
 462 271 l 1
 451 338 l 1
 451 710 l 1
 606 710 l 1
 606 0 l 1
 467 0 l 1
 234 373 l 1
 208 439 l 1
 204 439 l 1
 215 372 l 1
453 962 m 1
 549 867 l 1
 444 761 l 1
 374 830 l 1
 289 754 l 1
 186 754 l 1
 90 849 l 1
 195 955 l 1
 265 886 l 1
 350 962 l 1
 453 962 l 1
EndSplineSet
EndChar

StartChar: Otilde
Encoding: 213 213 324
Width: 675
GlyphClass: 1
Flags: MW
HStem: 0 145<251 424 251 486 189 424> 565 145<251 424 251 251> 942 20G<366 469 469 469>
VStem: 50 155<187 523 187 584 187 584> 470 155<187 523 523 523>
LayerCount: 2
Fore
SplineSet
189 710 m 1
 486 710 l 1
 625 584 l 1
 625 126 l 1
 486 0 l 1
 189 0 l 1
 50 126 l 1
 50 584 l 1
 189 710 l 1
470 523 m 1
 424 565 l 1
 251 565 l 1
 205 523 l 1
 205 187 l 1
 251 145 l 1
 424 145 l 1
 470 187 l 1
 470 523 l 1
469 962 m 1
 565 867 l 1
 460 761 l 1
 390 830 l 1
 305 754 l 1
 202 754 l 1
 106 849 l 1
 211 955 l 1
 281 886 l 1
 366 962 l 1
 469 962 l 1
EndSplineSet
EndChar

StartChar: atilde
Encoding: 227 227 325
Width: 579
GlyphClass: 1
Flags: MW
HStem: -15 21G<426 426> 0 125<204 313 204 353 138 313> 219 125<204 358 204 204> 408 135<201 339 201 201> 775 20G<312 415 415 415>
VStem: 358 155<177 219 219 219 344 389 389 389>
LayerCount: 2
Fore
SplineSet
513 169 m 1x7c
 549 13 l 1
 426 -15 l 1xbc
 408 63 l 1
 353 0 l 1
 138 0 l 1
 30 107 l 1
 30 237 l 1
 138 344 l 1
 358 344 l 1
 358 389 l 1
 339 408 l 1
 201 408 l 1
 76 368 l 1
 35 497 l 1
 182 543 l 1
 405 543 l 1
 513 436 l 1
 513 169 l 1x7c
358 177 m 1
 358 219 l 1
 204 219 l 1
 185 200 l 1
 185 144 l 1
 204 125 l 1
 313 125 l 1x7c
 358 177 l 1
415 795 m 1
 511 700 l 1
 406 594 l 1
 336 663 l 1
 251 587 l 1
 148 587 l 1
 52 682 l 1
 157 788 l 1
 227 719 l 1
 312 795 l 1
 415 795 l 1
EndSplineSet
EndChar

StartChar: ntilde
Encoding: 241 241 326
Width: 599
GlyphClass: 1
Flags: MW
HStem: 0 21G<66 221 66 66 394 549 394 394> 398 145<266 375 266 266> 775 20G<341 444 444 444>
VStem: 66 155<0 346 0 374 0 374> 394 155<0 379 379 379>
LayerCount: 2
Fore
SplineSet
549 436 m 1
 549 0 l 1
 394 0 l 1
 394 379 l 1
 375 398 l 1
 266 398 l 1
 221 346 l 1
 221 0 l 1
 66 0 l 1
 66 374 l 1
 30 530 l 1
 153 558 l 1
 171 480 l 1
 226 543 l 1
 441 543 l 1
 549 436 l 1
444 795 m 1
 540 700 l 1
 435 594 l 1
 365 663 l 1
 280 587 l 1
 177 587 l 1
 81 682 l 1
 186 788 l 1
 256 719 l 1
 341 795 l 1
 444 795 l 1
EndSplineSet
EndChar

StartChar: otilde
Encoding: 245 245 327
Width: 587
GlyphClass: 1
Flags: MW
HStem: 0 145<224 363 224 430 157 363> 398 145<224 363 224 224> 775 20G<329 432 432 432>
VStem: 50 155<164 379 164 435 164 435> 382 155<164 379 379 379>
LayerCount: 2
Fore
SplineSet
537 108 m 1
 430 0 l 1
 157 0 l 1
 50 108 l 1
 50 435 l 1
 157 543 l 1
 430 543 l 1
 537 435 l 1
 537 108 l 1
224 145 m 1
 363 145 l 1
 382 164 l 1
 382 379 l 1
 363 398 l 1
 224 398 l 1
 205 379 l 1
 205 164 l 1
 224 145 l 1
432 795 m 1
 528 700 l 1
 423 594 l 1
 353 663 l 1
 268 587 l 1
 165 587 l 1
 69 682 l 1
 174 788 l 1
 244 719 l 1
 329 795 l 1
 432 795 l 1
EndSplineSet
EndChar

StartChar: Rcommaaccent
Encoding: 342 342 328
Width: 641
GlyphClass: 1
Flags: MW
HStem: -325 21G<196 196 196 301> -20 20G<60 215 60 60> 565 145<215 414 215 215>
VStem: 60 155<0 264 409 565> 450 155<446 528 528 528>
LayerCount: 2
Fore
SplineSet
414 565 m 1
 215 565 l 1
 215 409 l 1
 414 409 l 1
 450 446 l 1
 450 528 l 1
 414 565 l 1
456 253 m 1
 621 84 l 1
 510 -25 l 1
 228 264 l 1
 215 264 l 1
 215 0 l 1
 60 0 l 1
 60 710 l 1
 494 710 l 1
 605 600 l 1
 605 374 l 1
 494 264 l 1
 458 264 l 1
 423 281 l 1
 421 278 l 1
 456 253 l 1
196 -325 m 1
 261 -35 l 1
 406 -35 l 1
 301 -325 l 1
 196 -325 l 1
EndSplineSet
EndChar

StartChar: rcommaaccent
Encoding: 343 343 329
Width: 520
GlyphClass: 1
Flags: MW
HStem: -325 21G<14 14 14 119> -20 20G<66 221 66 66> 398 145<266 266 266 351> 538 20G<153 153>
VStem: 66 155<0 346 0 374 0 374>
LayerCount: 2
Fore
SplineSet
266 398 m 1xe8
 221 346 l 1
 221 0 l 1
 66 0 l 1
 66 374 l 1
 30 530 l 1
 153 558 l 1xd8
 171 480 l 1
 226 543 l 1
 414 543 l 1
 530 429 l 1
 427 324 l 1
 351 398 l 1
 266 398 l 1xe8
14 -325 m 1xe8
 79 -35 l 1
 224 -35 l 1
 119 -325 l 1
 14 -325 l 1xe8
EndSplineSet
EndChar

StartChar: Gcommaaccent
Encoding: 290 290 330
Width: 645
GlyphClass: 1
Flags: MW
HStem: -325 21G<196 196 196 301> 0 145<245 400 245 468 178 400> 266 125<287 440 287 595> 565 145<245 400 245 245>
VStem: 50 155<185 525 185 582 185 582> 440 155<185 266 266 266 450 525 525 525>
LayerCount: 2
Fore
SplineSet
245 145 m 1
 400 145 l 1
 414 159 426 170 440 185 c 1
 440 266 l 1
 287 266 l 1
 287 391 l 1
 595 391 l 1
 595 127 l 1
 468 0 l 1
 178 0 l 1
 50 128 l 1
 50 582 l 1
 178 710 l 1
 467 710 l 1
 595 582 l 1
 595 450 l 1
 440 450 l 1
 440 525 l 1
 400 565 l 1
 245 565 l 1
 205 525 l 1
 205 185 l 1
 245 145 l 1
196 -325 m 1
 261 -35 l 1
 406 -35 l 1
 301 -325 l 1
 196 -325 l 1
EndSplineSet
EndChar

StartChar: Kcommaaccent
Encoding: 310 310 331
Width: 594
GlyphClass: 1
Flags: MW
HStem: -325 21G<193 193 193 298> -20 20G 710 20G
VStem: 60 155<0 216 437 710>
LayerCount: 2
Fore
SplineSet
378 389 m 1
 593 64 l 1
 467 -20 l 1
 270 277 l 1
 215 216 l 1
 215 0 l 1
 60 0 l 1
 60 710 l 1
 215 710 l 1
 215 437 l 1
 479 730 l 1
 593 628 l 1
 378 389 l 1
193 -325 m 1
 258 -35 l 1
 403 -35 l 1
 298 -325 l 1
 193 -325 l 1
EndSplineSet
EndChar

StartChar: Lcommaaccent
Encoding: 315 315 332
Width: 553
GlyphClass: 1
Flags: MW
HStem: -325 21G<187 187 187 292> 0 145<215 543 215 543> 690 20G<60 215 215 215>
VStem: 60 155<145 710 145 710 145 710>
LayerCount: 2
Fore
SplineSet
60 0 m 1
 60 710 l 1
 215 710 l 1
 215 145 l 1
 543 145 l 1
 543 0 l 1
 60 0 l 1
187 -325 m 1
 252 -35 l 1
 397 -35 l 1
 292 -325 l 1
 187 -325 l 1
EndSplineSet
EndChar

StartChar: Ncommaaccent
Encoding: 325 325 333
Width: 666
GlyphClass: 1
Flags: MW
HStem: -325 21G<199 199 199 304> -20 20G<60 215 60 60 467 467 467 606> 690 20G<60 199 199 199 451 606 606 606>
VStem: 60 155<0 372 0 710> 451 155<338 710 0 710>
LayerCount: 2
Fore
SplineSet
215 372 m 1
 215 0 l 1
 60 0 l 1
 60 710 l 1
 199 710 l 1
 432 337 l 1
 458 271 l 1
 462 271 l 1
 451 338 l 1
 451 710 l 1
 606 710 l 1
 606 0 l 1
 467 0 l 1
 234 373 l 1
 208 439 l 1
 204 439 l 1
 215 372 l 1
199 -325 m 1
 264 -35 l 1
 409 -35 l 1
 304 -325 l 1
 199 -325 l 1
EndSplineSet
EndChar

StartChar: Edotaccent
Encoding: 278 278 334
Width: 573
GlyphClass: 1
Flags: MW
HStem: 0 145<215 553 215 553> 298 145<215 511 215 511> 565 145<215 553 215 215> 766 159<262 333 262 338 262 333>
VStem: 60 155<145 298 443 565> 220 160<808 883 808 883>
LayerCount: 2
Fore
SplineSet
60 0 m 1
 60 710 l 1
 553 710 l 1
 553 565 l 1
 215 565 l 1
 215 443 l 1
 511 443 l 1
 511 298 l 1
 215 298 l 1
 215 145 l 1
 553 145 l 1
 553 0 l 1
 60 0 l 1
220 808 m 1
 220 883 l 1
 262 925 l 1
 333 925 l 1
 380 883 l 1
 380 808 l 1
 338 766 l 1
 262 766 l 1
 220 808 l 1
EndSplineSet
EndChar

StartChar: edotaccent
Encoding: 279 279 335
Width: 569
GlyphClass: 1
Flags: MW
HStem: 0 135<224 373 224 392 158 373> 200 125<205 363 205 434 205 363> 418 125<224 224 224 358> 595 159<246 317 246 322 246 317>
VStem: 50 155<154 200 154 325 325 399> 204 160<637 712 637 712> 377 155<339 399 399 399>
LayerCount: 2
Fore
SplineSet
373 135 m 1xfa
 498 175 l 1
 539 46 l 1
 392 0 l 1
 158 0 l 1
 50 107 l 1
 50 436 l 1
 158 543 l 1
 424 543 l 1
 532 436 l 1
 532 297 l 1
 434 200 l 1
 205 200 l 1
 205 154 l 1
 224 135 l 1
 373 135 l 1xfa
224 418 m 1
 205 399 l 1
 205 325 l 1
 363 325 l 1
 377 339 l 1
 377 399 l 1
 358 418 l 1
 224 418 l 1
204 637 m 1xf6
 204 712 l 1
 246 754 l 1
 317 754 l 1
 364 712 l 1
 364 637 l 1
 322 595 l 1
 246 595 l 1
 204 637 l 1xf6
EndSplineSet
EndChar

StartChar: gcommaaccent
Encoding: 291 291 336
Width: 572
GlyphClass: 1
Flags: MW
HStem: -168 125<177 376 193 376 193 439> -8 125<188 376 125 439> 152 130<233 353 233 419 188 353> 413 130<214 320 214 214> 848 20G<307 412 412 412>
VStem: 40 155<77 394 192 394 320 394 320 436 320 436> 372 155<301 368 368 368>
LayerCount: 2
Fore
SplineSet
372 368 m 1
 320 413 l 1
 214 413 l 1
 195 394 l 1
 195 320 l 1
 233 282 l 1
 353 282 l 1
 372 301 l 1
 372 368 l 1
177 -168 m 1
 30 -122 l 1
 68 -3 l 1
 193 -43 l 1
 376 -43 l 1
 389 -30 l 1
 389 -21 l 1
 376 -8 l 1
 125 -8 l 1
 40 77 l 1
 40 192 l 1
 88 240 l 1
 40 288 l 1
 40 436 l 1
 148 543 l 1
 358 543 l 1
 514 579 l 1
 542 456 l 1
 464 438 l 1
 527 383 l 1
 527 259 l 1
 419 152 l 1
 188 152 l 1
 175 139 l 1
 175 130 l 1
 188 117 l 1
 439 117 l 1
 524 32 l 1
 524 -83 l 1
 439 -168 l 1
 177 -168 l 1
412 868 m 1
 347 578 l 1
 202 578 l 1
 307 868 l 1
 412 868 l 1
EndSplineSet
EndChar

StartChar: kcommaaccent
Encoding: 311 311 337
Width: 535
GlyphClass: 1
Flags: MW
HStem: -325 21G<170 170 170 275> -20 20G 706 20G<176 176>
VStem: 69 155<0 154 360 559 559 559>
LayerCount: 2
Fore
SplineSet
69 559 m 1
 30 678 l 1
 176 726 l 1
 224 580 l 1
 224 360 l 1
 429 563 l 1
 535 455 l 1
 363 285 l 1
 535 77 l 1
 418 -20 l 1
 252 181 l 1
 224 154 l 1
 224 0 l 1
 69 0 l 1
 69 559 l 1
170 -325 m 1
 235 -35 l 1
 380 -35 l 1
 275 -325 l 1
 170 -325 l 1
EndSplineSet
EndChar

StartChar: lcommaaccent
Encoding: 316 316 338
Width: 274
GlyphClass: 1
Flags: MW
HStem: -325 21G<19 19 19 124> -35 35<84 224 69 229 69 229> 706 20G<176 176>
VStem: 69 155<0 559 559 559>
LayerCount: 2
Fore
SplineSet
69 559 m 1
 30 678 l 1
 176 726 l 1
 224 580 l 1
 224 0 l 1
 69 0 l 1
 69 559 l 1
19 -325 m 1
 84 -35 l 1
 229 -35 l 1
 124 -325 l 1
 19 -325 l 1
EndSplineSet
EndChar

StartChar: ncommaaccent
Encoding: 326 326 339
Width: 599
GlyphClass: 1
Flags: MW
HStem: -325 21G<181 181 181 286> -20 20G<66 221 66 66 394 549 394 394> 398 145<266 375 266 266> 538 20G<153 153>
VStem: 66 155<0 346 0 374 0 374> 394 155<0 379 379 379>
LayerCount: 2
Fore
SplineSet
549 436 m 1xec
 549 0 l 1
 394 0 l 1
 394 379 l 1
 375 398 l 1
 266 398 l 1xec
 221 346 l 1
 221 0 l 1
 66 0 l 1
 66 374 l 1
 30 530 l 1
 153 558 l 1xdc
 171 480 l 1
 226 543 l 1
 441 543 l 1
 549 436 l 1xec
181 -325 m 1
 246 -35 l 1
 391 -35 l 1
 286 -325 l 1
 181 -325 l 1
EndSplineSet
EndChar

StartChar: Amacron
Encoding: 256 256 340
Width: 620
GlyphClass: 1
Flags: MW
HStem: -20 21G<146 146 474 474> 139 135<239 381 239 420 195 381> 785 135<151 469 151 469>
LayerCount: 2
Fore
SplineSet
151 785 m 1
 151 920 l 1
 469 920 l 1
 469 785 l 1
 151 785 l 1
229 710 m 1
 391 710 l 1
 620 29 l 1
 474 -20 l 1
 420 139 l 1
 195 139 l 1
 146 -20 l 1
 0 29 l 1
 229 710 l 1
381 274 m 1
 325 440 l 1
 312 514 l 1
 308 514 l 1
 295 440 l 1
 239 274 l 1
 381 274 l 1
EndSplineSet
EndChar

StartChar: Emacron
Encoding: 274 274 341
Width: 573
GlyphClass: 1
Flags: MW
HStem: 0 145<215 553 215 553> 298 145<215 511 215 511> 565 145<215 553 215 215> 785 135<152 470 152 470>
VStem: 60 155<145 298 443 565>
LayerCount: 2
Fore
SplineSet
60 0 m 1
 60 710 l 1
 553 710 l 1
 553 565 l 1
 215 565 l 1
 215 443 l 1
 511 443 l 1
 511 298 l 1
 215 298 l 1
 215 145 l 1
 553 145 l 1
 553 0 l 1
 60 0 l 1
152 785 m 1
 152 920 l 1
 470 920 l 1
 470 785 l 1
 152 785 l 1
EndSplineSet
EndChar

StartChar: Omacron
Encoding: 332 332 342
Width: 675
GlyphClass: 1
Flags: MW
HStem: 0 145<251 424 251 486 189 424> 565 145<251 424 251 251> 785 135<180 498 180 498>
VStem: 50 155<187 523 187 584 187 584> 470 155<187 523 523 523>
LayerCount: 2
Fore
SplineSet
189 710 m 1
 486 710 l 1
 625 584 l 1
 625 126 l 1
 486 0 l 1
 189 0 l 1
 50 126 l 1
 50 584 l 1
 189 710 l 1
470 523 m 1
 424 565 l 1
 251 565 l 1
 205 523 l 1
 205 187 l 1
 251 145 l 1
 424 145 l 1
 470 187 l 1
 470 523 l 1
180 785 m 1
 180 920 l 1
 498 920 l 1
 498 785 l 1
 180 785 l 1
EndSplineSet
EndChar

StartChar: Umacron
Encoding: 362 362 343
Width: 645
GlyphClass: 1
Flags: MW
HStem: 0 145<178 400 245 400 245 467> 785 135<161 479 161 479>
VStem: 50 155<185 710 185 710 185 710> 440 155<185 710 127 710>
LayerCount: 2
Fore
SplineSet
178 0 m 1
 50 127 l 1
 50 710 l 1
 205 710 l 1
 205 185 l 1
 245 145 l 1
 400 145 l 1
 440 185 l 1
 440 710 l 1
 595 710 l 1
 595 127 l 1
 467 0 l 1
 178 0 l 1
161 785 m 1
 161 920 l 1
 479 920 l 1
 479 785 l 1
 161 785 l 1
EndSplineSet
EndChar

StartChar: amacron
Encoding: 257 257 344
Width: 579
GlyphClass: 1
Flags: MW
HStem: -15 21G<426 426> 0 125<204 313 204 353 138 313> 219 125<204 358 204 204> 408 135<201 339 201 201> 598 135<132 450 132 450>
VStem: 358 155<177 219 219 219 344 389 389 389>
LayerCount: 2
Fore
SplineSet
513 169 m 1x7c
 549 13 l 1
 426 -15 l 1xbc
 408 63 l 1
 353 0 l 1
 138 0 l 1
 30 107 l 1
 30 237 l 1
 138 344 l 1
 358 344 l 1
 358 389 l 1
 339 408 l 1
 201 408 l 1
 76 368 l 1
 35 497 l 1
 182 543 l 1
 405 543 l 1
 513 436 l 1
 513 169 l 1x7c
358 177 m 1
 358 219 l 1
 204 219 l 1
 185 200 l 1
 185 144 l 1
 204 125 l 1
 313 125 l 1x7c
 358 177 l 1
132 598 m 1
 132 733 l 1
 450 733 l 1
 450 598 l 1
 132 598 l 1
EndSplineSet
EndChar

StartChar: emacron
Encoding: 275 275 345
Width: 569
GlyphClass: 1
Flags: MW
HStem: 0 135<224 373 224 392 158 373> 200 125<205 363 205 434 205 363> 418 125<224 224 224 358> 598 135<133 451 133 451>
VStem: 50 155<154 200 154 325 325 399> 377 155<339 399 399 399>
LayerCount: 2
Fore
SplineSet
373 135 m 1
 498 175 l 1
 539 46 l 1
 392 0 l 1
 158 0 l 1
 50 107 l 1
 50 436 l 1
 158 543 l 1
 424 543 l 1
 532 436 l 1
 532 297 l 1
 434 200 l 1
 205 200 l 1
 205 154 l 1
 224 135 l 1
 373 135 l 1
224 418 m 1
 205 399 l 1
 205 325 l 1
 363 325 l 1
 377 339 l 1
 377 399 l 1
 358 418 l 1
 224 418 l 1
133 598 m 1
 133 733 l 1
 451 733 l 1
 451 598 l 1
 133 598 l 1
EndSplineSet
EndChar

StartChar: imacron
Encoding: 299 299 346
Width: 277
GlyphClass: 1
Flags: MW
HStem: 0 21G<69 224 69 69> 598 135<-20 298 -20 298>
VStem: 69 155<0 381 381 381>
LayerCount: 2
Fore
SplineSet
69 381 m 1
 30 500 l 1
 176 548 l 1
 224 402 l 1
 224 0 l 1
 69 0 l 1
 69 381 l 1
-20 598 m 1
 -20 733 l 1
 298 733 l 1
 298 598 l 1
 -20 598 l 1
EndSplineSet
EndChar

StartChar: omacron
Encoding: 333 333 347
Width: 587
GlyphClass: 1
Flags: MW
HStem: 0 145<224 363 224 430 157 363> 398 145<224 363 224 224> 598 135<136 454 136 454>
VStem: 50 155<164 379 164 435 164 435> 382 155<164 379 379 379>
LayerCount: 2
Fore
SplineSet
537 108 m 1
 430 0 l 1
 157 0 l 1
 50 108 l 1
 50 435 l 1
 157 543 l 1
 430 543 l 1
 537 435 l 1
 537 108 l 1
224 145 m 1
 363 145 l 1
 382 164 l 1
 382 379 l 1
 363 398 l 1
 224 398 l 1
 205 379 l 1
 205 164 l 1
 224 145 l 1
136 598 m 1
 136 733 l 1
 454 733 l 1
 454 598 l 1
 136 598 l 1
EndSplineSet
EndChar

StartChar: umacron
Encoding: 363 363 348
Width: 599
GlyphClass: 1
Flags: MW
HStem: -15 21G<446 446> 0 145<224 333 224 373 158 333> 598 135<135 453 135 453>
VStem: 50 155<164 543 164 543 164 543> 378 155<197 543 169 543>
LayerCount: 2
Fore
SplineSet
50 107 m 1x78
 50 543 l 1
 205 543 l 1
 205 164 l 1
 224 145 l 1
 333 145 l 1x78
 378 197 l 1
 378 543 l 1
 533 543 l 1
 533 169 l 1
 569 13 l 1
 446 -15 l 1xb8
 428 63 l 1
 373 0 l 1
 158 0 l 1
 50 107 l 1x78
135 598 m 1
 135 733 l 1
 453 733 l 1
 453 598 l 1
 135 598 l 1
EndSplineSet
EndChar

StartChar: aring
Encoding: 229 229 349
Width: 579
GlyphClass: 1
Flags: MW
HStem: -15 21G<426 426> 0 125<204 313 204 353 138 313> 219 125<204 358 204 204> 408 135<201 339 201 201> 588 240<251 337 251 337>
VStem: 358 155<177 219 219 219 344 389 389 389>
LayerCount: 2
Fore
SplineSet
513 169 m 1x7c
 549 13 l 1
 426 -15 l 1xbc
 408 63 l 1
 353 0 l 1
 138 0 l 1
 30 107 l 1
 30 237 l 1
 138 344 l 1
 358 344 l 1
 358 389 l 1
 339 408 l 1
 201 408 l 1
 76 368 l 1
 35 497 l 1
 182 543 l 1
 405 543 l 1
 513 436 l 1
 513 169 l 1x7c
358 177 m 1
 358 219 l 1
 204 219 l 1
 185 200 l 1
 185 144 l 1
 204 125 l 1
 313 125 l 1x7c
 358 177 l 1
279 738 m 1
 264 723 l 1
 264 693 l 1
 279 678 l 1
 309 678 l 1
 324 693 l 1
 324 723 l 1
 309 738 l 1
 279 738 l 1
251 828 m 1
 337 828 l 1
 419 746 l 1
 419 670 l 1
 337 588 l 1
 251 588 l 1
 169 670 l 1
 169 746 l 1
 251 828 l 1
EndSplineSet
EndChar

StartChar: Aring
Encoding: 197 197 350
Width: 620
GlyphClass: 1
Flags: MW
HStem: -20 21G<146 146 474 474> 139 135<239 381 239 420 195 381> 840 20G<267 353 353 353>
LayerCount: 2
Fore
SplineSet
267 860 m 1
 353 860 l 1
 435 778 l 1
 435 702 l 1
 404 671 l 1
 620 29 l 1
 474 -20 l 1
 420 139 l 1
 195 139 l 1
 146 -20 l 1
 0 29 l 1
 216 671 l 1
 185 702 l 1
 185 778 l 1
 267 860 l 1
381 274 m 1
 325 440 l 1
 312 514 l 1
 308 514 l 1
 295 440 l 1
 239 274 l 1
 381 274 l 1
295 770 m 1
 280 755 l 1
 280 725 l 1
 295 710 l 1
 325 710 l 1
 340 725 l 1
 340 755 l 1
 325 770 l 1
 295 770 l 1
EndSplineSet
EndChar

StartChar: Uring
Encoding: 366 366 351
Width: 645
GlyphClass: 1
Flags: MW
HStem: 0 145<178 400 245 400 245 467> 750 160<280 293 353 366 280 280>
VStem: 50 155<185 710 185 710 185 710> 440 155<185 710 127 710>
LayerCount: 2
Fore
SplineSet
178 0 m 1
 50 127 l 1
 50 710 l 1
 205 710 l 1
 205 185 l 1
 245 145 l 1
 400 145 l 1
 440 185 l 1
 440 710 l 1
 595 710 l 1
 595 127 l 1
 467 0 l 1
 178 0 l 1
338 840 m 1
 353 855 l 1
 353 910 l 1
 448 910 l 1
 448 832 l 1
 366 750 l 1
 280 750 l 1
 198 832 l 1
 198 910 l 1
 293 910 l 1
 293 855 l 1
 308 840 l 1
 338 840 l 1
EndSplineSet
EndChar

StartChar: uring
Encoding: 367 367 352
Width: 599
GlyphClass: 1
Flags: MW
HStem: -15 21G<446 446> 0 145<224 333 224 373 158 333> 583 240<249 335 249 335>
VStem: 50 155<164 543 164 543 164 543> 378 155<197 543 169 543>
LayerCount: 2
Fore
SplineSet
50 107 m 1x78
 50 543 l 1
 205 543 l 1
 205 164 l 1
 224 145 l 1
 333 145 l 1x78
 378 197 l 1
 378 543 l 1
 533 543 l 1
 533 169 l 1
 569 13 l 1
 446 -15 l 1xb8
 428 63 l 1
 373 0 l 1
 158 0 l 1
 50 107 l 1x78
277 733 m 1
 262 718 l 1
 262 688 l 1
 277 673 l 1
 307 673 l 1
 322 688 l 1
 322 718 l 1
 307 733 l 1
 277 733 l 1
249 823 m 1
 335 823 l 1
 417 741 l 1
 417 665 l 1
 335 583 l 1
 249 583 l 1
 167 665 l 1
 167 741 l 1
 249 823 l 1
EndSplineSet
EndChar

StartChar: Uogonek
Encoding: 370 370 353
Width: 645
GlyphClass: 1
Flags: MW
HStem: -170 115<386 456 386 456 340 456> 0 145<178 400 245 259 379 379 379 400 245 467> 690 20G<50 205 205 205 440 595 595 595>
VStem: 50 155<185 710 185 710 185 710> 259 197<-89 -55 -170 0 -170 0> 440 155<185 710 127 710>
LayerCount: 2
Fore
SplineSet
178 0 m 1xf8
 50 127 l 1
 50 710 l 1
 205 710 l 1
 205 185 l 1
 245 145 l 1
 400 145 l 1
 440 185 l 1
 440 710 l 1
 595 710 l 1
 595 127 l 1xf4
 467 0 l 1
 379 0 l 1
 379 -48 l 1
 386 -55 l 1
 456 -55 l 1
 456 -170 l 1
 340 -170 l 1
 259 -89 l 1
 259 0 l 1
 178 0 l 1xf8
EndSplineSet
EndChar

StartChar: Iogonek
Encoding: 302 302 354
Width: 407
GlyphClass: 1
Flags: MW
HStem: -170 115<272 342 272 342 226 342> 0 135<30 126 30 145 30 126 281 377> 575 135<30 126 30 377 281 281 281 377>
VStem: 126 155<135 575 135 575> 145 197<-89 -55 -170 0 -170 0>
LayerCount: 2
Fore
SplineSet
145 0 m 1xe8
 30 0 l 1
 30 135 l 1
 126 135 l 1
 126 575 l 1
 30 575 l 1
 30 710 l 1
 377 710 l 1
 377 575 l 1
 281 575 l 1
 281 135 l 1xf0
 377 135 l 1
 377 0 l 1
 265 0 l 1
 265 -48 l 1
 272 -55 l 1
 342 -55 l 1
 342 -170 l 1
 226 -170 l 1
 145 -89 l 1
 145 0 l 1xe8
EndSplineSet
EndChar

StartChar: Aogonek
Encoding: 260 260 355
Width: 620
GlyphClass: 1
Flags: MW
HStem: -170 100<497 577 497 577 461 577> 139 135<239 381 239 420 195 381> 690 20G<229 391 391 391>
VStem: 380 197<-89 -70 -170 2 -170 2>
LayerCount: 2
Fore
SplineSet
490 -35 m 1
 490 -63 l 1
 497 -70 l 1
 577 -70 l 1
 577 -170 l 1
 461 -170 l 1
 380 -89 l 1
 380 2 l 1
 450 50 l 1
 420 139 l 1
 195 139 l 1
 146 -20 l 1
 0 29 l 1
 229 710 l 1
 391 710 l 1
 613 49 l 1
 490 -35 l 1
381 274 m 1
 325 440 l 1
 312 514 l 1
 308 514 l 1
 295 440 l 1
 239 274 l 1
 381 274 l 1
EndSplineSet
EndChar

StartChar: uogonek
Encoding: 371 371 356
Width: 599
GlyphClass: 1
Flags: MW
HStem: -170 93<489 568 489 568 452 568> 0 145<224 333 224 373 158 333> 523 20G<50 205 205 205 378 533 533 533>
VStem: 50 155<164 543 164 543 164 543> 378 155<197 543 169 543> 378 190
LayerCount: 2
Fore
SplineSet
481 -56 m 1xf8
 481 -70 l 1
 489 -77 l 1
 568 -77 l 1
 568 -170 l 1xf4
 452 -170 l 1
 371 -96 l 1
 371 -24 l 1
 436 26 l 1
 428 63 l 1
 373 0 l 1
 158 0 l 1
 50 107 l 1
 50 543 l 1
 205 543 l 1
 205 164 l 1
 224 145 l 1
 333 145 l 1
 378 197 l 1
 378 543 l 1
 533 543 l 1
 533 169 l 1
 570 11 l 1
 481 -56 l 1xf8
EndSplineSet
EndChar

StartChar: iogonek
Encoding: 303 303 357
Width: 277
GlyphClass: 1
Flags: MW
HStem: -170 93<143 222 143 222 106 222> 585 159<109 180 109 185 109 180>
VStem: 25 199<-96 402 -24 402> 69 155<11 381 381 381>
LayerCount: 2
Fore
SplineSet
135 -56 m 1xe0
 135 -70 l 1
 143 -77 l 1
 222 -77 l 1
 222 -170 l 1
 106 -170 l 1
 25 -96 l 1
 25 -24 l 1xe0
 69 9 l 1
 69 381 l 1xd0
 30 500 l 1
 176 548 l 1
 224 402 l 1
 224 11 l 1
 135 -56 l 1xe0
67 627 m 1
 67 702 l 1
 109 744 l 1
 180 744 l 1
 227 702 l 1
 227 627 l 1
 185 585 l 1
 109 585 l 1
 67 627 l 1
EndSplineSet
EndChar

StartChar: aogonek
Encoding: 261 261 358
Width: 579
GlyphClass: 1
Flags: MW
HStem: -170 93<469 548 469 548 432 548> 0 125<204 313 204 353 138 313> 219 125<204 358 204 204> 408 135<201 339 201 201>
VStem: 351 162 351 197<-96 -77 -170 -24 -170 -24>
LayerCount: 2
Fore
SplineSet
461 -56 m 1xf8
 461 -70 l 1
 469 -77 l 1
 548 -77 l 1
 548 -170 l 1xf4
 432 -170 l 1
 351 -96 l 1
 351 -24 l 1
 416 26 l 1
 408 63 l 1
 353 0 l 1
 138 0 l 1
 30 107 l 1
 30 237 l 1
 138 344 l 1
 358 344 l 1
 358 389 l 1
 339 408 l 1
 201 408 l 1
 76 368 l 1
 35 497 l 1
 182 543 l 1
 405 543 l 1
 513 436 l 1
 513 169 l 1
 550 11 l 1
 461 -56 l 1xf8
358 177 m 1
 358 219 l 1
 204 219 l 1
 185 200 l 1
 185 144 l 1
 204 125 l 1
 313 125 l 1
 358 177 l 1
EndSplineSet
EndChar

StartChar: Lslash
Encoding: 321 321 359
Width: 553
GlyphClass: 1
Flags: MW
HStem: 0 145<215 543 215 543> 690 20G<60 215 215 215>
VStem: -10 225<173 338 145 344 145 344> 60 155<145 224 224 224 508 710> 60 240<0 570 224 570 401 570 401 710 401 710>
LayerCount: 2
Fore
SplineSet
300 570 m 1xc8
 300 401 l 1xc8
 215 338 l 1
 215 145 l 1
 543 145 l 1
 543 0 l 1
 60 0 l 1
 60 224 l 1xd0
 -10 173 l 1
 -10 344 l 1xe0
 60 395 l 1
 60 710 l 1xd0
 215 710 l 1
 215 508 l 1xe0
 300 570 l 1xc8
EndSplineSet
EndChar

StartChar: lslash
Encoding: 322 322 360
Width: 274
GlyphClass: 1
Flags: MW
HStem: 0 21G<69 224 69 69> 706 20G<176 176>
VStem: -10 234<101 272 272 272> 69 155<0 159 159 159 442 559 559 559> 69 231<0 498 159 498 329 498 329 559 329 559>
LayerCount: 2
Fore
SplineSet
300 498 m 1xc8
 300 329 l 1xc8
 224 273 l 1
 224 0 l 1
 69 0 l 1
 69 159 l 1xd0
 -10 101 l 1
 -10 272 l 1xe0
 69 329 l 1
 69 559 l 1xd0
 30 678 l 1
 176 726 l 1
 224 580 l 1
 224 442 l 1xe0
 300 498 l 1xc8
EndSplineSet
EndChar

StartChar: ae
Encoding: 230 230 361
Width: 840
GlyphClass: 1
Flags: MW
HStem: 0 135<517 651 517 670 451 651> 210 125<204 343 204 204 498 641> 408 135<201 324 201 201>
VStem: 343 155<177 210 154 210 335 389 389 389>
LayerCount: 2
Fore
SplineSet
651 135 m 1
 776 175 l 1
 817 46 l 1
 670 0 l 1
 451 0 l 1
 390 60 l 1
 338 0 l 1
 138 0 l 1
 30 107 l 1
 30 228 l 1
 138 335 l 1
 343 335 l 1
 343 389 l 1
 324 408 l 1
 201 408 l 1
 76 368 l 1
 35 497 l 1
 182 543 l 1
 390 543 l 1
 420 513 l 1
 451 543 l 1
 702 543 l 1
 810 436 l 1
 810 307 l 1
 712 210 l 1
 498 210 l 1
 498 154 l 1
 517 135 l 1
 651 135 l 1
517 418 m 1
 498 399 l 1
 498 335 l 1
 641 335 l 1
 655 349 l 1
 655 399 l 1
 636 418 l 1
 517 418 l 1
343 177 m 1
 343 210 l 1
 204 210 l 1
 185 191 l 1
 185 144 l 1
 204 125 l 1
 298 125 l 1
 343 177 l 1
EndSplineSet
EndChar

StartChar: AE
Encoding: 198 198 362
Width: 971
GlyphClass: 1
Flags: MW
HStem: -20 21G<135 135> 0 145<623 951 623 951> 139 135<294 468 294 468 221 468> 298 145<623 909 623 909> 565 145<452 452 452 468 623 951 623 623>
VStem: 468 155<0 298 139 298 274 298 443 565>
LayerCount: 2
Fore
SplineSet
951 710 m 1xbc
 951 565 l 1
 623 565 l 1
 623 443 l 1
 909 443 l 1
 909 298 l 1
 623 298 l 1
 623 145 l 1
 951 145 l 1
 951 0 l 1
 468 0 l 1x5c
 468 139 l 1
 221 139 l 1
 135 -20 l 1
 0 53 l 1
 356 710 l 1
 951 710 l 1xbc
452 565 m 1
 294 274 l 1
 468 274 l 1xbc
 468 565 l 1
 452 565 l 1
EndSplineSet
EndChar

StartChar: oe
Encoding: 339 339 363
Width: 872
GlyphClass: 1
Flags: MW
HStem: 0 135<157 676 541 676 541 695 475 676> 200 125<522 666 522 737 522 666> 398 145<224 348 224 224> 418 125<541 541 541 661>
VStem: 50 155<164 379 164 435 164 435> 367 155<164 200 154 325 325 379 379 379> 680 155<339 399 399 399>
LayerCount: 2
Fore
SplineSet
676 135 m 1xee
 801 175 l 1
 842 46 l 1
 695 0 l 1
 475 0 l 1
 444 30 l 1
 415 0 l 1
 157 0 l 1
 50 108 l 1
 50 435 l 1
 157 543 l 1
 415 543 l 1
 444 513 l 1
 475 543 l 1
 727 543 l 1
 835 436 l 1
 835 297 l 1
 737 200 l 1
 522 200 l 1
 522 154 l 1
 541 135 l 1
 676 135 l 1xee
224 145 m 1
 348 145 l 1
 367 164 l 1
 367 379 l 1
 348 398 l 1
 224 398 l 1
 205 379 l 1
 205 164 l 1
 224 145 l 1
541 418 m 1xde
 522 399 l 1
 522 325 l 1
 666 325 l 1
 680 339 l 1
 680 399 l 1
 661 418 l 1
 541 418 l 1xde
EndSplineSet
EndChar

StartChar: OE
Encoding: 338 338 364
Width: 938
GlyphClass: 1
Flags: MW
HStem: 0 145<251 440 595 918 189 440> 298 145<595 876 595 876> 565 145<251 440 251 251 595 918 595 595>
VStem: 50 155<187 523 187 584 187 584> 440 155<145 298 443 565>
LayerCount: 2
Fore
SplineSet
189 710 m 1
 918 710 l 1
 918 565 l 1
 595 565 l 1
 595 443 l 1
 876 443 l 1
 876 298 l 1
 595 298 l 1
 595 145 l 1
 918 145 l 1
 918 0 l 1
 189 0 l 1
 50 126 l 1
 50 584 l 1
 189 710 l 1
440 145 m 1
 440 565 l 1
 251 565 l 1
 205 523 l 1
 205 187 l 1
 251 145 l 1
 440 145 l 1
EndSplineSet
EndChar

StartChar: germandbls
Encoding: 223 223 365
Width: 663
GlyphClass: 1
Flags: MW
HStem: 0 21G<60 215 60 60 397 397 397 516> 565 145<240 404 240 240>
VStem: 60 155<0 540 0 602 0 602>
LayerCount: 2
Fore
SplineSet
215 540 m 1
 215 0 l 1
 60 0 l 1
 60 602 l 1
 168 710 l 1
 476 710 l 1
 584 602 l 1
 584 477 l 1
 461 394 l 1
 461 380 l 1
 469 369 l 1
 578 343 l 1
 623 269 l 1
 623 107 l 1
 516 0 l 1
 397 0 l 1
 252 48 l 1
 295 178 l 1
 425 135 l 1
 448 135 l 1
 468 155 l 1
 468 213 l 1
 460 225 l 1
 351 251 l 1
 306 325 l 1
 306 442 l 1
 429 525 l 1
 429 540 l 1
 404 565 l 1
 240 565 l 1
 215 540 l 1
EndSplineSet
EndChar

StartChar: Oslash
Encoding: 216 216 366
Width: 675
GlyphClass: 1
Flags: MW
HStem: -30 21G<140 140> 0 145<273 424 273 486 189 424> 565 145<251 402 251 251> 720 20G<535 535>
VStem: 50 155<305 523 305 584 305 584> 470 155<187 405 405 405>
LayerCount: 2
Fore
SplineSet
140 -30 m 1
 20 61 l 1
 61 115 l 1
 50 126 l 1
 50 584 l 1
 189 710 l 1
 486 710 l 1
 501 696 l 1
 535 740 l 1
 655 649 l 1
 613 594 l 1
 625 584 l 1
 625 126 l 1
 486 0 l 1
 189 0 l 1
 173 14 l 1
 140 -30 l 1
424 145 m 1
 470 187 l 1
 470 405 l 1
 273 145 l 1
 424 145 l 1
205 523 m 1
 205 305 l 1
 402 565 l 1
 251 565 l 1
 205 523 l 1
EndSplineSet
EndChar

StartChar: oslash
Encoding: 248 248 367
Width: 587
GlyphClass: 1
Flags: MW
HStem: -19 21G<118 118> 0 145<250 363 250 430 157 363> 398 145<224 335 224 224> 543 20G
VStem: 50 155<249 379 249 435 249 435> 382 155<164 294 294 294>
LayerCount: 2
Fore
SplineSet
118 -19 m 1xac
 30 58 l 1
 62 95 l 1
 50 108 l 1
 50 435 l 1
 157 543 l 1
 430 543 l 1
 441 531 l 1
 469 563 l 1
 557 486 l 1
 524 448 l 1
 537 435 l 1
 537 108 l 1
 430 0 l 1
 157 0 l 1x5c
 145 12 l 1
 118 -19 l 1xac
363 145 m 1x6c
 382 164 l 1
 382 294 l 1
 250 145 l 1
 363 145 l 1x6c
205 379 m 1
 205 249 l 1
 335 398 l 1
 224 398 l 1
 205 379 l 1
EndSplineSet
EndChar

StartChar: cent
Encoding: 162 162 368
Width: 554
GlyphClass: 1
Flags: MW
HStem: -70 215<224 359 220 375> 0 145<158 375 158 375 359 375 224 394 359 359> 325 218<377 424 158 532 377 377> 398 215<224 358 224 224>
VStem: 50 155<164 379 164 436 164 436> 220 139<-70 0 -70 0 543 613>
LayerCount: 2
Fore
SplineSet
359 543 m 1xac
 424 543 l 1
 532 436 l 1
 532 325 l 1
 377 325 l 1xac
 377 379 l 1
 358 398 l 1
 224 398 l 1
 205 379 l 1
 205 164 l 1
 224 145 l 1
 375 145 l 1
 500 185 l 1
 544 47 l 1
 394 0 l 1
 359 0 l 1x5c
 359 -70 l 1
 220 -70 l 1xac
 220 0 l 1
 158 0 l 1
 50 107 l 1
 50 436 l 1
 158 543 l 1
 220 543 l 1x6c
 220 613 l 1
 359 613 l 1x9c
 359 543 l 1xac
EndSplineSet
EndChar

StartChar: yen
Encoding: 165 165 369
Width: 604
GlyphClass: 1
Flags: MW
HStem: 0 21G<224 379 224 224> 100 100<72 224 72 224 379 531> 240 100<72 164 72 164 72 215 439 531> 715 20G<139 139 465 465>
VStem: 224 155<0 100 0 100 200 220 0 222 0 222>
LayerCount: 2
Fore
SplineSet
72 240 m 1
 72 340 l 1
 164 340 l 1
 0 665 l 1
 139 735 l 1
 288 440 l 1
 300 371 l 1
 304 371 l 1
 316 440 l 1
 465 735 l 1
 604 665 l 1
 439 340 l 1
 531 340 l 1
 531 240 l 1
 389 240 l 1
 379 220 l 1
 379 200 l 1
 531 200 l 1
 531 100 l 1
 379 100 l 1
 379 0 l 1
 224 0 l 1
 224 100 l 1
 72 100 l 1
 72 200 l 1
 224 200 l 1
 224 222 l 1
 215 240 l 1
 72 240 l 1
EndSplineSet
EndChar

